<svg width="94" height="62" viewBox="0 0 94 62" fill="none" xmlns="http://www.w3.org/2000/svg">
<path fill-rule="evenodd" clip-rule="evenodd" d="M80.5637 2.28774C81.2024 1.78441 81.9615 1.18621 82.5167 0.934615C83.2316 0.610662 84.1471 0.734079 84.7119 1.29189C85.1631 1.73743 85.5463 2.33748 85.9313 2.84515C87.0843 4.36947 88.2268 5.90219 89.4002 7.41095C90.698 9.07978 91.94 10.7903 93.1815 12.5012C93.6595 13.1598 93.9613 13.6503 93.8297 14.5084C93.6253 15.8396 92.1295 16.531 91.1621 17.2495L86.4782 20.7015C82.2133 23.9816 77.9051 27.2038 73.5535 30.368C72.0536 31.4689 70.606 32.8494 68.958 33.729C68.1523 34.1592 67.2402 33.789 66.7335 33.0997C65.5522 31.4927 64.5044 29.7912 63.2435 28.2426C62.4155 28.9062 61.5825 29.5568 60.7023 30.1503C61.1764 30.6973 61.6468 31.2425 62.0512 31.8447C63.1771 33.5211 64.0119 35.6429 64.3198 37.6366C64.5237 38.9568 64.5635 40.2943 64.6869 41.6229C66.1347 41.6212 67.8037 41.3697 69.2283 41.7048C71.232 42.1764 70.6225 44.8434 70.6358 46.3473C70.7564 45.7748 70.9288 45.292 71.4417 44.9508C72.2563 44.407 73.4178 44.7369 73.9063 45.5585C74.6939 46.9122 73.3268 48.5645 71.8669 48.0891C71.2067 47.8741 70.8457 47.2603 70.615 46.6483C70.6174 48.2069 71.2085 50.7313 69.1418 51.2064C68.2715 51.4066 67.3083 51.3154 66.4242 51.2634L66.4228 51.2633C65.9726 51.2465 65.5548 51.2309 65.2364 51.2342C65.3683 53.3264 65.5882 55.4123 65.7085 57.5054C65.7495 58.2194 65.87 59.0456 65.7617 59.7541C65.6191 60.6881 64.7649 61.2793 63.8623 61.3096C62.188 61.3658 60.4965 61.3214 58.8202 61.3259L34.6922 61.2935C32.9891 61.2958 31.2482 61.4134 29.5484 61.2796C28.7817 61.2195 28.0828 60.7535 28.0035 59.9393C27.9069 58.9512 28.0786 57.8344 28.1492 56.8416C28.2812 54.9327 28.4297 53.025 28.5946 51.1186C27.6135 51.1055 25.5948 51.2472 24.7437 51.0386C23.3133 50.6876 23.2714 49.1884 23.274 47.9438C23.2745 47.6753 23.275 47.4226 23.2617 47.2034C22.5289 47.9887 21.2447 48.638 20.3091 47.7944C19.9342 47.4613 19.7341 47.0002 19.7205 46.5015C19.6946 45.5437 20.5035 44.7374 21.4622 44.7315C22.2672 44.7266 22.7895 45.3172 23.3137 45.8368C23.3316 45.5558 23.318 45.2092 23.3034 44.8376C23.2527 43.5456 23.1952 41.8926 24.7389 41.5498C25.5849 41.3619 28.1576 41.4893 29.1726 41.4965C29.382 36.6951 29.9922 33.8105 33.2361 30.0358C32.3702 29.4397 31.5188 28.8234 30.6818 28.1871C29.879 29.218 29.1379 30.2915 28.3966 31.3654C27.821 32.1991 27.1339 33.7071 26.0185 33.8733C24.8737 34.0436 24.206 33.2983 23.3461 32.6619C16.5112 27.6231 9.7728 22.45 2.98843 17.3436C2.28435 16.8259 1.45259 16.3677 0.839227 15.7448C0.017041 14.9098 -0.0594367 13.7072 0.605891 12.7504C2.46533 10.076 4.51992 7.52514 6.47566 4.92126C7.52911 3.5128 9.34024 -0.0937731 11.4971 1.02408C12.4097 1.49706 13.2692 2.25667 14.0983 2.86827C19.9284 7.1685 25.8088 11.4021 31.6623 15.6705C32.7231 16.4605 34.3075 17.3867 35.2125 18.2882C35.875 18.9484 36.0785 20.0079 35.7388 20.8745C34.9572 22.868 33.1392 24.6797 31.9219 26.4136C32.8324 27.1461 33.7996 27.8392 34.7502 28.5204L34.7628 28.5295C35.0264 28.351 35.2842 28.1677 35.5414 27.9849C36.0656 27.6122 36.5876 27.2411 37.152 26.9147C40.0404 25.2443 43.3511 24.6537 46.6466 24.6255L46.6379 21.4581C45.6353 21.2671 44.7883 20.65 44.4867 19.6312C43.8719 17.5378 46.2428 15.6401 48.1577 16.8165C49.3419 17.544 49.6754 19.1617 48.9372 20.3158C48.5019 20.9964 47.9055 21.2707 47.1508 21.4504L47.1349 24.6247C51.4352 24.591 55.4995 25.7399 58.8848 28.4566C59.92 27.7704 60.9207 26.9562 61.8832 26.171C61.3678 25.4755 60.8696 24.7645 60.3719 24.0542C59.6641 23.0035 58.6991 22.0199 58.2042 20.8454C57.8672 20.0456 57.9961 19.095 58.6169 18.4757C60.1089 16.9874 62.0733 15.8448 63.7649 14.6016C69.3571 10.5013 75.1157 6.58073 80.5637 2.28774Z" fill="#F1FFFF"/>
<path d="M64.6868 42.3038L65.2364 50.677C67.0814 51.0899 70.6173 51.1326 69.9999 48.0001C69.786 46.9147 69.8731 45.9398 69.947 45.1124C70.1397 42.955 70.2428 41.8005 64.6868 42.3038Z" fill="#FFE9A9"/>
<path d="M29.0103 41.8268L28.4999 50.5001C26.7866 50.9278 23.5033 50.9721 24.0766 47.7273C24.2752 46.603 24.1944 45.5931 24.1257 44.7361C23.9468 42.5014 23.851 41.3054 29.0103 41.8268Z" fill="#FFE9A9"/>
<path fill-rule="evenodd" clip-rule="evenodd" d="M63.984 39.0177C61.9417 38.9657 59.8863 38.98 57.8434 38.9991L34.7827 39.0076C34.4468 39.0158 34.1101 39.0148 33.7737 39.0139C33.627 39.0134 33.4803 39.013 33.3338 39.0133C32.8067 38.9983 32.2768 39.002 31.7476 39.0058C31.4877 39.0076 31.2279 39.0094 30.9688 39.009L29.7521 39.0081C29.3143 44.9876 28.9273 50.9704 28.591 56.9565L29.6676 56.9578C30.5201 56.9658 31.3727 56.967 32.2253 56.9614C32.3554 56.9613 32.4863 56.9593 32.6177 56.9573C32.9107 56.9527 33.2054 56.9482 33.4948 56.9646C33.5011 56.9677 33.5074 56.971 33.5137 56.9743C33.526 56.9807 33.5383 56.9872 33.5515 56.9916C33.7101 57.0447 35.9712 57.0098 37.25 56.9901C37.6265 56.9843 37.9178 56.9798 38.0453 56.9792L51.9466 56.9695C52.6795 56.9694 53.4121 56.9532 54.1446 56.937C55.2105 56.9134 56.2763 56.8898 57.3426 56.9161L58.4665 56.865C59.2305 56.9135 59.9978 56.9134 60.764 56.9132C60.9643 56.9132 61.1645 56.9132 61.3645 56.914C62.6462 56.926 63.928 56.9234 65.2097 56.9063C65.1898 56.7023 65.1693 56.4981 65.1489 56.2938C65.0652 55.4576 64.9813 54.6189 64.9311 53.7818C64.8597 52.5891 64.8159 51.3936 64.7722 50.1978C64.7326 49.1165 64.693 48.0351 64.633 46.9554C64.4917 44.4178 64.2531 41.8795 64.0151 39.3486C64.0047 39.2383 63.9943 39.128 63.984 39.0177ZM58.5001 57.5C57.208 57.5378 55.7927 57.5144 54.5001 57.5C53.7993 57.4921 52.7013 57.4995 52.0001 57.5H39.3507H35.0001C34.7934 57.4997 34.7122 57.5035 34.5001 57.5C33.8047 57.4884 32.8864 57.6016 32.2253 57.5C30.9733 57.506 29.8351 57.402 28.5832 57.3913C28.5674 57.5383 28.5432 57.707 28.517 57.8891C28.3956 58.7345 28.2328 59.8675 28.6838 60.4427C28.9398 60.7694 29.2353 60.7947 29.612 60.827C29.629 60.8285 29.6462 60.83 29.6635 60.8315C30.5671 60.9104 31.5023 60.8876 32.4296 60.8649C32.8982 60.8535 33.3649 60.8421 33.8244 60.8439C36.5848 60.8799 39.3454 60.9003 42.1061 60.9052C46.7288 60.927 51.3514 60.9168 55.9739 60.8745C56.7414 60.871 57.5105 60.8735 58.28 60.876C60.0113 60.8817 61.7452 60.8873 63.4703 60.8246C63.4982 60.8236 63.5292 60.8227 63.5628 60.8217C63.8961 60.8116 64.4769 60.794 64.6855 60.6245C64.6935 60.618 64.7011 60.6112 64.7086 60.6043C64.715 60.5985 64.7214 60.5928 64.728 60.5873C64.7383 60.5785 64.7488 60.57 64.7594 60.5615C64.769 60.5537 64.7787 60.5458 64.7883 60.5378C65.1452 60.2373 65.3229 59.8786 65.3502 59.413C65.3791 58.9192 65.3282 58.392 65.279 57.8836C65.2655 57.7432 65.252 57.6042 65.2404 57.4678C64.4118 57.4667 63.5831 57.4607 62.7544 57.45C62.0001 57.5 60.1426 57.4637 59.0001 57.5C58.7591 57.5076 58.6447 57.497 58.5001 57.5Z" fill="#785BC4"/>
<path d="M28.5832 57.3914C29.8351 57.4021 31.087 57.4044 32.339 57.3984C35.0648 57.4528 37.7986 57.4097 40.5252 57.41L52.0623 57.4351L59.6448 57.46C60.6703 57.4575 61.7339 57.5149 62.7544 57.4501C63.5831 57.4608 64.4118 57.4667 65.2404 57.4679C65.2939 58.0983 65.3871 58.7829 65.3502 59.4131C65.3229 59.8786 65.1451 60.2374 64.7883 60.5379C64.7684 60.5546 64.7479 60.5706 64.728 60.5873C64.7136 60.5994 64.7001 60.6127 64.6855 60.6245C64.4559 60.8111 63.7754 60.8136 63.4703 60.8247C60.9785 60.9153 58.4681 60.8632 55.9739 60.8746C51.3514 60.9168 46.7288 60.9271 42.1061 60.9052C39.3454 60.9003 36.5848 60.8799 33.8244 60.844C32.4557 60.8386 31.0238 60.9504 29.6635 60.8315C29.2621 60.7964 28.9514 60.7842 28.6838 60.4428C28.1357 59.7437 28.4941 58.2208 28.5832 57.3914Z" fill="#9872D5"/>
<path d="M34.838 58.6127C34.9465 58.6093 35.049 58.6116 35.1539 58.6449C35.3062 58.6933 35.4449 58.8125 35.5155 58.9558C35.5937 59.1148 35.5923 59.2995 35.5368 59.4654C35.451 59.7217 35.2942 59.8238 35.0647 59.9464C34.9994 59.9526 34.9195 59.9649 34.853 59.9583C34.6764 59.9406 34.5086 59.8607 34.4074 59.7113C34.2973 59.5489 34.2935 59.3539 34.3406 59.1693C34.4155 58.8762 34.5855 58.7554 34.838 58.6127Z" fill="white"/>
<path d="M42.466 58.6636C42.5197 58.6615 42.5734 58.662 42.627 58.6651C42.8531 58.6762 43.0529 58.7504 43.1992 58.9291C43.3014 59.0539 43.3215 59.2327 43.2852 59.3852C43.2237 59.644 43.0362 59.7759 42.8273 59.9172C42.7132 59.9428 42.6135 59.9559 42.498 59.9359C42.3405 59.9086 42.2136 59.8193 42.1237 59.6882C42.028 59.5487 42.0212 59.3438 42.0555 59.1839C42.1108 58.9267 42.258 58.8073 42.466 58.6636Z" fill="white"/>
<path d="M50.806 58.5139C50.9162 58.5092 51.0324 58.5008 51.1422 58.5137C51.284 58.5303 51.4232 58.6328 51.5093 58.7426C51.6094 58.8704 51.6507 59.0256 51.621 59.186C51.5776 59.4197 51.4427 59.5636 51.2521 59.692C51.1653 59.6982 51.0748 59.706 50.988 59.6981C50.8281 59.6835 50.6646 59.5796 50.5681 59.4539C50.4674 59.323 50.4373 59.1637 50.4626 59.0037C50.5002 58.7661 50.6228 58.6561 50.806 58.5139Z" fill="white"/>
<path d="M58.7453 58.5139C58.7621 58.5137 58.7788 58.5132 58.7955 58.5132C59.0178 58.5119 59.2066 58.5398 59.3662 58.7109C59.4766 58.8293 59.524 58.9829 59.5056 59.1424C59.4748 59.4089 59.3287 59.545 59.1293 59.7063C59.0504 59.7143 58.9571 59.7293 58.8786 59.7198C58.7478 59.7039 58.6233 59.6281 58.5383 59.528C58.4326 59.4033 58.3961 59.2399 58.4109 59.0798C58.4355 58.8122 58.5431 58.6795 58.7453 58.5139Z" fill="white"/>
<path fill-rule="evenodd" clip-rule="evenodd" d="M63.9838 39.0177C61.9416 38.9657 59.8862 38.98 57.8433 38.9991L58.4215 56.8497L58.4663 56.865C59.2304 56.9135 59.9977 56.9134 60.7639 56.9132C60.9641 56.9132 61.1643 56.9132 61.3644 56.914C62.6461 56.926 63.9278 56.9234 65.2096 56.9063C65.1896 56.7023 65.1692 56.4981 65.1487 56.2937C65.0651 55.4576 64.9812 54.6189 64.931 53.7818C64.8596 52.5891 64.8158 51.3936 64.772 50.1978C64.7325 49.1165 64.6929 48.0351 64.6328 46.9554C64.4916 44.4177 64.2529 41.8794 64.0149 39.3485C64.0046 39.2382 63.9942 39.1279 63.9838 39.0177Z" fill="#27127D"/>
<path d="M30.9686 39.009C31.7553 39.0102 32.5476 38.9909 33.3336 39.0133C33.8162 39.0122 34.3001 39.0194 34.7826 39.0076C34.2938 43.5792 34.1727 48.2054 33.8323 52.7919C33.7315 54.1489 33.7368 55.564 33.5372 56.9058L33.4946 56.9647C33.0755 56.9408 32.6454 56.961 32.2251 56.9614C31.3725 56.967 30.5199 56.9658 29.6674 56.9578L28.5908 56.9565C28.9271 50.9704 29.3142 44.9876 29.7519 39.0081L30.9686 39.009Z" fill="#785BC4"/>
<path d="M33.3336 39.0133C33.8162 39.0122 34.3001 39.0193 34.7825 39.0076C34.2938 43.5792 34.1727 48.2054 33.8322 52.7919C33.7315 54.1488 33.7367 55.564 33.5372 56.9058L33.4946 56.9646C33.0755 56.9408 32.6454 56.961 32.2251 56.9614C32.4099 53.4303 32.6262 49.9011 32.874 46.3739C33.0323 43.9207 33.1405 41.4643 33.3336 39.0133Z" fill="#BB8CE9"/>
<path d="M29.7519 39.0081L30.9686 39.009C30.8141 41.137 30.5434 43.2569 30.4101 45.3873C30.1692 49.238 30.0608 53.1199 29.6674 56.9578L28.5908 56.9565C28.9271 50.9703 29.3142 44.9875 29.7519 39.0081Z" fill="#BB8CE9"/>
<path fill-rule="evenodd" clip-rule="evenodd" d="M40.2836 42.6865C39.823 42.4996 39.4032 42.5066 38.9198 42.5376C38.2888 42.766 37.7957 43.1108 37.5053 43.74C37.4903 43.7729 37.4762 43.8063 37.4628 43.84C37.4495 43.8737 37.437 43.9077 37.4254 43.942C37.4138 43.9763 37.4031 44.0109 37.3932 44.0458C37.3832 44.0806 37.3742 44.1157 37.3661 44.151C37.3579 44.1863 37.3507 44.2218 37.3443 44.2575C37.3379 44.2931 37.3324 44.3289 37.3278 44.3649C37.3232 44.4008 37.3195 44.4368 37.3167 44.4729C37.3138 44.509 37.3119 44.5452 37.3109 44.5815C37.3099 44.6177 37.3098 44.6539 37.3105 44.6901C37.3113 44.7263 37.313 44.7625 37.3157 44.7986C37.3182 44.8347 37.3217 44.8708 37.3261 44.9068C37.3305 44.9427 37.3357 44.9785 37.3419 45.0143C37.3481 45.05 37.3551 45.0855 37.363 45.1208C37.3709 45.1562 37.3797 45.1914 37.3894 45.2263C37.3991 45.2612 37.4096 45.2958 37.421 45.3302C37.4325 45.3646 37.4447 45.3987 37.4578 45.4325C37.6658 45.9819 38.0816 46.4314 38.6291 46.6529C39.0622 46.8281 39.52 46.8436 39.9734 46.7487C38.6291 46.453 38.5365 43.3902 40.2836 42.6865Z" fill="white"/>
<path d="M41.4566 43.8556C41.251 43.3076 40.8222 42.9051 40.2836 42.6865C38.5365 43.3902 38.6291 46.453 39.9734 46.7487C40.5792 46.555 41.081 46.2345 41.3733 45.6467C41.645 45.1001 41.6705 44.4259 41.4566 43.8556Z" fill="#14103E"/>
<path fill-rule="evenodd" clip-rule="evenodd" d="M54.9248 42.6159C54.6177 42.527 54.3059 42.5183 53.9643 42.5387C53.3272 42.7333 52.7963 43.0287 52.4699 43.6382C52.4532 43.6699 52.4374 43.702 52.4224 43.7345C52.4074 43.767 52.3932 43.7999 52.3798 43.8331C52.3665 43.8664 52.3539 43.8999 52.3422 43.9338C52.3305 43.9676 52.3196 44.0017 52.3096 44.0361C52.2996 44.0705 52.2905 44.1051 52.2822 44.1398C52.2739 44.1747 52.2665 44.2097 52.26 44.2449C52.2534 44.2801 52.2477 44.3155 52.243 44.3509C52.2382 44.3865 52.2342 44.4221 52.2312 44.4577C52.2282 44.4934 52.2261 44.5292 52.2249 44.565C52.2237 44.6008 52.2233 44.6365 52.2239 44.6723C52.2244 44.7081 52.2259 44.7439 52.2282 44.7796C52.2305 44.8153 52.2337 44.851 52.2379 44.8866C52.2419 44.9221 52.2469 44.9576 52.2527 44.9929C52.2586 45.0282 52.2654 45.0634 52.2729 45.0984C52.2806 45.1334 52.2891 45.1681 52.2985 45.2027C52.3078 45.2373 52.318 45.2716 52.329 45.3057C52.3398 45.3386 52.3513 45.3712 52.3636 45.4036C52.3759 45.4359 52.3891 45.468 52.403 45.4997C52.417 45.5314 52.4316 45.5627 52.4471 45.5937C52.4625 45.6247 52.4788 45.6553 52.4958 45.6855C52.5128 45.7157 52.5305 45.7454 52.5489 45.7747C52.5673 45.804 52.5864 45.8329 52.6063 45.8613C52.6262 45.8896 52.6467 45.9175 52.6679 45.9448C52.6892 45.9722 52.7111 45.999 52.7337 46.0253C52.7562 46.0516 52.7794 46.0773 52.8032 46.1024C52.827 46.1276 52.8514 46.1521 52.8765 46.176C52.9015 46.2 52.9271 46.2232 52.9533 46.2459C52.9794 46.2686 53.0062 46.2906 53.0334 46.3119C53.0607 46.3333 53.0885 46.354 53.1168 46.374C53.1451 46.3939 53.1738 46.4132 53.203 46.4319C53.2322 46.4504 53.2619 46.4683 53.292 46.4854C53.3222 46.5024 53.3527 46.5188 53.3836 46.5344C53.7975 46.7467 54.1491 46.7209 54.6052 46.6754C53.2608 46.3797 53.1777 43.3195 54.9248 42.6159Z" fill="white"/>
<path d="M55.4265 42.8414C55.3967 42.8227 55.3666 42.8048 55.3359 42.7877C55.1983 42.7114 55.062 42.6557 54.9248 42.6159C53.1777 43.3195 53.2608 46.3797 54.6052 46.6754C55.2075 46.5182 55.7223 46.3227 56.0566 45.7748C56.0755 45.7437 56.0936 45.7122 56.111 45.6801C56.1284 45.6482 56.1449 45.6158 56.1607 45.583C56.1765 45.5502 56.1915 45.517 56.2057 45.4835C56.2198 45.45 56.2332 45.4161 56.2457 45.382C56.2583 45.3478 56.27 45.3133 56.2809 45.2786C56.2918 45.2439 56.3018 45.2089 56.311 45.1737C56.3201 45.1384 56.3284 45.103 56.3359 45.0674C56.3434 45.0318 56.35 44.996 56.3557 44.96C56.3615 44.9241 56.3663 44.8881 56.3703 44.8519C56.3742 44.8157 56.3773 44.7794 56.3796 44.7431C56.3818 44.7068 56.3832 44.6704 56.3836 44.634C56.3841 44.5976 56.3837 44.5612 56.3823 44.5249C56.3811 44.4885 56.3789 44.4521 56.3758 44.4159C56.3728 44.3796 56.3689 44.3435 56.364 44.3074C56.3592 44.2713 56.3535 44.2353 56.3469 44.1995C56.3404 44.1638 56.333 44.1281 56.3247 44.0927C56.3165 44.0586 56.3075 44.0247 56.2976 43.991C56.2876 43.9573 56.2768 43.9239 56.2651 43.8908C56.2534 43.8577 56.241 43.8249 56.2276 43.7924C56.2143 43.76 56.2001 43.7279 56.1851 43.6961C56.1701 43.6644 56.1543 43.6331 56.1376 43.6021C56.121 43.5712 56.1035 43.5408 56.0854 43.5107C56.0671 43.4807 56.0482 43.4512 56.0285 43.4222C56.0087 43.3931 55.9882 43.3646 55.967 43.3366C55.9459 43.3086 55.924 43.2812 55.9013 43.2544C55.8787 43.2275 55.8554 43.2013 55.8314 43.1757C55.8074 43.15 55.7828 43.125 55.7575 43.1006C55.7323 43.0762 55.7064 43.0525 55.6799 43.0295C55.6535 43.0064 55.6264 42.9841 55.5987 42.9624C55.5711 42.9408 55.5429 42.9199 55.5142 42.8997C55.4855 42.8795 55.4563 42.8601 55.4265 42.8414Z" fill="#14103E"/>
<path d="M42.8683 47.9272C43.0394 47.9608 43.17 48.0396 43.2302 48.2107C43.2999 48.4091 43.2584 48.7182 43.2548 48.9282C43.2386 49.8768 43.5628 50.674 44.2207 51.358C44.2627 51.4023 44.3059 51.4456 44.3502 51.4877C44.3944 51.5299 44.4397 51.5709 44.486 51.6108C44.5323 51.6507 44.5796 51.6894 44.6278 51.7269C44.6761 51.7644 44.7252 51.8006 44.7753 51.8357C44.8254 51.8707 44.8763 51.9044 44.9281 51.9368C44.9799 51.9692 45.0325 52.0004 45.0858 52.0302C45.1392 52.06 45.1933 52.0884 45.2481 52.1154C45.3028 52.1425 45.3583 52.1682 45.4143 52.1925C45.4704 52.2168 45.5271 52.2396 45.5843 52.261C45.6416 52.2825 45.6993 52.3024 45.7575 52.3209C45.8158 52.3394 45.8745 52.3564 45.9336 52.372C45.9927 52.3875 46.0522 52.4015 46.112 52.4141C46.1718 52.4267 46.2319 52.4377 46.2923 52.4472C46.3526 52.4567 46.4132 52.4647 46.4739 52.4711C46.5347 52.4775 46.5956 52.4825 46.6567 52.4859C46.7177 52.4892 46.7787 52.4911 46.8398 52.4914C46.9069 52.4914 46.974 52.4898 47.041 52.4866C47.1081 52.4833 47.175 52.4784 47.2417 52.4718C47.3086 52.4653 47.3751 52.4571 47.4415 52.4473C47.5079 52.4374 47.574 52.426 47.6398 52.4129C47.7056 52.3999 47.7711 52.3853 47.8362 52.369C47.9013 52.3527 47.966 52.3348 48.0302 52.3154C48.0945 52.296 48.1582 52.275 48.2214 52.2524C48.2846 52.2298 48.3472 52.2057 48.4092 52.1801C48.4712 52.1544 48.5325 52.1272 48.5932 52.0986C48.6539 52.0699 48.7138 52.0398 48.7731 52.0083C48.8323 51.9766 48.8906 51.9436 48.9482 51.9092C49.0058 51.8747 49.0626 51.8389 49.1184 51.8016C49.1742 51.7644 49.2291 51.7258 49.283 51.6859C49.3369 51.6459 49.3899 51.6047 49.4418 51.5622C49.4937 51.5197 49.5445 51.4759 49.5943 51.4309C49.644 51.3858 49.6927 51.3396 49.7402 51.2922C50.5247 50.5122 50.7913 49.8363 50.8083 48.734C50.8122 48.4791 50.8182 48.1278 51.0138 47.9403C51.1316 47.9337 51.1444 47.9328 51.2409 48.011C51.4103 48.1484 51.4213 48.2885 51.4446 48.4937C51.429 49.3281 51.2977 50.0324 50.854 50.7541C50.2095 51.8026 49.1215 52.6204 47.916 52.8947C46.8082 53.147 45.5744 52.9583 44.6125 52.3489C44.5549 52.3121 44.4982 52.274 44.4425 52.2346C44.3868 52.1951 44.3321 52.1543 44.2784 52.1121C44.2246 52.07 44.172 52.0265 44.1203 51.9817C44.0687 51.937 44.0183 51.891 43.9689 51.8437C43.9196 51.7965 43.8715 51.7481 43.8245 51.6985C43.7775 51.6489 43.7318 51.5982 43.6873 51.5464C43.6428 51.4945 43.5997 51.4416 43.5578 51.3876C43.5159 51.3337 43.4754 51.2787 43.4362 51.2228C43.3969 51.1669 43.3591 51.11 43.3228 51.0522C43.2864 50.9944 43.2514 50.9357 43.2179 50.8762C43.1844 50.8167 43.1524 50.7564 43.1218 50.6953C43.0912 50.6342 43.0622 50.5724 43.0346 50.5099C43.0072 50.4474 42.9812 50.3842 42.9567 50.3205C42.9323 50.2567 42.9095 50.1923 42.8882 50.1274C42.8669 50.0625 42.8473 49.9972 42.8293 49.9313C42.8112 49.8654 42.7947 49.7991 42.7799 49.7324C42.658 49.184 42.5532 48.4221 42.8683 47.9272Z" fill="#27127D"/>
<path d="M43.7235 25.2836C44.3201 25.021 47.5439 25.0726 48.3287 25.1408C52.0582 25.0875 56.7756 26.8646 59.4448 29.4722C61.9631 31.9323 63.587 34.9859 63.9497 38.5124L59.9904 38.5148C59.2538 38.5136 58.4717 38.558 57.7408 38.4678C55.3777 38.3883 52.9897 38.4547 50.6247 38.4547L34.8836 38.462C34.3913 38.454 33.8981 38.4622 33.4057 38.4639C32.6004 38.4861 31.7936 38.4717 30.988 38.4657L29.8252 38.4655C30.2472 35.9355 30.9978 33.6703 32.5562 31.5866C35.3388 27.8662 39.2042 25.9466 43.7235 25.2836Z" fill="#785BC4"/>
<path d="M48.3286 25.1408C52.0581 25.0875 56.7755 26.8647 59.4447 29.4723C61.963 31.9324 63.5869 34.9859 63.9496 38.5125L59.9903 38.5149C59.2537 38.5137 58.4716 38.558 57.7407 38.4678C57.7244 38.1124 57.6952 37.758 57.6531 37.4046C57.611 37.0513 57.5561 36.7 57.4884 36.3507C57.4207 36.0014 57.3405 35.655 57.2476 35.3116C57.1547 34.9681 57.0494 34.6284 56.9317 34.2926C55.835 31.122 53.9012 28.3791 51.038 26.5634C50.1649 26.0096 49.2555 25.5906 48.3286 25.1408Z" fill="#27127D"/>
<path d="M43.7235 25.2837C43.6977 25.301 43.6722 25.3189 43.646 25.3355C43.2877 25.5627 42.403 25.6915 41.9528 25.8332C41.3882 26.0157 40.8353 26.2288 40.2943 26.4724C36.0029 28.4075 32.5526 32.2034 31.3604 36.7951C31.2188 37.3401 31.0725 37.9095 30.988 38.4657L29.8252 38.4655C30.2472 35.9355 30.9978 33.6704 32.5562 31.5867C35.3388 27.8663 39.2042 25.9467 43.7235 25.2837Z" fill="#BB8CE9"/>
<path d="M34.4472 34.9659C34.6887 34.8261 34.9434 34.6771 35.2326 34.7547C35.4778 34.8206 35.6087 35.0172 35.72 35.2298C35.7482 35.283 35.775 35.3369 35.8002 35.3916C35.6274 35.8194 35.4159 36.2315 35.2691 36.6693C35.0739 37.2512 34.9939 37.8603 34.8836 38.462C34.3913 38.454 33.8981 38.4623 33.4058 38.4639C33.5705 37.3788 33.8476 35.8874 34.4472 34.9659Z" fill="#BB8CE9"/>
<path d="M37.1803 31.1763C37.3836 31.2048 37.5777 31.2649 37.7478 31.3827C37.8952 31.4847 38.0021 31.6266 38.0307 31.8064C38.0693 32.0493 37.9688 32.2937 37.8298 32.4885C37.6111 32.7948 36.7046 33.9207 36.4309 34.114C36.3271 34.1873 36.1931 34.2078 36.0706 34.2295C35.9627 34.2213 35.8507 34.2142 35.7473 34.1807C35.5678 34.1224 35.3876 33.9973 35.3099 33.8205C35.2258 33.6296 35.2607 33.4026 35.3315 33.2134C35.547 32.6374 36.6244 31.4107 37.1803 31.1763Z" fill="#BB8CE9"/>
<path d="M40.8521 28.7607C41.0329 28.7445 41.2257 28.7175 41.4036 28.7652C41.6198 28.8232 41.8077 28.9955 41.9095 29.1922C41.9849 29.3378 41.9982 29.4907 41.9343 29.6444C41.6855 30.243 40.4573 30.6394 39.9025 30.8926C39.7103 30.9483 39.5326 30.9849 39.339 30.911C39.1317 30.8319 38.9407 30.6472 38.8602 30.4398C38.79 30.2587 38.8069 30.0625 38.8918 29.8896C39.1938 29.2753 40.2488 28.9672 40.8521 28.7607Z" fill="#BB8CE9"/>
<path d="M75.6641 17.4751C76.1071 18.1677 76.6332 18.8149 77.1299 19.4695C77.8626 20.4528 78.6081 21.4264 79.3664 22.3902C79.8748 23.047 80.3751 23.7098 80.8676 24.3786C79.5527 25.3234 78.2732 26.3122 76.9694 27.2719C76.0019 27.9841 75.0001 28.6641 74.0463 29.3928C73.5795 28.7584 73.0513 28.1254 72.6377 27.4576C72.3079 26.908 71.8756 26.4032 71.4878 25.8924C70.6267 24.7577 69.7243 23.6227 68.9604 22.4202C70.3788 21.3245 71.8506 20.2673 73.3028 19.2157C74.0946 18.6422 74.9025 18.089 75.6641 17.4751Z" fill="#FFC518"/>
<path d="M79.3664 22.3904C79.8748 23.0472 80.3752 23.7099 80.8676 24.3787C79.5527 25.3236 78.2732 26.3124 76.9694 27.272C76.002 27.9843 75.0001 28.6642 74.0463 29.393C73.5795 28.7585 73.0514 28.1256 72.6377 27.4578C73.7473 26.5018 74.948 25.6511 76.1237 24.7788C77.1995 23.9806 78.2648 23.1522 79.3664 22.3904Z" fill="#FFE9A9"/>
<path d="M16.1683 5.00098C16.6758 5.21038 17.5741 5.99691 18.0706 6.35831C19.7171 7.5568 21.3518 8.78848 23.0327 9.93681C22.2827 11.0282 21.4917 12.096 20.7199 13.1724C19.853 14.3815 19.0001 15.6023 18.081 16.7726C18.0301 16.8135 18.0656 16.7916 17.9628 16.8134C16.8828 15.9752 15.7943 15.1482 14.6974 14.3322C13.5509 13.4959 12.3822 12.6904 11.2861 11.7871C11.884 10.8915 12.5433 10.0386 13.1682 9.16204C14.1621 7.76751 15.1353 6.36806 16.1683 5.00098Z" fill="#FFC518"/>
<path d="M18.1496 17.5649C20.4142 19.183 22.596 20.9162 24.8654 22.523C23.7071 24.1738 22.5204 25.8043 21.3729 27.4626C20.8874 28.1256 20.4153 28.7912 19.9662 29.4796C17.6515 27.8554 15.4418 26.0652 13.1724 24.3765C13.6077 23.7033 14.1126 23.059 14.5832 22.409L18.1496 17.5649Z" fill="#FFC518"/>
<path d="M14.5832 22.4089C15.5081 23.0057 16.3798 23.7198 17.2587 24.3841C18.6216 25.4217 19.993 26.4479 21.3729 27.4626C20.8874 28.1256 20.4153 28.7912 19.9662 29.4796C17.6515 27.8554 15.4418 26.0651 13.1724 24.3765C13.6077 23.7032 14.1126 23.059 14.5832 22.4089Z" fill="#FFE9A9"/>
<path d="M82.8815 12.2776C83.6197 13.3587 84.424 14.3927 85.2146 15.4357C85.6524 16.0134 86.128 16.5878 86.5008 17.2099C86.9572 17.8485 87.4033 18.4994 87.8847 19.1192C86.6592 19.9481 85.5075 20.8637 84.3312 21.7581C83.2903 22.5405 82.2418 23.3128 81.1859 24.0749C80.7457 23.4182 80.2863 22.7752 79.8076 22.1459C79.0778 21.231 78.388 20.287 77.678 19.3569C77.1397 18.6518 76.5659 17.9608 76.0737 17.2229C78.3079 15.5319 80.5989 13.9025 82.8815 12.2776Z" fill="#FFC518"/>
<path d="M86.5008 17.2097C86.9572 17.8483 87.4033 18.4992 87.8846 19.119C86.6592 19.9479 85.5075 20.8635 84.3312 21.7579C83.2902 22.5404 82.2418 23.3126 81.1859 24.0747C80.7457 23.418 80.2863 22.775 79.8076 22.1458C80.5242 21.5412 81.3115 21.008 82.0549 20.4357C82.8944 19.7895 85.6386 17.4423 86.5008 17.2097Z" fill="#FFE9A9"/>
<path d="M10.9862 12.2026C13.2279 13.875 15.4379 15.6019 17.6964 17.2506C16.544 18.8806 15.4106 20.5299 14.1917 22.1113C13.7 22.7702 13.2282 23.4448 12.7424 24.1082C12.1706 23.6161 11.5385 23.1707 10.9386 22.7115C9.31216 21.4667 7.65163 20.2655 6.0459 18.9941C6.48829 18.3643 6.93845 17.74 7.39639 17.1214C8.58604 15.4782 9.80907 13.854 10.9862 12.2026Z" fill="#FFC518"/>
<path d="M7.39639 17.1213C8.10381 17.5318 8.76729 18.0438 9.42606 18.5285C10.4317 19.266 11.4276 20.0165 12.4137 20.78C12.9915 21.2247 13.6556 21.6275 14.1917 22.1113C13.7 22.7701 13.2282 23.4448 12.7424 24.1081C12.1706 23.6161 11.5385 23.1706 10.9386 22.7115C9.31216 21.4667 7.65163 20.2655 6.0459 18.9941C6.48829 18.3642 6.93845 17.74 7.39639 17.1213Z" fill="#FFE9A9"/>
<path d="M23.3758 10.24C23.8638 10.4541 24.7122 11.2163 25.1867 11.5623L30.1979 15.1902C28.4442 17.4042 26.8955 19.7787 25.2065 22.0444L25.1493 22.0633C24.9347 21.9987 19.1417 17.6291 18.4727 17.126C20.054 14.8032 21.8741 12.614 23.3758 10.24Z" fill="#FFC518"/>
<path d="M77.5227 5.11694C77.7346 5.1661 82.014 11.0784 82.5932 11.8582C80.3272 13.4314 78.0859 15.0389 75.8692 16.6808C75.7868 16.7481 75.8367 16.728 75.7136 16.7241C74.8329 15.5558 73.9922 14.3557 73.122 13.1793C72.3517 12.138 71.5467 11.1254 70.8457 10.0345C73.0755 8.4009 75.3416 6.81637 77.5227 5.11694Z" fill="#FFC518"/>
<path d="M70.3719 10.365C70.8384 10.8667 71.2437 11.5224 71.6602 12.0742C72.9026 13.7199 74.0907 15.4032 75.3445 17.0408C73.1035 18.7102 70.8129 20.3224 68.6068 22.0372L65.9954 18.4592C65.2288 17.3913 64.4983 16.2689 63.6167 15.2921C65.934 13.7461 68.0853 11.9565 70.3719 10.365Z" fill="#FFC518"/>
<path d="M63.454 26.5017L67.063 23.7949C67.5498 23.432 68.0256 23.0319 68.5258 22.6899C69.2741 23.9086 70.2063 25.0546 71.0794 26.1864C71.4602 26.6799 71.9418 27.21 72.2409 27.7544C72.7306 28.4007 73.2154 29.0517 73.7138 29.6913C72.5945 30.4811 71.4871 31.2872 70.3916 32.1097C69.8622 32.5018 69.338 32.9365 68.7829 33.2884C68.3849 33.4717 68.0386 33.4298 67.6231 33.3566C67.1011 32.9748 66.7105 32.2187 66.3539 31.6786C65.9271 31.1698 65.5563 30.5607 65.162 30.0213C64.4077 28.9887 63.6126 27.972 62.9502 26.8769L63.454 26.5017Z" fill="#FFC518"/>
<path d="M67.1627 31.3137C67.8515 30.9793 68.5003 30.4709 69.1132 30.0154C70.1457 29.2481 71.1536 28.4436 72.241 27.7544C72.7307 28.4007 73.2156 29.0516 73.714 29.6913C72.5946 30.481 71.4872 31.2872 70.3917 32.1097C69.8623 32.5017 69.3381 32.9364 68.7831 33.2884C68.3851 33.4716 68.0388 33.4297 67.6233 33.3565C67.1012 32.9747 66.7107 32.2186 66.354 31.6785C66.5588 31.4835 66.831 31.3978 67.0906 31.3007L67.1627 31.3137Z" fill="#FFE9A9"/>
<path d="M67.0906 31.3008C67.3986 31.4186 68.5811 32.9166 68.7831 33.2884C68.3851 33.4717 68.0388 33.4298 67.6233 33.3566C67.1012 32.9748 66.7107 32.2187 66.354 31.6786C66.5588 31.4835 66.831 31.3979 67.0906 31.3008Z" fill="#FFC518"/>
<path d="M87.8855 8.66695C88.2994 8.37501 88.6852 8.06398 89.0711 7.73706L91.6257 11.1768C92.1575 11.8805 92.8557 12.6054 93.254 13.3896C93.4021 13.681 93.4417 14.0062 93.4035 14.3287C93.3308 14.9429 92.9859 15.3326 92.5104 15.6889C92.0198 16.0567 91.4968 16.3848 90.9992 16.744C90.0612 17.4208 89.14 18.1238 88.2133 18.8163C87.765 18.1459 87.301 17.4864 86.8215 16.838C85.7348 15.1773 84.4524 13.6652 83.3374 12.0287C84.6857 10.808 86.3828 9.69967 87.8855 8.66695Z" fill="#FFC518"/>
<path d="M87.8853 8.66695C88.2992 8.37501 88.685 8.06398 89.0709 7.73706L91.6255 11.1768C92.1573 11.8805 92.8555 12.6054 93.2538 13.3896C93.4019 13.681 93.4415 14.0062 93.4033 14.3287C93.3306 14.9429 92.9857 15.3326 92.5102 15.6889C92.0196 16.0567 91.4966 16.3848 90.9989 16.744C90.061 17.4208 89.1398 18.1238 88.2131 18.8163C87.7647 18.1459 87.3008 17.4864 86.8213 16.838C88.1175 15.6614 89.917 14.6946 91.1577 13.4823C90.6023 12.5513 89.8577 11.6857 89.228 10.8002C88.7408 10.1151 88.3345 9.37678 87.8853 8.66695Z" fill="#FFE9A9"/>
<path d="M25.2981 22.8184C26.2741 23.5325 27.2282 24.2746 28.2009 24.9927C28.9429 25.5405 29.7636 26.0682 30.4284 26.7062L30.8991 27.0283C30.0606 28.2125 29.1945 29.3786 28.3636 30.5675C27.849 31.3037 27.2508 32.3593 26.6269 32.9814C26.4039 33.2037 26.0799 33.3479 25.7728 33.4037C25.3259 33.4849 25.0813 33.336 24.7307 33.0842C23.976 32.5422 23.2394 31.9722 22.491 31.4214C21.7578 30.8816 20.9851 30.3484 20.2998 29.7509C20.7706 29.0566 21.2467 28.3819 21.7879 27.7395C22.966 26.1097 24.1558 24.4727 25.2981 22.8184Z" fill="#FFC518"/>
<path d="M30.4284 26.7063L30.8991 27.0284C30.0606 28.2126 29.1945 29.3787 28.3636 30.5676C27.849 31.3039 27.2508 32.3594 26.6269 32.9815C26.4039 33.2038 26.0799 33.348 25.7728 33.4038C25.3259 33.485 25.0813 33.3361 24.7307 33.0843C23.976 32.5424 23.2394 31.9724 22.491 31.4215C21.7578 30.8817 20.9851 30.3485 20.2998 29.751C20.7706 29.0567 21.2467 28.382 21.7879 27.7396C23.4394 28.9457 25.1046 30.4718 26.8608 31.489C27.9664 30.113 29.1465 27.8545 30.4284 26.7063Z" fill="#FFE9A9"/>
<path d="M30.5815 15.4697C31.5166 16.2578 32.5946 16.9239 33.591 17.6345C34.0599 17.9689 34.5701 18.3016 34.9645 18.724C35.1416 18.9136 35.2522 19.0995 35.3193 19.3491C35.4865 20.03 35.4665 20.4828 35.1019 21.0909C34.4352 22.203 33.5912 23.2435 32.842 24.3035C32.3072 25.0601 31.8185 25.9043 31.2454 26.6276L30.6954 26.1751C28.9866 24.9299 27.2843 23.6759 25.5884 22.4133C26.0608 21.6725 26.6232 20.9672 27.1364 20.2528L30.5815 15.4697Z" fill="#FFC518"/>
<path d="M35.3192 19.3491C35.4864 20.03 35.4664 20.4828 35.1018 21.0909C34.4351 22.203 33.5911 23.2435 32.8419 24.3036C32.3071 25.0601 31.8184 25.9044 31.2453 26.6277L30.6953 26.1751C30.8873 25.6511 31.4173 25.0255 31.7449 24.5678C32.4071 23.6426 33.0833 22.7262 33.7599 21.8114C34.1138 21.3329 34.5174 20.855 34.8248 20.346C35.0084 20.042 35.1283 19.7347 35.2838 19.4201L35.3192 19.3491Z" fill="#FFE9A9"/>
<path d="M78.0093 4.76907C78.9516 4.09439 79.8884 3.4123 80.8198 2.72282C81.3218 2.34865 81.8169 1.94322 82.3389 1.59851C82.7647 1.31743 83.1566 1.15196 83.6733 1.26737C84.2302 1.39182 84.5531 1.7119 84.8486 2.17464C86.1415 3.9316 87.4566 5.67174 88.7939 7.39506C88.5267 7.55902 88.2538 7.71756 87.9922 7.89016C86.3171 9.10153 84.5862 10.2757 82.9749 11.5703C82.1531 10.4478 81.375 9.29766 80.538 8.1834C79.6966 7.06362 78.7616 5.94977 78.0093 4.76907Z" fill="#FFC518"/>
<path d="M4.94925 7.71777C5.36025 8.06929 5.78195 8.40743 6.21435 8.7322C7.68045 9.76201 9.08071 10.8841 10.5443 11.9122L7.00511 16.8305C6.56309 17.4751 6.08256 18.1143 5.5945 18.7247C4.81342 18.132 4.03043 17.5488 3.23518 16.9749C2.50461 16.4475 1.57896 15.9103 1.00178 15.2126C0.953343 15.155 0.909057 15.0943 0.86892 15.0306C0.828782 14.9669 0.793172 14.9007 0.762088 14.8321C0.731005 14.7636 0.704737 14.6932 0.683284 14.621C0.661825 14.5489 0.645382 14.4755 0.633955 14.4011C0.620793 14.3183 0.613632 14.235 0.612472 14.1513C0.611313 14.0675 0.616172 13.9841 0.627049 13.901C0.637919 13.8179 0.654698 13.736 0.677383 13.6553C0.700063 13.5746 0.728411 13.496 0.76243 13.4194C1.06878 12.733 1.66692 12.0741 2.11856 11.4737C3.06147 10.2202 4.02707 8.98694 4.94925 7.71777Z" fill="#FFC518"/>
<path d="M4.94925 7.71777C5.36025 8.06929 5.78195 8.40743 6.21435 8.7322C5.49818 9.77156 4.72417 10.7777 3.98478 11.8012C3.68926 12.2103 3.31371 12.6461 3.09264 13.0994C3.02269 13.2429 2.98285 13.4093 3.0107 13.5686C3.04459 13.7625 3.17305 13.9297 3.30931 14.0652C3.64971 14.4039 4.07789 14.683 4.46438 14.9682C5.30815 15.5909 6.17424 16.1915 7.00511 16.8305C6.56309 17.4751 6.08256 18.1143 5.5945 18.7247C4.81342 18.132 4.03043 17.5488 3.23518 16.9749C2.50461 16.4475 1.57896 15.9103 1.00178 15.2126C0.953343 15.155 0.909057 15.0943 0.86892 15.0306C0.828782 14.9669 0.793172 14.9007 0.762088 14.8321C0.731005 14.7636 0.704737 14.6932 0.683284 14.621C0.661825 14.5489 0.645382 14.4755 0.633955 14.4011C0.620793 14.3183 0.613632 14.235 0.612472 14.1513C0.611313 14.0675 0.616172 13.9841 0.627049 13.901C0.637919 13.8179 0.654698 13.736 0.677383 13.6553C0.700063 13.5746 0.728411 13.496 0.76243 13.4194C1.06878 12.733 1.66692 12.0741 2.11856 11.4737C3.06147 10.2202 4.02707 8.98694 4.94925 7.71777Z" fill="#FFE9A9"/>
<path d="M5.21436 7.38388C5.69822 6.61705 6.32209 5.89818 6.85912 5.16422C7.54713 4.22408 8.70883 2.44071 9.48391 1.6955C9.68547 1.50178 9.95408 1.38094 10.224 1.31711C10.6638 1.21316 11.0836 1.27499 11.4646 1.51344C12.8662 2.61493 14.3285 3.66092 15.7843 4.68983C15.1194 5.59689 14.4265 6.48003 13.7825 7.40268C12.8316 8.76514 11.914 10.1961 10.8458 11.47C10.0257 10.836 9.19432 10.217 8.35176 9.6131C7.7307 9.17278 7.07425 8.7583 6.4762 8.28874C6.04323 8.02123 5.60613 7.70849 5.21436 7.38388Z" fill="#FFC518"/>
<path d="M5.21436 7.38388C5.69822 6.61705 6.32209 5.89818 6.85912 5.16422C7.54713 4.22408 8.70883 2.44071 9.48391 1.6955C9.68547 1.50178 9.95408 1.38094 10.224 1.31711C10.6638 1.21316 11.0836 1.27499 11.4646 1.51344L7.93426 6.32301C7.62474 6.74794 6.79488 8.04978 6.4762 8.28874C6.04323 8.02123 5.60613 7.70849 5.21436 7.38388Z" fill="#FFE9A9"/>
<path d="M58.525 20.3313C58.4106 20.0074 58.4864 19.6282 58.6245 19.3214C58.7199 19.1092 58.851 18.9414 59.018 18.7808C59.4955 18.3218 60.0771 17.9424 60.61 17.5488L63.2125 15.6372C63.8884 16.4225 64.4915 17.289 65.1095 18.1211C66.1579 19.5114 67.1823 20.9191 68.1827 22.3443C66.4534 23.57 64.7149 24.804 63.0649 26.1355L62.6885 26.4434C61.7536 25.1473 60.8176 23.8566 59.9073 22.5428C59.4391 21.8672 58.803 21.1039 58.525 20.3313Z" fill="#FFC518"/>
<path d="M45.4128 20.2171C45.4014 20.2041 45.3897 20.1914 45.3783 20.1783C45.3565 20.1528 45.3353 20.1268 45.3147 20.1002C45.2941 20.0736 45.2742 20.0466 45.2549 20.0191C45.2357 19.9916 45.2171 19.9636 45.1993 19.9351C45.1814 19.9067 45.1642 19.8778 45.1478 19.8486C45.1313 19.8192 45.1156 19.7895 45.1007 19.7595C45.0857 19.7294 45.0714 19.699 45.058 19.6682C45.0445 19.6374 45.0318 19.6064 45.0199 19.575C45.0079 19.5436 44.9968 19.5119 44.9864 19.4799C44.976 19.448 44.9664 19.4159 44.9576 19.3834C44.9488 19.351 44.9408 19.3184 44.9336 19.2856C44.9264 19.2528 44.9201 19.2198 44.9145 19.1867C44.9089 19.1536 44.9042 19.1203 44.9002 19.087C44.8963 19.0536 44.8933 19.0201 44.891 18.9866C44.8887 18.9531 44.8872 18.9196 44.8866 18.886C44.886 18.8524 44.8862 18.8188 44.8873 18.7853C44.8883 18.7517 44.8901 18.7181 44.8928 18.6846C44.8954 18.6521 44.8989 18.6197 44.9031 18.5874C44.9074 18.5551 44.9124 18.5229 44.9183 18.4908C44.9242 18.4588 44.9309 18.4269 44.9384 18.3951C44.9459 18.3634 44.9542 18.3319 44.9634 18.3006C44.9724 18.2693 44.9823 18.2382 44.9929 18.2074C45.0036 18.1766 45.015 18.1461 45.0272 18.1159C45.0394 18.0856 45.0524 18.0557 45.0661 18.0261C45.0798 17.9965 45.0943 17.9673 45.1094 17.9385C45.1246 17.9096 45.1406 17.8812 45.1572 17.8532C45.1738 17.8251 45.1911 17.7975 45.2092 17.7703C45.2272 17.7431 45.2459 17.7164 45.2652 17.6902C45.2846 17.664 45.3046 17.6383 45.3253 17.6131C45.346 17.5878 45.3673 17.5631 45.3892 17.539C45.4111 17.5149 45.4336 17.4913 45.4567 17.4684C45.4798 17.4453 45.5035 17.4229 45.5277 17.4011C45.5519 17.3793 45.5767 17.3581 45.602 17.3376C46.1331 16.9076 46.7005 16.8962 47.3452 16.9543C47.9644 17.1893 48.4498 17.5399 48.7322 18.1628C48.9617 18.6692 48.9644 19.2253 48.7512 19.7376C48.5463 20.2299 48.165 20.6442 47.6635 20.8394C47.1739 21.0299 46.6269 21.0217 46.1527 20.7912C45.8654 20.6516 45.6354 20.4416 45.4128 20.2171Z" fill="#FF8528"/>
<path d="M45.4128 20.2171C45.4014 20.2041 45.3897 20.1914 45.3783 20.1783C45.3565 20.1528 45.3353 20.1268 45.3147 20.1002C45.2941 20.0736 45.2742 20.0466 45.2549 20.0191C45.2357 19.9916 45.2171 19.9636 45.1993 19.9351C45.1814 19.9067 45.1642 19.8778 45.1478 19.8486C45.1313 19.8192 45.1156 19.7895 45.1007 19.7595C45.0857 19.7294 45.0714 19.699 45.058 19.6682C45.0445 19.6374 45.0318 19.6064 45.0199 19.575C45.0079 19.5436 44.9968 19.5119 44.9864 19.4799C44.976 19.448 44.9664 19.4158 44.9576 19.3834C44.9488 19.351 44.9408 19.3184 44.9336 19.2856C44.9264 19.2528 44.9201 19.2198 44.9145 19.1867C44.9089 19.1536 44.9042 19.1203 44.9002 19.087C44.8963 19.0536 44.8933 19.0201 44.891 18.9866C44.8887 18.9531 44.8872 18.9196 44.8866 18.886C44.886 18.8524 44.8862 18.8188 44.8873 18.7853C44.8883 18.7517 44.8901 18.7181 44.8928 18.6846C44.8954 18.6521 44.8989 18.6197 44.9031 18.5874C44.9074 18.5551 44.9124 18.5229 44.9183 18.4908C44.9242 18.4588 44.9309 18.4269 44.9384 18.3951C44.9459 18.3634 44.9542 18.3319 44.9634 18.3006C44.9724 18.2693 44.9823 18.2382 44.9929 18.2074C45.0036 18.1766 45.015 18.1461 45.0272 18.1159C45.0394 18.0856 45.0524 18.0557 45.0661 18.0261C45.0798 17.9965 45.0943 17.9673 45.1094 17.9385C45.1246 17.9096 45.1406 17.8812 45.1572 17.8532C45.1738 17.8251 45.1911 17.7975 45.2092 17.7703C45.2272 17.7431 45.2459 17.7164 45.2652 17.6902C45.2846 17.664 45.3046 17.6383 45.3253 17.6131C45.346 17.5878 45.3673 17.5631 45.3892 17.539C45.4111 17.5149 45.4336 17.4913 45.4567 17.4684C45.4798 17.4453 45.5035 17.4229 45.5277 17.4011C45.5519 17.3793 45.5767 17.3581 45.602 17.3376C46.1331 16.9076 46.7005 16.8962 47.3452 16.9543C47.3648 18.0084 47.0266 18.7708 46.2973 19.53C46.044 19.7937 45.7391 20.0506 45.4128 20.2171Z" fill="#FFC518"/>
</svg>
