<svg width="25" height="24" viewBox="0 0 25 24" fill="currentColor" xmlns="http://www.w3.org/2000/svg">
<path fill-rule="evenodd" clip-rule="evenodd" d="M12.5 2L3.5 9V20C3.5 20.5304 3.71071 21.0391 4.08579 21.4142C4.46086 21.7893 4.96957 22 5.5 22H9.5V12H15.5V22H19.5C20.0304 22 20.5391 21.7893 20.9142 21.4142C21.2893 21.0391 21.5 20.5304 21.5 20V9L12.5 2Z" fill="currentColor"/>
<path d="M3.5 9L2.88606 8.21065C2.64247 8.4001 2.5 8.69141 2.5 9H3.5ZM12.5 2L13.1139 1.21065C12.7528 0.929784 12.2472 0.929784 11.8861 1.21065L12.5 2ZM4.08579 21.4142L4.79289 20.7071H4.79289L4.08579 21.4142ZM9.5 22V23C10.0523 23 10.5 22.5523 10.5 22H9.5ZM9.5 12V11C8.94772 11 8.5 11.4477 8.5 12H9.5ZM15.5 12H16.5C16.5 11.4477 16.0523 11 15.5 11V12ZM15.5 22H14.5C14.5 22.5523 14.9477 23 15.5 23V22ZM21.5 9H22.5C22.5 8.69141 22.3575 8.4001 22.1139 8.21065L21.5 9ZM4.11394 9.78935L13.1139 2.78935L11.8861 1.21065L2.88606 8.21065L4.11394 9.78935ZM4.5 20V9H2.5V20H4.5ZM4.79289 20.7071C4.60536 20.5196 4.5 20.2652 4.5 20H2.5C2.5 20.7957 2.81607 21.5587 3.37868 22.1213L4.79289 20.7071ZM5.5 21C5.23478 21 4.98043 20.8946 4.79289 20.7071L3.37868 22.1213C3.94129 22.6839 4.70435 23 5.5 23V21ZM9.5 21H5.5V23H9.5V21ZM10.5 22V12H8.5V22H10.5ZM9.5 13H15.5V11H9.5V13ZM14.5 12V22H16.5V12H14.5ZM19.5 21H15.5V23H19.5V21ZM20.2071 20.7071C20.0196 20.8946 19.7652 21 19.5 21V23C20.2957 23 21.0587 22.6839 21.6213 22.1213L20.2071 20.7071ZM20.5 20C20.5 20.2652 20.3946 20.5196 20.2071 20.7071L21.6213 22.1213C22.1839 21.5587 22.5 20.7957 22.5 20H20.5ZM20.5 9V20H22.5V9H20.5ZM11.8861 2.78935L20.8861 9.78935L22.1139 8.21065L13.1139 1.21065L11.8861 2.78935Z" fill="currentColor"/>
</svg>
