<svg width="60" height="71" viewBox="0 0 60 71" fill="none" xmlns="http://www.w3.org/2000/svg">
<path d="M0 16C0 7.16344 7.16344 0 16 0H44C52.8366 0 60 7.16344 60 16V65.8268C60 67.6548 57.7498 68.5248 56.5201 67.1721L54.7611 65.2372C51.7288 61.9016 47.43 60 42.9221 60H30H16C7.16344 60 0 52.8366 0 44V16Z" fill="#FF6853"/>
<path d="M18.3039 35V25.2H22.8679C24.0066 25.2 24.8933 25.4193 25.5279 25.858C26.1626 26.2967 26.4799 26.922 26.4799 27.734C26.4799 28.5367 26.1813 29.162 25.5839 29.61C24.9866 30.0487 24.1933 30.268 23.2039 30.268L23.4699 29.68C24.5713 29.68 25.4253 29.8993 26.0319 30.338C26.6386 30.7767 26.9419 31.4113 26.9419 32.242C26.9419 33.1007 26.6153 33.7773 25.9619 34.272C25.3179 34.7573 24.3753 35 23.1339 35H18.3039ZM20.5579 33.32H23.0499C23.5726 33.32 23.9693 33.2173 24.2399 33.012C24.5106 32.8067 24.6459 32.4893 24.6459 32.06C24.6459 31.6493 24.5106 31.346 24.2399 31.15C23.9693 30.9447 23.5726 30.842 23.0499 30.842H20.5579V33.32ZM20.5579 29.26H22.6719C23.1666 29.26 23.5399 29.162 23.7919 28.966C24.0439 28.7607 24.1699 28.462 24.1699 28.07C24.1699 27.678 24.0439 27.384 23.7919 27.188C23.5399 26.9827 23.1666 26.88 22.6719 26.88H20.5579V29.26ZM33.4816 28.42C34.6669 28.42 35.5816 28.686 36.2256 29.218C36.8696 29.7407 37.1916 30.5293 37.1916 31.584C37.1916 32.704 36.8322 33.5533 36.1136 34.132C35.4042 34.7107 34.4196 35 33.1596 35H28.7356V25.2H30.9896V28.42H33.4816ZM33.0336 33.32C33.6122 33.32 34.0696 33.1753 34.4056 32.886C34.7416 32.5967 34.9096 32.1767 34.9096 31.626C34.9096 31.0847 34.7416 30.6973 34.4056 30.464C34.0789 30.2213 33.6216 30.1 33.0336 30.1H30.9896V33.32H33.0336ZM38.4376 35V25.2H40.6916V35H38.4376Z" fill="white"/>
</svg>
