<svg width="0" height="0"><symbol xmlns="http://www.w3.org/2000/svg" xml:space="preserve" id="admin" viewBox="0 0 256 256"><path d="M104.8 10.9c-7.5 1.9-14.3 5.9-19.5 11.4-8.2 8.6-12 18.5-11.4 29.7.3 6 1.2 9.3 3.8 14.9 8.3 17.5 28.5 27.1 46.5 22 14.5-4.1 25.6-16 29.1-30.9 1.1-4.7.7-14.3-.8-18.9-4.2-13.2-14.4-23.4-27.6-27.6-4.8-1.7-15-2-20.1-.6zm17.7 7.5c14.4 3.7 23.9 16.1 23.9 31.4 0 9.5-2.9 16.9-9.2 23.2-6.7 6.8-15.5 10.1-25.3 9.5-18.5-1-31.5-15.8-30.6-34.6.7-14.3 10.6-26.4 24.2-29.7 4.4-1 12.6-.9 17 .2zm-56.9 81c-8.5 2.3-14.6 6-20.7 12.3-5.5 5.8-9.4 12.4-11.9 20.3-2.6 8.2-2.7 8.7-2.7 46.9v35.3l1.1 1 1.1 1h36.4c33.9 0 36.5 0 37.4-.8 1.6-1.4 1.7-3.5.4-5.1l-1.2-1.4-18.9-.1-18.9-.1V181c0-29.9 0-29.5-2.6-30.7-1.5-.8-3.8-.1-4.5 1.4-.3.5-.5 11.9-.5 28.9v28.1H37.8v-32.6c0-31 0-32.9.9-37.3 3.3-16 12.9-27.3 27-31.6l3.4-1 42.5-.2c45.3-.2 46.6-.1 52.8 2.1 8.5 3.1 15.7 9.7 20.4 18.9 1.3 2.6 2.3 3.4 4.3 3.4 1.7 0 3.5-2 3.5-3.7 0-1.5-3.5-7.6-6.7-11.8-5.4-7-14.2-12.8-23.3-15.3l-3.8-1.1h-44.6l-44.6-.1-4 1z"/><path d="M158.1 135.3c-.5.3-1.9 3.4-3.2 6.7-1.8 4.9-2.4 6-3.1 6-.5 0-3.6-1.2-6.9-2.6-4.3-1.8-6.3-2.4-7.1-2.2-1.5.3-16.2 16.5-16.7 18.2-.2.9.5 2.8 3.4 8.2 2 3.9 3.6 7.1 3.5 7.2-.1 0-3.3 1.9-7.2 4.2-4.5 2.6-7.3 4.5-7.7 5.2-.5 1-.3 2.6 1.3 12.1 1 6 2.1 11.3 2.4 11.8.8 1.4 1.7 1.7 9.3 3 3.9.7 7.1 1.3 7.2 1.4s-.3 3.4-.8 7.2c-1.1 7.8-1.2 9.7-.5 11 .7 1.2 19.9 11.3 21.6 11.3 1 0 2.6-1.2 7.2-5.3l5.8-5.2 6 6.2c5.2 5.5 6.1 6.2 7.5 6.2.9 0 5.8-1.9 11.8-4.6 7.7-3.4 10.3-4.8 10.7-5.7.3-.8.3-3.3 0-8.5-.3-4.5-.4-7.5-.1-7.7.2-.1 4-.6 8.2-1 4.3-.4 8.2-1 8.6-1.2.5-.3 1.1-1.1 1.4-1.8.9-2.3 5.3-20.4 5.3-21.8 0-1.7-1.5-3-8.5-7.6-2.5-1.7-4.6-3-4.7-3.1-.1-.1.8-1.8 2-3.7 1.2-1.9 3.2-5.1 4.4-7.1 1.4-2.3 2.2-4.1 2.1-5 0-1-1.6-3.4-6.2-9.3-7.6-9.7-8.4-10.5-10-10.5-.7 0-4.1.9-7.6 2.1-3.5 1.2-6.7 2.1-7 2-.4-.1-1.8-3.4-3.4-7.7-1.7-4.7-3.1-7.9-3.8-8.4-.9-.7-2.3-.8-12.7-.8-9.3.1-11.9.3-12.5.8zm22.8 13.8c1.3 3.9 2.7 7.5 3.1 8.1.4.6 1.6 1.5 2.7 2.1l2 .9 7.3-2.3 7.4-2.4 4.5 5.8c2.5 3.2 4.5 6 4.5 6.4 0 .3-1.7 3.2-3.7 6.5s-3.9 6.4-4.2 6.9c-.5 1-.3 4.1.4 5.4.2.4 3.2 2.6 6.6 4.9 3.4 2.2 6.1 4.2 6.1 4.3 0 .7-3.5 14.2-3.7 14.5-.1.2-4 .7-8.5 1.2l-8.2.9-1.6 1.8-1.6 1.8.3 5.2c.1 2.8.4 6.4.5 7.8l.3 2.6-7 3.2-7 3.1-5.9-6.1-5.9-6.1h-5.2l-5.6 5c-3 2.7-5.8 5-6 4.9-1.2 0-13.3-7-13.2-7.6 0-.4.6-4.1 1.1-8.3l1-7.6-1.3-1.9c-.7-1-1.7-2.1-2.3-2.3-.6-.2-3.9-.9-7.4-1.5-3.5-.6-6.6-1.3-6.9-1.6-.5-.4-2.6-11.7-2.7-14.1 0-.6 2-2 7-5 6.9-4.1 7.1-4.2 7.9-6.5l.9-2.4-3.6-7-3.6-7 3.2-3.6c1.7-1.9 4.1-4.5 5.1-5.7l1.9-2.1 7.1 2.9c7.3 3 8.8 3.4 10.1 2.3 1-.8 1.5-1.7 3.5-7.4 1-2.7 1.9-5.4 2.2-6 .4-1 .6-1 8.1-1h7.7l2.6 7z"/><path d="M165.7 164.3c-5.7.9-10.9 3.8-15.4 8.6-3.4 3.6-5.5 7.7-6.5 12.4-.8 4.1-.8 5.8 0 9.8.9 4.6 3.3 8.9 6.7 12.5 5.3 5.7 11.5 8.5 18.9 8.6 7.4 0 12.9-2.4 18.4-7.8 10.4-10.4 10.5-26 0-36.4-6.2-6-14.3-8.9-22.1-7.7zm10.2 8.4c7.3 2.6 11.4 8.2 11.9 16.2.2 3.3 0 4.7-.8 7.3-1.8 5.7-6.2 10.2-11.8 11.8-3.9 1.1-10.4.8-13.9-.8-9.2-4.3-13.1-15.3-8.9-25.2 1.3-3 5.1-6.9 8.2-8.4 4.6-2.1 10.7-2.5 15.3-.9z"/></symbol><symbol xmlns="http://www.w3.org/2000/svg" id="arrow-right" fill="none" viewBox="0 0 24 24"><path stroke="currentColor" stroke-linecap="round" stroke-linejoin="round" stroke-width="2" d="M19 12H5m7-7-7 7 7 7"/></symbol><symbol xmlns="http://www.w3.org/2000/svg" id="calendar" fill="none" viewBox="0 0 24 24"><path stroke="currentColor" stroke-linecap="round" stroke-linejoin="round" stroke-width="2" d="M16 2v4M8 2v4"/><path fill="currentColor" d="M19 4H5a2 2 0 0 0-2 2v4h18V6a2 2 0 0 0-2-2Z"/><path stroke="currentColor" stroke-linecap="round" stroke-linejoin="round" stroke-width="2" d="M3 10v10a2 2 0 0 0 2 2h14a2 2 0 0 0 2-2V10M3 10V6a2 2 0 0 1 2-2h14a2 2 0 0 1 2 2v4M3 10h18"/></symbol><symbol xmlns="http://www.w3.org/2000/svg" id="check" fill="none" viewBox="0 0 24 24"><path stroke="currentColor" stroke-linecap="round" stroke-linejoin="round" stroke-width="2" d="M22 5 8.25 18 2 12.09"/></symbol><symbol xmlns="http://www.w3.org/2000/svg" id="edit" viewBox="0 0 24 24"><g id="_01_align_center"><path d="M5 19h4.414L23.057 5.357a3.125 3.125 0 0 0 0-4.414 3.194 3.194 0 0 0-4.414 0L5 14.586Zm2-3.586L20.057 2.357a1.148 1.148 0 0 1 1.586 0 1.123 1.123 0 0 1 0 1.586L8.586 17H7Z"/><path d="M23.621 7.622 22 9.243V16h-6v6H2V3a1 1 0 0 1 1-1h11.758L16.379.379A5.013 5.013 0 0 1 16.84 0H3a3 3 0 0 0-3 3v21h18.414L24 18.414V7.161a5.15 5.15 0 0 1-.379.461ZM18 21.586V18h3.586Z"/></g></symbol><symbol xmlns="http://www.w3.org/2000/svg" id="filter" fill="none" viewBox="0 0 40 24"><path stroke="currentColor" stroke-linecap="round" stroke-linejoin="round" stroke-width="2" d="M12 21v-7m0-4V3m8 18v-9m0-4V3m8 18v-5m0-4V3M9 14h6m2-6h6m2 8h6"/></symbol><symbol xmlns="http://www.w3.org/2000/svg" id="heart" fill="none" viewBox="0 0 24 21"><path fill="currentColor" fill-opacity=".5" stroke="currentColor" stroke-linecap="round" stroke-linejoin="round" stroke-width="2" d="M20.84 2.61a5.5 5.5 0 0 0-7.78 0L12 3.67l-1.06-1.06a5.501 5.501 0 0 0-7.78 7.78l1.06 1.06L12 19.23l7.78-7.78 1.06-1.06a5.5 5.5 0 0 0 0-7.78Z"/></symbol><symbol xmlns="http://www.w3.org/2000/svg" id="home" fill="currentColor" viewBox="0 0 25 24"><path fill-rule="evenodd" d="m12.5 2-9 7v11a2 2 0 0 0 2 2h4V12h6v10h4a2 2 0 0 0 2-2V9l-9-7Z" clip-rule="evenodd"/><path d="m3.5 9-.614-.79A1 1 0 0 0 2.5 9h1Zm9-7 .614-.79a1 1 0 0 0-1.228 0L12.5 2ZM4.086 21.414l.707-.707-.707.707ZM9.5 22v1a1 1 0 0 0 1-1h-1Zm0-10v-1a1 1 0 0 0-1 1h1Zm6 0h1a1 1 0 0 0-1-1v1Zm0 10h-1a1 1 0 0 0 1 1v-1Zm6-13h1a1 1 0 0 0-.386-.79L21.5 9Zm-17.386.79 9-7-1.228-1.58-9 7 1.228 1.58ZM4.5 20V9h-2v11h2Zm.293.707A1 1 0 0 1 4.5 20h-2a3 3 0 0 0 .879 2.121l1.414-1.414ZM5.5 21a1 1 0 0 1-.707-.293l-1.414 1.414A3 3 0 0 0 5.5 23v-2Zm4 0h-4v2h4v-2Zm1 1V12h-2v10h2Zm-1-9h6v-2h-6v2Zm5-1v10h2V12h-2Zm5 9h-4v2h4v-2Zm.707-.293A1 1 0 0 1 19.5 21v2a3 3 0 0 0 2.121-.879l-1.414-1.414ZM20.5 20a1 1 0 0 1-.293.707l1.414 1.414A3 3 0 0 0 22.5 20h-2Zm0-11v11h2V9h-2Zm-8.614-6.21 9 7 1.228-1.58-9-7-1.228 1.58Z"/></symbol><symbol xmlns="http://www.w3.org/2000/svg" id="plus" fill="none" viewBox="0 0 24 24"><path fill="currentColor" fill-rule="evenodd" d="M13 1a1 1 0 1 0-2 0v9H2a1 1 0 1 0 0 2h9v9a1 1 0 1 0 2 0v-9h9a1 1 0 1 0 0-2h-9V1Z" clip-rule="evenodd"/></symbol><symbol xmlns="http://www.w3.org/2000/svg" id="search" fill="none" viewBox="0 0 24 24"><path fill="currentColor" d="M11 19a8 8 0 1 0 0-16 8 8 0 0 0 0 16Z"/><path stroke="currentColor" stroke-linecap="round" stroke-linejoin="round" stroke-width="2" d="m21 21-6-6"/></symbol><symbol xmlns="http://www.w3.org/2000/svg" id="thumbs-up" fill="none" viewBox="0 0 24 24"><ellipse cx="8.5" cy="6.5" fill="currentColor" stroke="currentColor" rx="2.5" ry="3.5"/><ellipse cx="15.5" cy="6.5" fill="currentColor" stroke="currentColor" rx="2.5" ry="3.5"/><ellipse cx="20.576" cy="11.842" fill="currentColor" stroke="currentColor" rx="1.913" ry="2.679" transform="rotate(15.944 20.576 11.842)"/><ellipse cx="1.913" cy="2.679" fill="currentColor" stroke="currentColor" rx="1.913" ry="2.679" transform="scale(-1 1) rotate(15.944 -33.548 -12.336)"/><path fill="currentColor" stroke="currentColor" d="M7.538 20.22c-1.15-.639-1.327-1.934-.948-3.4C7.558 13.97 9.617 12 12 12c2.556 0 4.739 2.264 5.603 5.454.269 1.063-.122 2.235-1.078 2.765C15.375 20.858 13.5 20 12 20c-1 0-3.311.858-4.462.22Z"/></symbol><symbol xmlns="http://www.w3.org/2000/svg" id="user" fill="none" viewBox="0 0 25 24"><path fill="currentColor" d="M20.5 21v-2a4 4 0 0 0-4-4h-8a4 4 0 0 0-4 4v2"/><path stroke="currentColor" stroke-linecap="round" stroke-linejoin="round" stroke-width="2" d="M20.5 21v-2a4 4 0 0 0-4-4h-8a4 4 0 0 0-4 4v2h16Z"/><path fill="currentColor" stroke="currentColor" stroke-linecap="round" stroke-linejoin="round" stroke-width="2" d="M12.5 11a4 4 0 1 0 0-8 4 4 0 0 0 0 8Z"/></symbol><symbol xmlns="http://www.w3.org/2000/svg" id="users" fill="currentColor" viewBox="0 0 12 13"><path stroke="currentColor" stroke-linecap="round" stroke-linejoin="round" d="M8.5 11v-1a2 2 0 0 0-2-2h-4a2 2 0 0 0-2 2v1h8Zm-4-5a2 2 0 1 0 0-4 2 2 0 0 0 0 4Zm7 5v-1A2 2 0 0 0 10 8.065m-2-6A2 2 0 0 1 8 5.94"/></symbol><symbol xmlns="http://www.w3.org/2000/svg" id="you" fill="none" viewBox="0 0 60 71"><path fill="currentColor" d="M0 16C0 7.163 7.163 0 16 0h28c8.837 0 16 7.163 16 16v49.827c0 1.828-2.25 2.698-3.48 1.345l-1.759-1.935A16 16 0 0 0 42.922 60H16C7.163 60 0 52.837 0 44V16Z"/><path fill="currentColor" d="M18.304 35v-9.8h4.564c1.139 0 2.025.22 2.66.658.635.439.952 1.064.952 1.876 0 .803-.299 1.428-.896 1.876-.597.439-1.39.658-2.38.658l.266-.588c1.101 0 1.955.22 2.562.658.607.439.91 1.073.91 1.904 0 .859-.327 1.535-.98 2.03-.644.485-1.587.728-2.828.728h-4.83Zm2.254-1.68h2.492c.523 0 .92-.103 1.19-.308.27-.205.406-.523.406-.952 0-.41-.135-.714-.406-.91-.27-.205-.667-.308-1.19-.308h-2.492v2.478Zm0-4.06h2.114c.495 0 .868-.098 1.12-.294.252-.205.378-.504.378-.896s-.126-.686-.378-.882c-.252-.205-.625-.308-1.12-.308h-2.114v2.38Zm12.924-.84c1.185 0 2.1.266 2.744.798.644.523.966 1.311.966 2.366 0 1.12-.36 1.97-1.078 2.548-.71.579-1.694.868-2.954.868h-4.424v-9.8h2.254v3.22h2.492Zm-.448 4.9c.578 0 1.036-.145 1.372-.434.336-.29.504-.71.504-1.26 0-.541-.168-.929-.504-1.162-.327-.243-.784-.364-1.372-.364H30.99v3.22h2.044ZM38.438 35v-9.8h2.254V35h-2.254Z"/></symbol></svg>