<svg width="36" height="36" viewBox="0 0 36 36" fill="none"
    xmlns="http://www.w3.org/2000/svg" class="DefaultLogo_logo__w8bQv">
    <mask id="mask0_753_807281" maskUnits="userSpaceOnUse" x="0" y="0" width="36" height="36" style="mask-type: alpha;">
        <path d="M32.2477 3.76143C28.8513 0.37814 23.9678 0 18 0C12.0247 0 7.13377 0.382499 3.7388 3.77493C0.34432 7.16596 0 12.049 0 18.0175C0 23.9869 0.34432 28.8715 3.7402 32.2637C7.13496 35.6566 12.0253 36 18 36C23.9747 36 28.8643 35.6566 32.259 32.2637C35.6547 28.8708 36 23.9869 36 18.0175C36 12.0413 35.651 7.15302 32.2477 3.76143Z" fill="#3D96FE"></path>
    </mask>
    <g mask="url(#mask0_753_807281)">
        <rect width="36" height="36" fill="#30A9FE"></rect>
    </g>
    <path d="M22.5155 28.504C22.8563 28.5972 22.8115 29.0866 22.4592 29.1162C19.3232 29.3783 13.2698 29.106 10.6496 23.683C10.3505 24.9576 10.6038 26.2804 10.9436 27.3031C11.0551 27.6389 10.6017 27.8672 10.3849 27.5857C8.50993 25.1522 5.73653 20.1285 9.02167 14.5181C7.69803 14.9164 6.62452 15.7415 5.88662 16.4613C5.63648 16.7049 5.22375 16.4377 5.36446 16.1203C6.51613 13.523 9.54487 8.76345 16.2913 8.70816C15.4877 7.97206 14.5445 7.53695 13.7034 7.27896C13.3543 7.17249 13.422 6.67083 13.7878 6.66571C16.6394 6.62374 21.4993 7.3537 25.1878 12.0631C25.4828 10.8069 25.241 9.50364 24.9075 8.486C24.797 8.14815 25.2524 7.91985 25.4671 8.20446C27.2713 10.6124 29.8258 15.4907 26.5782 21.0355C28.078 20.5851 29.3339 19.6473 30.1333 18.9286C30.3823 18.7044 30.768 18.9624 30.646 19.2716C29.6559 21.7696 26.698 26.9991 19.3086 26.8455C20.2789 27.7331 21.5066 28.2286 22.5155 28.504ZM17.8755 14.8457C16.1495 14.8457 14.7488 16.2217 14.7488 17.9171C14.7488 19.6125 16.1495 20.9884 17.8755 20.9884C19.6014 20.9884 21.0022 19.6125 21.0022 17.9171C21.0022 16.2217 19.6014 14.8457 17.8755 14.8457Z" fill="white"></path>
</svg>