<svg width="46" height="54" viewBox="0 0 46 54" fill="none" xmlns="http://www.w3.org/2000/svg">
<path d="M16.76 12.4399V32.9999C16.76 36.0399 16.0533 38.2133 14.64 39.5199C13.2266 40.7999 11.0666 41.4399 8.15998 41.4399C6.63998 41.4399 5.38664 41.2399 4.39998 40.8399C3.43998 40.4133 2.66664 39.8266 2.07998 39.0799C1.51998 38.3066 1.13331 37.4133 0.919976 36.3999C0.706642 35.3866 0.599976 34.3199 0.599976 33.1999V31.9599H5.87998V32.8399C5.87998 34.3599 6.03998 35.4933 6.35998 36.2399C6.70664 36.9599 7.39998 37.3199 8.43998 37.3199C9.47998 37.3199 10.16 36.9599 10.48 36.2399C10.8266 35.4933 11 34.3599 11 32.8399V12.4399H16.76Z" fill="#28A6F7"/>
<path d="M25.9556 34.7599V40.9999H20.6756V34.7599H25.9556Z" fill="#28A6F7"/>
<path d="M34.005 33.9599V34.6799C34.005 35.6133 34.245 36.3733 34.725 36.9599C35.2316 37.5199 35.9516 37.7999 36.885 37.7999C37.7383 37.7999 38.4183 37.5866 38.925 37.1599C39.4316 36.7333 39.685 36.0933 39.685 35.2399C39.685 34.5466 39.485 34.0266 39.085 33.6799C38.685 33.3066 38.2183 33.0133 37.685 32.7999L33.805 31.3999C32.285 30.8666 31.1383 30.1199 30.365 29.1599C29.5916 28.1733 29.205 26.9199 29.205 25.3999C29.205 24.5199 29.3516 23.6933 29.645 22.9199C29.9383 22.1199 30.405 21.4266 31.045 20.8399C31.685 20.2533 32.4983 19.7866 33.485 19.4399C34.4983 19.0933 35.7116 18.9199 37.125 18.9199C39.6316 18.9199 41.485 19.4533 42.685 20.5199C43.885 21.5866 44.485 23.0933 44.485 25.0399V25.9199H39.525C39.525 24.7999 39.3383 23.9866 38.965 23.4799C38.6183 22.9466 37.9916 22.6799 37.085 22.6799C36.3916 22.6799 35.7783 22.8799 35.245 23.2799C34.7383 23.6533 34.485 24.2266 34.485 24.9999C34.485 25.5333 34.645 26.0133 34.965 26.4399C35.3116 26.8666 35.9516 27.2266 36.885 27.5199L40.205 28.6399C41.9383 29.2266 43.165 29.9999 43.885 30.9599C44.605 31.8933 44.965 33.1733 44.965 34.7999C44.965 35.9466 44.765 36.9466 44.365 37.7999C43.965 38.6266 43.405 39.3199 42.685 39.8799C41.9916 40.4399 41.1516 40.8399 40.165 41.0799C39.205 41.3199 38.1383 41.4399 36.965 41.4399C35.4183 41.4399 34.125 41.2933 33.085 40.9999C32.0716 40.7066 31.2583 40.2666 30.645 39.6799C30.0583 39.0933 29.645 38.3866 29.405 37.5599C29.165 36.7066 29.045 35.7599 29.045 34.7199V33.9599H34.005Z" fill="#ffffff"/>
</svg>
