<svg width="69" height="31" viewBox="0 0 69 31" fill="none"
    xmlns="http://www.w3.org/2000/svg">
    <path d="M16.76 1.44V22C16.76 25.04 16.0533 27.2133 14.64 28.52C13.2266 29.8 11.0666 30.44 8.15998 30.44C6.63998 30.44 5.38664 30.24 4.39998 29.84C3.43998 29.4133 2.66664 28.8267 2.07998 28.08C1.51998 27.3067 1.13331 26.4133 0.919976 25.4C0.706642 24.3867 0.599976 23.32 0.599976 22.2V20.96H5.87998V21.84C5.87998 23.36 6.03998 24.4933 6.35998 25.24C6.70664 25.96 7.39998 26.32 8.43998 26.32C9.47998 26.32 10.16 25.96 10.48 25.24C10.8266 24.4933 11 23.36 11 21.84V1.44H16.76Z" fill="#28A6F7"/>
    <path d="M40.7512 1.44V6.16001H34.5112V30H28.7512V6.16001H22.5112V1.44H40.7512Z" fill="#28A6F7"/>
    <path d="M48.885 23.76V30H43.605V23.76H48.885Z" fill="#28A6F7"/>
    <path d="M56.935 22.96V23.68C56.935 24.6133 57.175 25.3733 57.655 25.96C58.161 26.52 58.881 26.8 59.815 26.8C60.668 26.8 61.348 26.5867 61.855 26.16C62.361 25.7333 62.615 25.0933 62.615 24.24C62.615 23.5467 62.415 23.0267 62.015 22.68C61.615 22.3067 61.148 22.0133 60.615 21.8L56.735 20.4C55.215 19.8667 54.068 19.12 53.295 18.16C52.521 17.1733 52.135 15.92 52.135 14.4C52.135 13.52 52.281 12.6933 52.575 11.92C52.868 11.12 53.335 10.4267 53.975 9.84001C54.615 9.25334 55.428 8.78667 56.415 8.44001C57.428 8.09334 58.641 7.92 60.055 7.92C62.561 7.92 64.415 8.45334 65.615 9.52001C66.815 10.5867 67.415 12.0933 67.415 14.04V14.92H62.455C62.455 13.8 62.268 12.9867 61.895 12.48C61.548 11.9467 60.921 11.68 60.015 11.68C59.321 11.68 58.708 11.88 58.175 12.28C57.668 12.6533 57.415 13.2267 57.415 14C57.415 14.5333 57.575 15.0133 57.895 15.44C58.241 15.8667 58.881 16.2267 59.815 16.52L63.135 17.64C64.868 18.2267 66.095 19 66.815 19.96C67.535 20.8933 67.895 22.1733 67.895 23.8C67.895 24.9467 67.695 25.9467 67.295 26.8C66.895 27.6267 66.335 28.32 65.615 28.88C64.921 29.44 64.081 29.84 63.095 30.08C62.135 30.32 61.068 30.44 59.895 30.44C58.348 30.44 57.055 30.2933 56.015 30C55.001 29.7067 54.188 29.2667 53.575 28.68C52.988 28.0933 52.575 27.3867 52.335 26.56C52.095 25.7067 51.975 24.76 51.975 23.72V22.96H56.935Z" fill="#292929"/>
</svg>
