<svg width="191" height="31" viewBox="0 0 191 31" fill="none" xmlns="http://www.w3.org/2000/svg">
<path d="M16.76 1.44V22C16.76 25.04 16.0533 27.2133 14.64 28.52C13.2266 29.8 11.0666 30.44 8.15998 30.44C6.63998 30.44 5.38664 30.24 4.39998 29.84C3.43998 29.4133 2.66664 28.8267 2.07998 28.08C1.51998 27.3067 1.13331 26.4133 0.919976 25.4C0.706642 24.3867 0.599976 23.32 0.599976 22.2V20.96H5.87998V21.84C5.87998 23.36 6.03998 24.4933 6.35998 25.24C6.70664 25.96 7.39998 26.32 8.43998 26.32C9.47998 26.32 10.16 25.96 10.48 25.24C10.8266 24.4933 11 23.36 11 21.84V1.44H16.76Z" fill="#28A6F7"/>
<path d="M30.7156 16.8C30.6889 15.9733 30.6356 15.2533 30.5556 14.64C30.4756 14 30.3289 13.4667 30.1156 13.04C29.9289 12.5867 29.6489 12.2533 29.2756 12.04C28.9289 11.8 28.4756 11.68 27.9156 11.68C27.3556 11.68 26.8889 11.8133 26.5156 12.08C26.1689 12.32 25.8889 12.6533 25.6756 13.08C25.4623 13.48 25.3023 13.9333 25.1956 14.44C25.1156 14.9467 25.0756 15.4533 25.0756 15.96V16.8H30.7156ZM25.0756 20.08V21.8C25.0756 22.44 25.1156 23.0667 25.1956 23.68C25.3023 24.2667 25.4623 24.8 25.6756 25.28C25.8889 25.7333 26.1689 26.1067 26.5156 26.4C26.8623 26.6667 27.2889 26.8 27.7956 26.8C28.7289 26.8 29.4089 26.4667 29.8356 25.8C30.2623 25.1333 30.5556 24.12 30.7156 22.76H35.6756C35.5689 25.2667 34.9023 27.1733 33.6756 28.48C32.4489 29.7867 30.5156 30.44 27.8756 30.44C25.8756 30.44 24.3156 30.1067 23.1956 29.44C22.0756 28.7733 21.2489 27.8933 20.7156 26.8C20.1823 25.7067 19.8489 24.48 19.7156 23.12C19.6089 21.76 19.5556 20.4 19.5556 19.04C19.5556 17.6 19.6489 16.2133 19.8356 14.88C20.0489 13.5467 20.4489 12.36 21.0356 11.32C21.6489 10.28 22.5156 9.45334 23.6356 8.84C24.7556 8.22667 26.2489 7.92 28.1156 7.92C29.7156 7.92 31.0223 8.18667 32.0356 8.72001C33.0756 9.22667 33.8889 9.96001 34.4756 10.92C35.0623 11.8533 35.4623 13 35.6756 14.36C35.8889 15.6933 35.9956 17.1867 35.9956 18.84V20.08H25.0756Z" fill="#28A6F7"/>
<path d="M55.7512 1.44V6.16001H49.5112V30H43.7512V6.16001H37.5112V1.44H55.7512Z" fill="#28A6F7"/>
<path d="M63.41 15.72C63.41 17.64 63.45 19.28 63.53 20.64C63.6366 21.9733 63.8233 23.0667 64.09 23.92C64.3833 24.7467 64.7833 25.36 65.29 25.76C65.8233 26.1333 66.5166 26.32 67.37 26.32C68.2233 26.32 68.9033 26.1333 69.41 25.76C69.9433 25.36 70.3433 24.7467 70.61 23.92C70.9033 23.0667 71.09 21.9733 71.17 20.64C71.2766 19.28 71.33 17.64 71.33 15.72C71.33 13.8 71.2766 12.1733 71.17 10.84C71.09 9.50667 70.9033 8.41334 70.61 7.56C70.3433 6.70667 69.9433 6.09334 69.41 5.72C68.9033 5.32 68.2233 5.12001 67.37 5.12001C66.5166 5.12001 65.8233 5.32 65.29 5.72C64.7833 6.09334 64.3833 6.70667 64.09 7.56C63.8233 8.41334 63.6366 9.50667 63.53 10.84C63.45 12.1733 63.41 13.8 63.41 15.72ZM57.65 15.72C57.65 13.56 57.7433 11.5733 57.93 9.76C58.1433 7.92 58.5833 6.34667 59.25 5.04001C59.9433 3.73334 60.93 2.72001 62.21 2C63.49 1.25334 65.21 0.880005 67.37 0.880005C69.53 0.880005 71.25 1.25334 72.53 2C73.81 2.72001 74.7833 3.73334 75.45 5.04001C76.1433 6.34667 76.5833 7.92 76.77 9.76C76.9833 11.5733 77.09 13.56 77.09 15.72C77.09 17.9067 76.9833 19.9067 76.77 21.72C76.5833 23.5333 76.1433 25.0933 75.45 26.4C74.7833 27.7067 73.81 28.7067 72.53 29.4C71.25 30.0933 69.53 30.44 67.37 30.44C65.21 30.44 63.49 30.0933 62.21 29.4C60.93 28.7067 59.9433 27.7067 59.25 26.4C58.5833 25.0933 58.1433 23.5333 57.93 21.72C57.7433 19.9067 57.65 17.9067 57.65 15.72Z" fill="#28A6F7"/>
<path d="M87.1165 1.44L94.0765 21H94.1565V1.44H99.4365V30H92.8765L85.8365 10H85.7565V30H80.4765V1.44H87.1165Z" fill="#28A6F7"/>
<path d="M108.885 23.76V30H103.605V23.76H108.885Z" fill="#28A6F7"/>
<path d="M116.935 22.96V23.68C116.935 24.6133 117.175 25.3733 117.655 25.96C118.161 26.52 118.881 26.8 119.815 26.8C120.668 26.8 121.348 26.5867 121.855 26.16C122.361 25.7333 122.615 25.0933 122.615 24.24C122.615 23.5467 122.415 23.0267 122.015 22.68C121.615 22.3067 121.148 22.0133 120.615 21.8L116.735 20.4C115.215 19.8667 114.068 19.12 113.295 18.16C112.521 17.1733 112.135 15.92 112.135 14.4C112.135 13.52 112.281 12.6933 112.575 11.92C112.868 11.12 113.335 10.4267 113.975 9.84001C114.615 9.25334 115.428 8.78667 116.415 8.44001C117.428 8.09334 118.641 7.92 120.055 7.92C122.561 7.92 124.415 8.45334 125.615 9.52001C126.815 10.5867 127.415 12.0933 127.415 14.04V14.92H122.455C122.455 13.8 122.268 12.9867 121.895 12.48C121.548 11.9467 120.921 11.68 120.015 11.68C119.321 11.68 118.708 11.88 118.175 12.28C117.668 12.6533 117.415 13.2267 117.415 14C117.415 14.5333 117.575 15.0133 117.895 15.44C118.241 15.8667 118.881 16.2267 119.815 16.52L123.135 17.64C124.868 18.2267 126.095 19 126.815 19.96C127.535 20.8933 127.895 22.1733 127.895 23.8C127.895 24.9467 127.695 25.9467 127.295 26.8C126.895 27.6267 126.335 28.32 125.615 28.88C124.921 29.44 124.081 29.84 123.095 30.08C122.135 30.32 121.068 30.44 119.895 30.44C118.348 30.44 117.055 30.2933 116.015 30C115.001 29.7067 114.188 29.2667 113.575 28.68C112.988 28.0933 112.575 27.3867 112.335 26.56C112.095 25.7067 111.975 24.76 111.975 23.72V22.96H116.935Z" fill="#ffffff"/>
<path d="M131.868 2.32001H137.388V8.48H140.588V12.24H137.388V23.88C137.388 24.7333 137.508 25.3467 137.748 25.72C138.015 26.0667 138.548 26.24 139.348 26.24C139.561 26.24 139.775 26.24 139.988 26.24C140.201 26.2133 140.401 26.1867 140.588 26.16V30C139.975 30 139.375 30.0133 138.788 30.04C138.228 30.0933 137.628 30.12 136.988 30.12C135.921 30.12 135.041 30.0533 134.348 29.92C133.681 29.76 133.161 29.4667 132.788 29.04C132.441 28.5867 132.201 28 132.068 27.28C131.935 26.56 131.868 25.6533 131.868 24.56V12.24H129.068V8.48H131.868V2.32001Z" fill="#ffffff"/>
<path d="M147.304 19.24C147.304 20.3333 147.331 21.3467 147.384 22.28C147.437 23.2133 147.557 24.0133 147.744 24.68C147.957 25.3467 148.264 25.8667 148.664 26.24C149.064 26.6133 149.597 26.8 150.264 26.8C151.384 26.8 152.157 26.2133 152.584 25.04C153.011 23.8667 153.224 21.9333 153.224 19.24C153.224 16.5467 153.011 14.6133 152.584 13.44C152.157 12.2667 151.384 11.68 150.264 11.68C149.597 11.68 149.064 11.8667 148.664 12.24C148.264 12.6133 147.957 13.1333 147.744 13.8C147.557 14.4667 147.437 15.2667 147.384 16.2C147.331 17.1333 147.304 18.1467 147.304 19.24ZM141.784 19.24C141.784 17.4 141.931 15.7733 142.224 14.36C142.517 12.9467 142.997 11.7733 143.664 10.84C144.331 9.88001 145.197 9.16 146.264 8.68C147.357 8.17334 148.691 7.92 150.264 7.92C151.917 7.89334 153.291 8.12001 154.384 8.60001C155.477 9.05334 156.344 9.76001 156.984 10.72C157.624 11.68 158.077 12.8667 158.344 14.28C158.611 15.6933 158.744 17.3467 158.744 19.24C158.744 21.08 158.597 22.7067 158.304 24.12C158.011 25.5333 157.531 26.72 156.864 27.68C156.197 28.6133 155.317 29.3067 154.224 29.76C153.157 30.2133 151.837 30.44 150.264 30.44C148.611 30.4667 147.237 30.2667 146.144 29.84C145.051 29.3867 144.184 28.6933 143.544 27.76C142.904 26.8 142.451 25.6133 142.184 24.2C141.917 22.76 141.784 21.1067 141.784 19.24Z" fill="#ffffff"/>
<path d="M161.723 8.48H167.003V11.36H167.083C167.643 10.32 168.323 9.49334 169.123 8.88001C169.923 8.24001 170.896 7.92 172.043 7.92C172.203 7.92 172.363 7.93334 172.523 7.96001C172.709 7.96001 172.883 7.97334 173.043 8.00001V13.28C172.749 13.2533 172.456 13.24 172.163 13.24C171.896 13.2133 171.616 13.2 171.323 13.2C170.843 13.2 170.363 13.2667 169.883 13.4C169.403 13.5333 168.963 13.76 168.563 14.08C168.163 14.3733 167.843 14.7733 167.603 15.28C167.363 15.76 167.243 16.36 167.243 17.08V30H161.723V8.48Z" fill="#ffffff"/>
<path d="M185.403 16.8C185.376 15.9733 185.323 15.2533 185.243 14.64C185.163 14 185.016 13.4667 184.803 13.04C184.616 12.5867 184.336 12.2533 183.963 12.04C183.616 11.8 183.163 11.68 182.603 11.68C182.043 11.68 181.576 11.8133 181.203 12.08C180.856 12.32 180.576 12.6533 180.363 13.08C180.15 13.48 179.99 13.9333 179.883 14.44C179.803 14.9467 179.763 15.4533 179.763 15.96V16.8H185.403ZM179.763 20.08V21.8C179.763 22.44 179.803 23.0667 179.883 23.68C179.99 24.2667 180.15 24.8 180.363 25.28C180.576 25.7333 180.856 26.1067 181.203 26.4C181.55 26.6667 181.976 26.8 182.483 26.8C183.416 26.8 184.096 26.4667 184.523 25.8C184.95 25.1333 185.243 24.12 185.403 22.76H190.363C190.256 25.2667 189.59 27.1733 188.363 28.48C187.136 29.7867 185.203 30.44 182.563 30.44C180.563 30.44 179.003 30.1067 177.883 29.44C176.763 28.7733 175.936 27.8933 175.403 26.8C174.87 25.7067 174.536 24.48 174.403 23.12C174.296 21.76 174.243 20.4 174.243 19.04C174.243 17.6 174.336 16.2133 174.523 14.88C174.736 13.5467 175.136 12.36 175.723 11.32C176.336 10.28 177.203 9.45334 178.323 8.84C179.443 8.22667 180.936 7.92 182.803 7.92C184.403 7.92 185.71 8.18667 186.723 8.72001C187.763 9.22667 188.576 9.96001 189.163 10.92C189.75 11.8533 190.15 13 190.363 14.36C190.576 15.6933 190.683 17.1867 190.683 18.84V20.08H179.763Z" fill="#ffffff"/>
</svg>
