<svg width="20" height="20" viewBox="0 0 20 20" fill="none" xmlns="http://www.w3.org/2000/svg">
<path d="M7 8C7 7.40666 7.17595 6.82664 7.50559 6.33329C7.83524 5.83994 8.30377 5.45543 8.85195 5.22836C9.40013 5.0013 10.0033 4.94189 10.5853 5.05765C11.1672 5.1734 11.7018 5.45912 12.1213 5.87868C12.5409 6.29824 12.8266 6.83279 12.9424 7.41473C13.0581 7.99667 12.9987 8.59987 12.7716 9.14805C12.5446 9.69623 12.1601 10.1648 11.6667 10.4944C11.1734 10.8241 10.5933 11 10 11V12M19 10C19 14.9706 14.9706 19 10 19C5.02944 19 1 14.9706 1 10C1 5.02944 5.02944 1 10 1C14.9706 1 19 5.02944 19 10Z" stroke="#007FD1" stroke-width="2" stroke-linecap="round" stroke-linejoin="round"/>
<circle cx="10" cy="15" r="1" fill="#007FD1"/>
</svg>
