<svg width="51" height="52" viewBox="0 0 51 52" fill="none" xmlns="http://www.w3.org/2000/svg">
<path d="M0 5C0 2.23858 2.23858 0 5 0H46C48.7614 0 51 2.23858 51 5V47C51 49.7614 48.7614 52 46 52H5C2.23858 52 0 49.7614 0 47V5Z" fill="#28A6F7"/>
<path d="M12.1778 36.4855C12.1788 37.2029 12.9125 37.6859 13.5719 37.4032L38.0231 26.9191C38.831 26.5727 38.831 25.4273 38.0231 25.0809L13.5719 14.5968C12.9125 14.3141 12.1788 14.7971 12.1778 15.5145L12.1679 22.4566C12.1672 22.9583 12.5384 23.3829 13.0357 23.4492L24.7324 25.0088C25.8895 25.1631 25.8895 26.8369 24.7324 26.9912L13.0357 28.5508C12.5384 28.6171 12.1672 29.0417 12.1679 29.5434L12.1778 36.4855Z" fill="white"/>
</svg>
