<svg width="24" height="25" viewBox="0 0 24 25" fill="none" xmlns="http://www.w3.org/2000/svg">
<path d="M6.59998 12.5001L12 4.1001L17.4 12.5001L12 20.9001L6.59998 12.5001Z" fill="#89B8FF"/>
<path d="M12 20.9V12.5H7.80005L12 20.9Z" fill="#2E5FDC"/>
<path d="M12 20.9V12.5H16.2L12 20.9Z" fill="#1D2DC6"/>
<path d="M12 12.5001V4.1001L7.80005 12.5001H12Z" fill="#4576F3"/>
<path d="M12 12.5001V4.1001L16.2 12.5001H12Z" fill="#3346F6"/>
<path d="M12 20.9L4.80005 12.5H8.40005L12 20.9Z" fill="#4486EB"/>
<path d="M4.80005 12.5001L12 4.1001L8.40005 12.5001H4.80005Z" fill="#89B8FF"/>
<path d="M19.2 12.5L12 20.9L15.6 12.5H19.2Z" fill="#0F1D9D"/>
<path d="M12 4.1001L19.2 12.5001H15.6L12 4.1001Z" fill="#213DD1"/>
</svg>
