<svg width="148" height="75" viewBox="0 0 148 75" fill="none" xmlns="http://www.w3.org/2000/svg">
<path d="M87.0296 0H81.2612L81.2823 0.228946C81.2799 0.897551 81.2976 1.57236 81.274 2.24015L65.8166 2.20312L65.8264 4.00258L63.88 4.00094L63.8768 7.76573C62.6146 7.77088 61.2949 7.85286 60.0407 7.73039C60.0625 6.47819 60.0735 5.2259 60.0739 3.97351L58.0608 3.98019L58.0726 2.16373C57.4407 2.16361 56.8087 2.1571 56.1768 2.14422L56.1442 2.04354L56.1433 0H50.4497H50.37C50.3401 0.5783 50.1842 1.6135 50.4951 2.11654C50.0411 2.11245 48.9391 1.97853 48.5739 2.1892C48.3175 2.59211 48.3782 3.38343 48.4688 3.84132C48.4725 3.85806 48.477 3.8745 48.4806 3.89109L48.3918 3.98444L46.5957 3.98289C46.2813 4.47755 46.3384 6.80482 46.458 7.45044C46.4788 7.56133 46.5314 7.6826 46.5885 7.7804L44.6302 7.78133C44.3955 8.18973 44.4046 10.9028 44.5287 11.4388C44.5478 11.5206 44.5894 11.6019 44.6302 11.6748L42.6991 11.6758C42.5134 12.025 42.5306 14.6565 42.6575 15.0258C42.681 15.0956 42.7109 15.1616 42.7444 15.2269C42.4789 15.4835 42.3503 15.5115 41.9796 15.5054C41.6298 15.4997 41.1641 15.4133 40.8369 15.5368L40.788 15.6006C40.6448 15.9065 40.5904 16.1686 40.7055 16.4967C40.7264 16.5585 40.7517 16.6184 40.778 16.6783C40.5225 17.189 40.5297 20.599 40.6992 21.1411C40.7173 21.2002 40.7436 21.243 40.7771 21.2945C40.2144 21.2904 39.3408 21.1737 38.8207 21.353L38.7772 21.3963C38.5207 21.7755 38.5225 26.1773 38.6621 26.7754C38.6811 26.8557 38.7146 26.9194 38.7536 26.9915C38.2271 27.173 37.3554 26.9167 36.9539 27.1657C36.9077 27.2401 36.8261 27.3406 36.7981 27.4201C36.6857 27.7453 36.7491 30.4062 36.8443 30.7705C36.8624 30.8399 36.9014 30.9078 36.9394 30.9683C36.2634 30.968 35.5539 30.9213 34.8833 30.9761C34.8434 30.4203 34.7138 29.561 35.0065 29.0747L32.9667 29.0792C32.9296 28.519 32.7927 27.5841 33.0881 27.0921L31.1969 27.0982C30.9604 26.7177 30.9686 25.8936 31.0701 25.4677C31.0927 25.3721 31.138 25.2847 31.1915 25.2032L21.4998 25.2143C21.2715 24.8125 21.2579 24.0991 21.3721 23.655C21.3965 23.5587 21.4427 23.4699 21.4962 23.3867L13.6314 23.3853C13.3795 23.8081 13.4085 28.1897 13.5535 28.7951C13.5789 28.8986 13.6215 28.9954 13.6713 29.089L15.6866 29.0881C15.4501 29.4808 15.4139 34.0532 15.5716 34.6315C15.5969 34.7247 15.6422 34.81 15.693 34.8916L17.6032 34.8883C17.2997 35.3469 17.3595 37.8389 17.4573 38.464C17.4736 38.5683 17.5226 38.6629 17.5779 38.7514L15.703 38.7512C15.4637 39.1912 15.4773 39.922 15.5987 40.4019C15.6096 40.4427 15.625 40.481 15.6395 40.5206C15.1393 40.6445 14.1289 40.4463 13.7809 40.7024C13.5453 41.0954 13.5734 42.1064 13.6831 42.5394C13.6948 42.5894 13.7148 42.6349 13.7329 42.6832C12.1743 42.9629 9.66142 42.6987 7.98407 42.7249C7.78833 43.1566 7.75842 43.9901 7.9306 44.4369C7.93967 44.4602 7.95055 44.4831 7.95959 44.5062C7.16579 44.6749 4.61848 44.354 4.15906 44.6821C3.8718 45.0777 3.91167 45.781 3.99232 46.2606C4.00591 46.3423 4.02765 46.4087 4.05574 46.4865L2.20351 46.4927C1.94525 46.9034 1.94434 49.4863 2.07936 50.0358C2.1011 50.1226 2.14008 50.2046 2.18448 50.2822L0.214432 50.2939C0.133789 50.4265 0.0902863 50.5421 0.0766907 50.6963C-0.00486755 51.5764 -0.0510864 57.0404 0.0939026 57.766C0.11203 57.8573 0.156433 57.9398 0.208084 58.0161L1.98331 58.011C2.03949 58.5919 1.89177 59.4992 2.18628 59.9936C2.77893 59.9933 3.48848 59.9246 4.05847 60.0736C3.88901 60.4766 3.84552 61.3323 4.01588 61.744C4.03763 61.7962 4.06572 61.8422 4.09834 61.8881L7.81914 61.8897C7.81099 62.437 7.69499 63.4122 7.98044 63.8819C8.55135 63.8859 9.13402 63.8655 9.70311 63.8988C9.58711 64.7999 9.65416 65.773 9.65416 66.6834L9.65234 71.6987L9.65326 80.1668C9.65416 81.6216 9.60252 83.096 9.66142 84.5482C9.66957 84.7493 9.70763 84.9234 9.81274 85.0954L11.7901 85.1032C11.4919 85.5176 11.588 86.2609 11.6632 86.7395C11.6771 86.829 11.6973 86.917 11.7239 87.0036C12.0664 87.0097 12.4144 87.0291 12.7551 87.0099C12.7733 87.0138 12.7905 87.0177 12.8077 87.0214C12.8974 87.04 13.4402 87.0662 13.4638 87.109C13.7211 87.5914 13.3623 88.3633 13.6976 88.9039L23.43 88.8981C23.2433 88.5315 23.2451 87.6987 23.3657 87.3061C23.3938 87.2167 23.4318 87.1415 23.4853 87.0657L30.993 87.0815C30.781 87.4479 30.7683 88.2648 30.8888 88.6673C30.9133 88.7495 30.9486 88.8182 30.9976 88.8881L49.1521 88.888L55.0396 88.8829C56.0744 88.8822 57.1455 88.8297 58.1768 88.8982L58.2266 88.9382C59.3013 88.746 61.6658 88.9017 62.8709 88.9032L73.5303 88.89C74.1429 88.8895 74.9478 88.7955 75.5321 88.958L75.5327 90.7273C78.7336 90.7291 81.9479 90.6657 85.1471 90.7382C85.7805 90.7545 86.4178 90.7409 87.0516 90.7418L90.9305 90.7146C92.8312 90.6403 94.7608 90.7001 96.6643 90.7001L96.6678 88.8882L96.7066 88.8473C98.588 88.7775 100.479 88.8196 102.362 88.8256L102.365 86.9937C105.013 86.9105 107.687 86.9895 110.337 86.9892L110.336 85.0781L117.89 85.0864L117.885 83.2699L123.874 83.2922L123.868 81.3753L125.815 81.376L125.821 79.4119L127.711 79.4094L127.715 75.4225C127.708 74.8048 127.712 74.1872 127.729 73.5698L129.695 73.5756C129.691 72.3049 129.697 71.0342 129.716 69.7635L129.737 69.6961C130.351 69.6241 131.01 69.6589 131.63 69.6482C131.626 67.6999 131.584 65.7429 131.651 63.7957L133.626 63.796L133.64 58.052L133.687 58.0263C134.287 57.9624 134.924 57.9998 135.528 57.9978L135.523 52.1922L137.417 52.1876L137.414 46.4186L139.337 46.4084L139.342 40.6875L141.3 40.6824L141.297 38.458C141.359 37.2704 141.31 36.0561 141.312 34.8656L143.158 34.8534C143.146 32.9492 143.147 31.045 143.162 29.1408L143.216 29.1137C143.845 29.059 144.506 29.0951 145.139 29.0928C145.131 27.1594 145.136 25.226 145.155 23.2926L147.034 23.2901L147.036 17.402L145.14 17.401L145.131 15.4819L143.22 15.4807L143.223 13.5856L141.297 13.5795L141.293 11.7538L127.682 11.7518C127.002 11.7295 126.321 11.7118 125.641 11.6988L125.643 7.7999L123.863 7.79281L123.75 7.75219L123.757 5.97015L121.856 5.96769L121.836 5.92523C121.791 5.32557 121.822 4.70197 121.819 4.09948L116.052 4.07807C116.096 3.4805 116.063 2.85877 116.063 2.25841L87.0295 2.23734L87.0296 0Z" fill="#FFF5ED"/>
<path d="M141.293 11.7537L127.682 11.7517C127.004 11.7619 126.325 11.7623 125.647 11.7532C125.651 12.3415 125.616 12.9627 125.678 13.5462L125.718 13.5808C125.66 14.2145 125.683 14.8507 125.693 15.486L123.753 15.4929L121.848 15.4924C121.844 16.0845 121.766 16.8101 121.939 17.3756C121.284 17.4706 120.601 17.4336 119.94 17.4284L118.057 17.4301L118.029 17.4901L117.939 17.5112C117.943 18.7698 117.903 20.046 117.96 21.3025L116.058 21.3189L116.05 25.1908L114.136 25.1888L114.144 25.2647C114.131 26.5112 114.129 27.7576 114.137 29.004L113.649 29.0534L112.171 29.0717C112.037 30.9953 112.179 32.9561 112.144 34.8862C111.54 34.8883 110.914 34.8567 110.313 34.9018L110.245 34.8856C110.242 36.8177 110.211 38.7541 110.246 40.6857L108.343 40.6888L108.338 42.7197C106.605 42.7328 104.189 42.9265 102.526 42.7126L102.523 44.6076L98.616 44.6161L96.7421 44.6201L96.7504 46.4175L94.6708 46.4112L88.9942 46.3965L89.0184 48.3141C88.4615 48.4992 87.6527 48.3909 87.0615 48.3767L83.2113 48.3726L83.2229 50.2123C82.567 50.2178 81.9091 50.2137 81.2543 50.258L81.2562 52.1859L79.3543 52.1984C79.3469 52.7707 79.4542 53.4386 79.287 53.9805C79.0881 54.1443 79.0017 54.1177 78.7528 54.1228C78.3431 54.134 77.9328 54.1512 77.5231 54.1544L77.5412 57.9891L75.5182 57.9906L75.5276 78.5762L75.5272 85.2946C75.5269 86.493 75.4714 87.7175 75.5489 88.9114L75.5321 88.9579L75.5327 90.7272C78.7336 90.7291 81.9479 90.6656 85.1471 90.7381C85.7805 90.7544 86.4178 90.7408 87.0516 90.7417L90.9305 90.7146C92.8312 90.6403 94.7608 90.7001 96.6643 90.7001L96.6678 88.8881L96.7066 88.8473C98.588 88.7774 100.479 88.8195 102.362 88.8255L102.365 86.9937C105.013 86.9105 107.687 86.9894 110.337 86.9891L110.336 85.078L117.89 85.0863L117.885 83.2699L123.874 83.2922L123.868 81.3752L125.815 81.3759L125.821 79.4119L127.711 79.4093L127.715 75.4224C127.708 74.8047 127.712 74.1872 127.729 73.5697L129.695 73.5755C129.691 72.3048 129.697 71.0341 129.716 69.7635L129.737 69.696C130.351 69.624 131.01 69.6588 131.63 69.6482C131.626 67.6998 131.584 65.7428 131.651 63.7957L133.626 63.7959L133.64 58.0519L133.687 58.0263C134.287 57.9624 134.924 57.9997 135.528 57.9977L135.523 52.1922L137.417 52.1875L137.414 46.4186L139.337 46.4083L139.342 40.6874L141.3 40.6823L141.297 38.4579C141.359 37.2704 141.31 36.0561 141.312 34.8655L143.158 34.8533C143.146 32.9491 143.147 31.0449 143.162 29.1408L143.216 29.1136C143.845 29.059 144.506 29.095 145.139 29.0928C145.131 27.1593 145.136 25.2259 145.155 23.2925L147.034 23.2901L147.036 17.402L145.14 17.401L145.131 15.4818L143.22 15.4807L143.223 13.5856L141.297 13.5794L141.293 11.7537Z" fill="#FF6853"/>
<path d="M141.293 11.7537L127.682 11.7517C127.004 11.7619 126.325 11.7623 125.647 11.7532C125.651 12.3415 125.616 12.9627 125.678 13.5462L125.718 13.5808C125.66 14.2145 125.683 14.8507 125.693 15.486L123.753 15.4929L121.848 15.4924C121.844 16.0845 121.766 16.8101 121.939 17.3756C121.284 17.4706 120.601 17.4336 119.94 17.4284L118.057 17.4301L118.029 17.4901L117.939 17.5112C117.943 18.7698 117.903 20.046 117.96 21.3025L116.058 21.3189L116.05 25.1908L114.136 25.1888L114.144 25.2647C114.131 26.5112 114.129 27.7576 114.137 29.004L113.649 29.0534L114.09 29.1372C114.261 30.1153 114.175 31.9358 114.106 32.9595C114.199 33.8363 114.141 34.7815 114.14 35.6648L114.131 40.661L117.955 40.6733L117.946 42.6377C119.901 42.6202 121.856 42.6186 123.812 42.6327L123.807 40.6488L125.716 40.6398C125.721 38.7118 125.709 36.7838 125.679 34.8559C126.331 34.8679 126.986 34.8537 127.638 34.8517L127.633 29.0695L129.631 29.0628L129.624 23.2875L131.533 23.285L131.532 21.231L133.485 21.2254L133.474 19.3569L135.443 19.3436C135.449 18.7205 135.439 18.0965 135.436 17.4735L137.412 17.4757L137.38 15.4583L141.261 15.4766L143.22 15.4807L143.223 13.5856L141.297 13.5794L141.293 11.7537Z" fill="#FF926A"/>
<path d="M141.293 11.7537L127.682 11.7517C127.004 11.7619 126.325 11.7623 125.647 11.7532C125.651 12.3415 125.616 12.9627 125.678 13.5462L125.718 13.5808L141.275 13.5784L141.261 15.4766L143.22 15.4807L143.223 13.5856L141.297 13.5794L141.293 11.7537Z" fill="#43343D"/>
<path d="M114.137 29.0042L113.649 29.0535L114.09 29.1374C114.261 30.1154 114.175 31.9359 114.106 32.9597L116.077 32.9895L116.064 29.0057L114.137 29.0042Z" fill="#FF6853"/>
<path d="M118.029 17.4902L117.939 17.5113C117.943 18.7699 117.903 20.0461 117.96 21.3026L119.932 21.305L119.938 19.3794L119.932 17.4948L118.029 17.4902Z" fill="#D14A37"/>
<path d="M123.753 15.493L121.848 15.4926C121.844 16.0847 121.766 16.8102 121.939 17.3757C121.284 17.4707 120.601 17.4337 119.94 17.4285L118.057 17.4303L118.029 17.4902L119.932 17.4948L119.938 19.3794L121.818 19.3904C121.807 18.7965 121.745 18.1369 121.857 17.5542L122.044 17.436C122.615 17.4734 123.204 17.4462 123.777 17.4466L123.753 15.493Z" fill="#FF6853"/>
<path d="M117.96 21.3025L116.058 21.3189L116.05 25.1908L117.973 25.198C117.887 23.9166 117.971 22.5905 117.96 21.3025Z" fill="#D14A37"/>
<path d="M116.045 25.2478C115.412 25.2491 114.778 25.2547 114.144 25.2647C114.131 26.5112 114.129 27.7576 114.137 29.004L116.064 29.0056L116.052 27.0775L116.045 25.2478Z" fill="#D14A37"/>
<path d="M119.932 21.3049L117.96 21.3025C117.971 22.5905 117.887 23.9166 117.973 25.198C118.089 24.5948 118.025 23.8945 118.022 23.2779L119.94 23.2917L119.932 21.3049Z" fill="#FF6853"/>
<path d="M116.05 25.1907L114.136 25.1887L114.144 25.2647C114.778 25.2546 115.412 25.249 116.045 25.2477L116.052 27.0774C116.686 27.0451 117.338 27.0794 117.973 27.0814C117.955 26.4513 117.949 25.8278 117.973 25.1979L116.05 25.1907Z" fill="#FF6853"/>
<path d="M87.0446 50.2305C85.7811 50.2332 84.482 50.2979 83.2229 50.2124C82.5669 50.2178 81.9091 50.2138 81.2543 50.2581L81.2561 52.186L79.3543 52.1985C79.3469 52.7707 79.4542 53.4387 79.287 53.9806C79.0881 54.1443 79.0016 54.1178 78.7528 54.1229C78.3431 54.1341 77.9328 54.1513 77.5231 54.1545L77.5411 57.9892L75.5182 57.9906L75.5276 78.5763L75.5271 85.2947C75.5269 86.4931 75.4714 87.7176 75.5489 88.9115C78.1058 88.8463 80.6772 88.9088 83.2355 88.9162L83.2524 69.5201L85.1311 69.5197L85.1213 65.6824L89.0402 65.6943L90.9415 65.7019L90.9348 63.7645C91.5606 63.8124 92.2121 63.7768 92.8407 63.7767C92.9566 61.213 92.8459 58.5963 92.8432 56.0273L92.8466 52.1999L90.9425 52.1983L89.0366 52.1955C89.053 51.5405 89.0347 50.8821 89.0297 50.2267C88.3687 50.2292 87.7054 50.2434 87.0446 50.2305Z" fill="#FF926A"/>
<path d="M85.146 54.1353L81.2457 54.1455L81.2513 56.014L79.362 56.0083L79.3395 61.8636L81.2433 61.8688L81.2395 57.9985L85.1418 57.9962L85.1323 61.8918L81.2248 61.8904L81.2265 63.8101L89.031 63.8025L89.0402 65.6943L90.9415 65.7019L90.9347 63.7645L89.0281 63.7301C89.0244 61.1664 88.977 58.5949 89.0252 56.0321L85.1306 56.0538L85.146 54.1353Z" fill="#FF6853"/>
<path d="M87.0446 50.2305C85.7811 50.2332 84.482 50.2979 83.2229 50.2124C82.5669 50.2178 81.9091 50.2138 81.2543 50.2581L81.2561 52.186L89.0366 52.1955C89.053 51.5405 89.0348 50.8821 89.0297 50.2267C88.3687 50.2292 87.7054 50.2434 87.0446 50.2305Z" fill="#FF6853"/>
<path d="M92.8466 52.1999L90.9425 52.1982L90.9366 56.0317L92.8432 56.0272L92.8466 52.1999Z" fill="#D14A37"/>
<path d="M90.9425 52.1984L89.0366 52.1956L89.0331 56.0313L90.9366 56.0318L90.9425 52.1984Z" fill="#FF6853"/>
<path d="M110.246 40.6858L108.343 40.6889L108.338 42.7198C106.605 42.733 104.189 42.9266 102.526 42.7127L102.523 44.6078L98.616 44.6162L96.7422 44.6202L96.7504 46.4176L94.6708 46.4113L88.9942 46.3967L89.0184 48.3142C88.4615 48.4993 87.6527 48.391 87.0615 48.3769L83.2113 48.3727L83.2229 50.2124C84.482 50.298 85.7811 50.2333 87.0446 50.2306C87.7054 50.2434 88.3687 50.2292 89.0297 50.2268C89.0348 50.8821 89.053 51.5405 89.0366 52.1955L90.9425 52.1983L92.8466 52.2L94.8029 52.1973L94.8031 54.1928L96.7484 54.1878L96.7497 57.9952L98.6688 57.9949L98.6538 56.0871L104.484 56.0901L104.479 54.1338C107.032 54.1205 109.586 54.123 112.14 54.141L112.136 52.1718L118.001 52.1987L117.995 50.2078L121.893 50.2007C121.854 48.9367 121.884 47.6674 121.895 46.4029L116.067 46.4101C115.972 45.8331 116.042 45.1477 116.045 44.5581C112.976 44.5662 109.845 44.6909 106.785 44.5123C107.851 44.4274 108.963 44.4874 110.035 44.4881L116.067 44.494L116.075 42.6763L110.259 42.6582C110.259 42.0007 110.254 41.3433 110.246 40.6858Z" fill="#FF926A"/>
<path d="M110.246 40.6858L108.343 40.6889L108.338 42.7198C106.605 42.733 104.189 42.9266 102.526 42.7127L102.523 44.6078L98.616 44.6162L96.7421 44.6202L96.7504 46.4176L94.6708 46.4113L88.9942 46.3967L89.0184 48.3142C88.4615 48.4993 87.6527 48.391 87.0614 48.3769L83.2113 48.3727L83.2229 50.2124C84.482 50.298 85.7811 50.2333 87.0446 50.2306C87.7054 50.2434 88.3687 50.2292 89.0297 50.2268C89.0142 49.6087 89.0233 48.9939 89.0383 48.376C91.6049 48.4334 94.1849 48.3778 96.7529 48.3768L96.744 46.4011L106.371 46.4157C106.378 45.9323 106.177 44.9088 106.491 44.5309L106.785 44.5123C107.851 44.4274 108.963 44.4874 110.035 44.4881L116.067 44.494L116.075 42.6763L110.259 42.6582C110.259 42.0007 110.254 41.3433 110.246 40.6858Z" fill="#D14A37"/>
<path d="M89.0297 50.2267C89.0347 50.882 89.053 51.5405 89.0366 52.1955L90.9424 52.1983L90.9456 50.2076C90.3071 50.2067 89.6682 50.2193 89.0297 50.2267Z" fill="#D14A37"/>
<path d="M125.749 48.4454C125.329 48.2312 124.334 48.3653 123.84 48.3693L123.838 56.1088L121.908 56.1043L121.925 57.997L119.925 57.9923L119.941 59.9819L114.063 59.9827L114.074 61.8276L108.261 61.8263L108.265 63.7748C110.883 63.6974 113.514 63.7935 116.134 63.7669L116.119 61.8651L121.892 61.8705L121.88 59.9774L123.831 59.9785L123.819 57.9962L125.749 58.0018L125.749 48.4454Z" fill="#D14A37"/>
<path d="M87.0393 69.5528C86.4048 69.5508 85.7659 69.564 85.1322 69.5388L85.1448 83.4528C85.1431 85.8775 85.0907 88.3149 85.1471 90.7382C85.7805 90.7545 86.4178 90.7409 87.0516 90.7418L87.0393 69.5528Z" fill="#D14A37"/>
<path d="M92.8407 63.7766C92.2121 63.7767 91.5606 63.8123 90.9348 63.7644L90.9415 65.7018L89.0402 65.6942L89.0477 67.5304C93.4549 67.5032 97.8622 67.5008 102.269 67.5233L102.265 65.6478C99.1309 65.7601 95.9611 65.6721 92.8235 65.6693C92.8244 65.0384 92.8302 64.4075 92.8407 63.7766Z" fill="#D14A37"/>
<path d="M139.342 40.6874L137.376 40.6838L137.387 46.4227L135.516 46.4175L135.523 52.1921L137.417 52.1875L137.414 46.4185L139.337 46.4083L139.342 40.6874Z" fill="#43343D"/>
<path d="M92.8432 56.0273C92.8459 58.5963 92.9566 61.213 92.8407 63.7767L94.815 63.7822C94.7773 61.1977 94.8102 58.608 94.8095 56.0229L92.8432 56.0273Z" fill="#D14A37"/>
<path d="M131.651 63.7957L129.676 63.7935C129.675 65.2939 129.506 68.3572 129.737 69.6961C130.351 69.624 131.01 69.6588 131.63 69.6482C131.626 67.6998 131.584 65.7428 131.651 63.7957Z" fill="#43343D"/>
<path d="M141.265 34.8643L139.335 34.8489L139.342 40.6873L141.3 40.6823L141.297 38.4579C141.268 37.2602 141.257 36.0623 141.265 34.8643Z" fill="#43343D"/>
<path d="M133.64 58.052C133.001 57.9671 132.336 57.9992 131.691 58.0014C131.686 59.9317 131.706 61.8663 131.651 63.7958L133.626 63.7961L133.64 58.052Z" fill="#43343D"/>
<path d="M145.155 23.2925L143.216 23.2902C143.214 25.2226 143.143 27.1842 143.216 29.1136C143.845 29.0589 144.506 29.095 145.139 29.0927C145.131 27.1593 145.136 25.2259 145.155 23.2925Z" fill="#43343D"/>
<path d="M108.265 63.7749C106.266 63.8308 104.261 63.7937 102.262 63.7874L102.265 65.648C104.262 65.6175 106.267 65.6587 108.266 65.6662C108.255 65.0363 108.264 64.4049 108.265 63.7749Z" fill="#D14A37"/>
<path d="M147.036 17.4021L145.14 17.4011C145.159 19.365 145.164 21.3289 145.155 23.2927L147.034 23.2902L147.036 17.4021Z" fill="#43343D"/>
<path d="M143.162 29.1407C142.538 29.0406 141.872 29.0836 141.24 29.087C141.239 29.8766 141.124 34.5737 141.312 34.8654L143.158 34.8532C143.146 32.949 143.147 31.0448 143.162 29.1407Z" fill="#43343D"/>
<path d="M113.649 29.0535L112.171 29.0718C112.34 30.9653 112.224 32.948 112.226 34.8513L114.078 34.8611C114.073 34.2545 114.001 33.553 114.106 32.9596C114.175 31.9359 114.261 30.1153 114.09 29.1373L113.649 29.0535Z" fill="#D14A37"/>
<path d="M121.881 44.5076L116.109 44.5214C116.11 45.1428 116.148 45.7944 116.067 46.41L121.895 46.4029C121.886 45.7711 121.881 45.1394 121.881 44.5076Z" fill="#D14A37"/>
<path d="M112.144 34.8862C111.54 34.8883 110.914 34.8568 110.313 34.9018C110.294 36.8296 110.288 38.7574 110.295 40.6853L112.154 40.6868C112.164 38.7532 112.16 36.8197 112.144 34.8862Z" fill="#D14A37"/>
<path d="M135.523 52.1921L133.675 52.1877C133.673 54.1277 133.618 56.0886 133.687 58.0262C134.287 57.9623 134.924 57.9997 135.528 57.9977L135.523 52.1921Z" fill="#43343D"/>
<path d="M129.716 69.7636C129.148 69.5692 128.338 69.6768 127.733 69.6778L127.729 73.5698L129.696 73.5756C129.691 72.3049 129.697 71.0342 129.716 69.7636Z" fill="#43343D"/>
<path d="M145.131 15.4819L143.22 15.4807L143.212 17.4031L145.14 17.401L145.131 15.4819Z" fill="#43343D"/>
<path d="M89.0603 67.5924L87.0438 67.5903L87.0514 69.5442L89.076 69.5338L89.0603 67.5924Z" fill="#D14A37"/>
<path d="M87.0297 0H81.2612L81.2824 0.228946C81.2799 0.897551 81.2976 1.57236 81.274 2.24015L65.8166 2.20312L65.8265 4.00258L63.8801 4.00094L63.8768 7.76573C62.6147 7.77088 61.2949 7.85286 60.0407 7.73039C60.0625 6.47819 60.0735 5.2259 60.0739 3.97351L58.0608 3.98019L58.0726 2.16373C57.4407 2.16361 56.8088 2.1571 56.1768 2.14422L56.1442 2.04354L56.1433 0H50.4497H50.37C50.3401 0.578301 50.1842 1.6135 50.4951 2.11654C50.0411 2.11245 48.9391 1.97853 48.5739 2.1892C48.3175 2.59211 48.3782 3.38343 48.4688 3.84132C48.4725 3.85806 48.477 3.8745 48.4806 3.89109L48.3918 3.98444L46.5957 3.98289C46.2813 4.47755 46.3384 6.80482 46.458 7.45044C46.4788 7.56133 46.5314 7.6826 46.5885 7.7804L44.6302 7.78134C44.3955 8.18974 44.4046 10.9028 44.5287 11.4388C44.5478 11.5206 44.5894 11.6019 44.6302 11.6748L42.6991 11.6758C42.5134 12.025 42.5306 14.6565 42.6575 15.0258C42.681 15.0956 42.7109 15.1616 42.7444 15.2269C42.4789 15.4835 42.3503 15.5115 41.9796 15.5054C41.6298 15.4997 41.1641 15.4133 40.8369 15.5368L40.788 15.6006C40.6448 15.9065 40.5904 16.1686 40.7055 16.4967C40.7264 16.5585 40.7517 16.6184 40.778 16.6783C40.5225 17.189 40.5297 20.599 40.6992 21.1411C40.7173 21.2002 40.7436 21.243 40.7771 21.2945C40.2144 21.2904 39.3408 21.1737 38.8207 21.353L38.7772 21.3963C38.5207 21.7755 38.5225 26.1773 38.6621 26.7754C38.6811 26.8557 38.7146 26.9194 38.7536 26.9915C38.2271 27.173 37.3554 26.9167 36.9539 27.1657C36.9077 27.2401 36.8261 27.3406 36.7981 27.4201C36.6857 27.7453 36.7491 30.4062 36.8443 30.7705C36.8624 30.8399 36.9014 30.9078 36.9394 30.9683C36.2634 30.968 35.5539 30.9213 34.8833 30.9761C34.8316 31.5236 34.7166 32.3209 34.9993 32.8094L42.4671 32.8276C42.6729 32.3983 42.5714 31.4849 42.5813 30.9898L42.6448 30.9768C43.1975 30.8629 43.9116 30.9388 44.4898 30.9109L44.5876 30.9047C44.5197 30.3726 44.4091 29.4385 44.7181 28.9898C45.9233 29.0558 47.1639 28.9967 48.3728 28.9981C48.3392 28.457 48.2405 27.6851 48.4688 27.1858C48.844 26.9559 53.6558 27.0988 54.4931 27.0784C55.6984 27.1288 56.9136 27.0962 58.1206 27.0897L58.1152 29.0001C60.7108 29.0197 63.3066 29.0249 65.9024 29.0159C67.1725 28.9613 68.4617 29.0031 69.734 29.0002C70.4065 28.9948 71.0869 28.9685 71.7556 29.0464L71.7925 29.0733L71.789 34.804L73.6339 34.7979C73.6357 36.0661 73.5962 37.3482 73.642 38.6147L73.6637 40.6566C72.3235 40.6383 70.973 40.6544 69.6348 40.5921C69.5361 41.5302 69.4933 43.3855 69.7059 44.2722L69.7279 44.562H67.8264C67.8257 45.1626 67.8707 45.8078 67.7999 46.4021L67.7556 46.4718L65.8968 46.4762C65.9053 48.3626 65.8152 50.3221 65.9358 52.2006L66.0514 52.2065C66.611 52.2883 67.1874 52.2638 67.7517 52.2651C67.7454 52.8228 67.6585 53.5525 67.8161 54.0823L67.8307 54.1779L69.7617 54.1692L71.6462 54.1595L71.6405 56.0175L71.7247 56.0268C72.3425 56.0677 72.9559 56.0624 73.5746 56.0547L75.5382 56.056L75.5447 54.2181L75.6046 54.1305C76.6466 54.0809 77.71 54.0984 78.7528 54.1228C79.0017 54.1178 79.0881 54.1443 79.287 53.9806C79.4542 53.4387 79.3469 52.7707 79.3544 52.1985L81.2562 52.186L81.2543 50.2581C81.9092 50.2137 82.567 50.2178 83.2229 50.2124L83.2113 48.3726L87.0615 48.3768C87.6527 48.391 88.4615 48.4992 89.0184 48.3142L88.9942 46.3966L94.6708 46.4113L96.7504 46.4175L96.7422 44.6201L98.616 44.6161L102.523 44.6077L102.526 42.7127C104.189 42.9266 106.605 42.7329 108.338 42.7198L108.343 40.6888L110.246 40.6857C110.211 38.7541 110.242 36.8178 110.245 34.8857L110.313 34.9018C110.914 34.8568 111.54 34.8883 112.144 34.8862C112.179 32.9562 112.037 30.9954 112.171 29.0718L113.649 29.0535L114.137 29.0041C114.129 27.7577 114.131 26.5112 114.144 25.2648L114.136 25.1889L116.05 25.1909L116.058 21.3189L117.96 21.3025C117.903 20.0461 117.943 18.7699 117.939 17.5112L118.029 17.4902L118.057 17.4302L119.94 17.4285C120.601 17.4337 121.284 17.4706 121.939 17.3757C121.766 16.8102 121.844 16.0846 121.848 15.4925L123.753 15.493L125.693 15.4861C125.683 14.8508 125.66 14.2146 125.718 13.5809L125.678 13.5463C125.616 12.9628 125.651 12.3415 125.647 11.7532C126.325 11.7624 127.004 11.7619 127.682 11.7518C127.002 11.7295 126.322 11.7118 125.641 11.6988L125.643 7.7999L123.863 7.79281L123.75 7.75219L123.757 5.97015L121.856 5.9677L121.836 5.92523C121.791 5.32557 121.822 4.70197 121.819 4.09948L116.052 4.07807C116.096 3.4805 116.063 2.85877 116.063 2.25841L87.0295 2.23734L87.0297 0Z" fill="#43343D"/>
<path d="M121.819 4.09947L116.052 4.07807L88.9353 4.06396L88.953 7.79823C88.9586 8.41816 88.9072 9.10698 89.001 9.71648L89.0323 9.76378L90.9401 9.75907L90.9402 17.3951C90.9398 18.6038 90.9964 19.8467 90.9081 21.0507L90.9864 21.2495C91.5526 21.4462 92.2588 21.2522 92.8563 21.3595L92.8537 25.195C93.4411 25.1972 94.2044 25.1136 94.7671 25.2496C94.8951 26.3218 94.8238 27.4607 94.8243 28.5431L94.823 34.8504C94.8152 36.162 94.7179 37.5389 94.8167 38.8429L96.741 38.8359L96.7414 40.5932L96.7421 44.6201L98.616 44.6161L102.523 44.6077L102.526 42.7127C104.189 42.9266 106.605 42.7329 108.338 42.7198L108.343 40.6888L110.246 40.6857C110.211 38.7541 110.242 36.8178 110.245 34.8857L110.313 34.9018C110.914 34.8568 111.54 34.8883 112.144 34.8862C112.179 32.9562 112.037 30.9954 112.171 29.0718L113.649 29.0535L114.137 29.0041C114.129 27.7577 114.131 26.5112 114.144 25.2648L114.136 25.1889L116.05 25.1909L116.058 21.3189L117.96 21.3025C117.903 20.0461 117.943 18.7699 117.939 17.5112L118.029 17.4902L118.057 17.4302L119.94 17.4285C120.601 17.4336 121.284 17.4706 121.939 17.3757C121.766 16.8102 121.844 16.0846 121.848 15.4925L123.753 15.493L125.693 15.4861C125.683 14.8507 125.66 14.2146 125.718 13.5809L125.678 13.5463C125.616 12.9628 125.651 12.3415 125.647 11.7532C126.325 11.7624 127.004 11.7619 127.682 11.7518C127.002 11.7295 126.322 11.7118 125.641 11.6988L125.643 7.7999L123.863 7.7928L123.75 7.75219L123.757 5.97014L121.856 5.96769L121.836 5.92522C121.791 5.32557 121.822 4.70196 121.819 4.09947Z" fill="#FFE9D5"/>
<path d="M121.836 5.92529C121.239 6.0468 120.548 5.98279 119.936 5.97751L119.933 7.77369L119.935 9.71564L117.964 9.70667L117.952 11.6493L116.06 11.6189L116.081 13.5852L114.121 13.5851L114.127 15.5615C113.463 15.5529 112.799 15.5375 112.135 15.5369L112.138 21.3008L110.225 21.3006L110.231 27.0966L108.31 27.0988L108.313 29.0757L106.265 29.0762C106.325 31.0131 106.275 32.9511 106.315 34.888L104.446 34.8785C104.482 36.1948 104.496 37.5114 104.489 38.8282C103.187 38.8338 101.882 38.8605 100.58 38.8424C100.587 38.1911 100.607 37.5379 100.602 36.8868L98.6369 36.8663L98.6358 34.88C98.5608 32.9589 98.6382 30.9981 98.6446 29.0737L96.7076 29.0767L96.7432 21.3118L94.7472 21.3482L94.7492 11.6354C94.1748 11.6423 93.6007 11.659 93.0269 11.6854L92.8893 11.5705C92.7663 10.992 92.8463 10.2758 92.8538 9.68048C92.2178 9.67921 91.581 9.69398 90.945 9.70105L90.9525 7.79187L88.953 7.7983C88.9586 8.41823 88.9072 9.10705 89.001 9.71655L89.0323 9.76385L90.9401 9.75914L90.9402 17.3952C90.9398 18.6039 90.9964 19.8468 90.9081 21.0508L90.9864 21.2496C91.5526 21.4463 92.2588 21.2523 92.8563 21.3596L92.8537 25.1951C93.4411 25.1973 94.2044 25.1136 94.7671 25.2497C94.8951 26.3219 94.8238 27.4608 94.8243 28.5432L94.823 34.8504C94.8152 36.162 94.7179 37.539 94.8167 38.843L96.741 38.836L96.7414 40.5933L96.7422 44.6202L98.616 44.6162L102.523 44.6078L102.526 42.7128C104.189 42.9266 106.605 42.733 108.338 42.7198L108.343 40.6889L110.246 40.6858C110.211 38.7542 110.242 36.8178 110.245 34.8858L110.313 34.9019C110.914 34.8569 111.54 34.8884 112.144 34.8863C112.179 32.9562 112.037 30.9954 112.171 29.0719L113.649 29.0536L114.137 29.0042C114.129 27.7577 114.131 26.5113 114.144 25.2649L114.136 25.1889L116.05 25.1909L116.058 21.319L117.96 21.3026C117.903 20.0462 117.943 18.77 117.939 17.5113L118.029 17.4903L118.057 17.4303L119.94 17.4286C120.601 17.4337 121.284 17.4707 121.939 17.3757C121.766 16.8103 121.844 16.0847 121.848 15.4926L123.753 15.493L125.693 15.4861C125.683 14.8508 125.66 14.2147 125.718 13.581L125.678 13.5464C125.616 12.9629 125.651 12.3416 125.647 11.7533C126.325 11.7625 127.004 11.762 127.682 11.7518C127.002 11.7295 126.322 11.7119 125.641 11.6988L125.643 7.79996L123.863 7.79287L123.75 7.75225L123.757 5.97021L121.856 5.96776L121.836 5.92529Z" fill="#FFBB80"/>
<path d="M123.863 7.79281L123.75 7.7522C123.745 9.58165 123.899 11.7831 123.747 13.5744L121.827 13.5809L121.833 15.4585C121.213 15.4613 120.554 15.4181 119.94 15.4834L119.94 17.4285C120.601 17.4337 121.284 17.4706 121.939 17.3757C121.766 16.8102 121.844 16.0846 121.848 15.4925L123.753 15.493L125.693 15.4861C125.683 14.8508 125.66 14.2146 125.718 13.5809L125.678 13.5463C125.616 12.9628 125.651 12.3415 125.647 11.7532C126.325 11.7624 127.004 11.7619 127.682 11.7518C127.002 11.7295 126.322 11.7118 125.641 11.6988L125.643 7.79991L123.863 7.79281Z" fill="#D14A37"/>
<path d="M123.757 5.97023L121.856 5.96777C121.822 6.53335 121.744 7.23732 121.861 7.79195C122.481 7.73633 123.127 7.76173 123.75 7.75227L123.757 5.97023Z" fill="#D14A37"/>
<path d="M121.819 4.09953L116.052 4.07812C116.034 4.71006 116.026 5.34213 116.028 5.97432L119.936 5.9775C120.548 5.98278 121.239 6.0468 121.836 5.92528C121.791 5.32563 121.822 4.70202 121.819 4.09953Z" fill="#43343D"/>
<path d="M79.375 17.516C75.4984 17.4946 71.6215 17.5672 67.7447 17.5741L67.7477 19.463L65.9139 19.4652L65.9198 25.1708C65.9196 25.8136 65.9494 26.4723 65.9085 27.113L65.9024 29.0159C67.1725 28.9613 68.4617 29.0031 69.734 29.0002C70.4065 28.9948 71.0868 28.9685 71.7556 29.0464L71.7925 29.0734C72.2945 28.9411 73.0273 28.988 73.5406 29.0616L73.5725 29.0094L75.54 29.0028L75.5411 27.1083C76.1956 27.1132 76.85 27.1078 77.5044 27.0919C77.5072 27.7141 77.55 28.379 77.4764 28.9968L79.3858 28.9976L79.3836 27.0776C80.0111 27.0822 80.6395 27.099 81.2652 27.0433C81.2373 24.5215 81.2635 21.9969 81.2665 19.4749L79.3517 19.4786L79.375 17.516Z" fill="white"/>
<path d="M75.5463 19.3992L71.5728 19.3989L71.5754 21.2722L69.6505 21.2668L69.66 25.167L65.9198 25.1707C65.9196 25.8135 65.9494 26.4722 65.9085 27.1129L65.9024 29.0158C67.1725 28.9613 68.4617 29.003 69.734 29.0001C70.4065 28.9947 71.0868 28.9684 71.7556 29.0464L71.7925 29.0733C72.2945 28.9411 73.0273 28.9879 73.5406 29.0615L73.5725 29.0093L75.54 29.0028L75.5411 27.1082C76.1956 27.1132 76.85 27.1077 77.5044 27.0918L77.5062 21.2598L75.5415 21.2774L75.5463 19.3992Z" fill="#FF6853"/>
<path d="M69.6601 25.167L65.9198 25.1707C65.9196 25.8136 65.9494 26.4723 65.9086 27.1129L65.9024 29.0158C67.1725 28.9613 68.4617 29.0031 69.734 29.0002C70.4065 28.9947 71.0869 28.9684 71.7556 29.0464C71.7 28.4091 71.7376 27.7408 71.7366 27.0999L69.6756 27.0867L69.6601 25.167Z" fill="#43343D"/>
<path d="M69.6601 25.167L65.9198 25.1707C65.9196 25.8136 65.9494 26.4723 65.9086 27.1129C67.1528 27.0278 68.4277 27.0823 69.6756 27.0867L69.6601 25.167Z" fill="#FFBB80"/>
<path d="M73.5474 27.0994L71.7366 27.1C71.7376 27.7409 71.7 28.4093 71.7556 29.0465L71.7925 29.0734C72.2945 28.9412 73.0273 28.988 73.5406 29.0616L73.5725 29.0094C73.5248 28.3806 73.5519 27.7308 73.5474 27.0994Z" fill="#D14A37"/>
<path d="M56.1433 17.5776L44.7036 17.5784C44.671 17.6245 44.642 17.6715 44.6212 17.7239C44.4417 18.1649 44.5024 19.0384 44.6755 19.4737L42.7626 19.4768C42.5197 19.9404 42.5478 26.0743 42.6756 26.9015L42.8568 27.1046C42.5551 27.5037 42.6085 28.2825 42.6964 28.7756C42.7109 28.8558 42.7345 28.9193 42.7635 28.9949C43.3718 29.0163 43.9802 29.0218 44.5885 29.0113C44.3466 29.5618 44.4454 30.3206 44.4898 30.9108L44.5876 30.9046C44.5197 30.3725 44.4091 29.4384 44.7181 28.9897C45.9234 29.0557 47.1639 28.9966 48.3728 28.998C48.3392 28.4569 48.2405 27.685 48.4688 27.1857C48.844 26.9558 53.6558 27.0987 54.4932 27.0783C55.6984 27.1287 56.9136 27.0961 58.1206 27.0896L58.126 25.1355L58.1333 19.4699L56.1433 19.4664V17.5776Z" fill="white"/>
<path d="M52.4741 19.4312C51.1502 19.4371 49.8254 19.4548 48.5014 19.4459C48.2858 19.8281 48.2423 20.6386 48.3619 21.0623C48.3873 21.1537 48.4244 21.2315 48.4761 21.3102L46.5749 21.3067C46.3529 21.7456 46.3148 24.4478 46.4698 24.9487C46.4915 25.0209 46.5196 25.0872 46.5504 25.1557C46.5577 25.1712 46.564 25.187 46.5703 25.2026C46.3764 25.589 46.3438 26.4624 46.4834 26.8733C46.5114 26.9575 46.5531 27.0345 46.6002 27.1097C47.1983 27.1032 47.8898 27.0334 48.4688 27.1858C48.844 26.9559 53.6558 27.0988 54.4931 27.0784C54.4759 27.0524 54.4587 27.0273 54.4433 27.0006C54.2213 26.6131 54.3083 25.6136 54.4252 25.188C54.4188 25.1727 54.4116 25.1577 54.4052 25.1423C54.2077 24.6437 54.2167 21.8932 54.4406 21.3836C53.8534 21.2238 53.103 21.2979 52.4941 21.3077C52.2558 20.9184 52.2666 20.095 52.3781 19.6627C52.3998 19.5786 52.4307 19.5056 52.4741 19.4312Z" fill="#FF6853"/>
<path d="M54.4406 21.3837C54.2167 21.8932 54.2077 24.6438 54.4052 25.1423C54.4116 25.1577 54.4188 25.1728 54.4252 25.188C54.3083 25.6137 54.2213 26.6132 54.4433 27.0007C54.4587 27.0274 54.4759 27.0525 54.4931 27.0784C55.6984 27.1289 56.9136 27.0963 58.1206 27.0897L58.126 25.1356C57.2135 25.3327 55.5307 25.1757 54.5375 25.1725C54.5303 25.1562 54.523 25.1397 54.5158 25.1235C54.2131 24.4952 54.34 22.1572 54.4406 21.3837Z" fill="#FFBB80"/>
<path d="M44.6937 27.0803L42.8568 27.1048C42.5551 27.5039 42.6085 28.2826 42.6964 28.7758C42.7109 28.856 42.7345 28.9194 42.7635 28.9951C43.3718 29.0165 43.9802 29.0219 44.5885 29.0114C44.3466 29.5619 44.4454 30.3207 44.4898 30.9109L44.5876 30.9048C44.5197 30.3727 44.4091 29.4386 44.7181 28.9898C44.6565 28.9091 44.603 28.8206 44.5759 28.7217C44.4608 28.298 44.4726 27.4672 44.6937 27.0803Z" fill="#8E292F"/>
<path d="M65.8264 4.00257L63.88 4.00093L63.8768 7.76572L65.8314 7.77197L65.8274 9.61517L71.5816 9.61072C71.5496 9.01263 71.5767 8.40563 71.5858 7.80664C72.237 7.78395 72.8914 7.80224 73.5431 7.8083L73.6126 7.7756C74.2193 7.67679 74.8977 7.72714 75.5123 7.72651L75.5156 5.87005L77.3544 5.86383L77.391 5.80025C77.4906 5.23127 77.432 4.56637 77.4334 3.9856L65.8264 4.00257Z" fill="#FFE9D5"/>
<path d="M65.8265 4.00262L63.8801 4.00098L63.8768 7.76577L65.8314 7.77201C65.8398 6.51554 65.8382 5.25907 65.8265 4.00262Z" fill="#43343D"/>
<path d="M77.4378 30.9868L77.3606 31.0008C77.7069 31.7332 77.4518 35.8295 77.4622 36.9187L85.3244 36.9571L85.323 34.8239L87.5049 34.8375C87.5087 34.3776 87.6416 33.2076 87.4194 32.8396L85.2873 32.8759L85.3024 30.9958C82.6808 31.0079 80.0593 31.0049 77.4378 30.9868Z" fill="#D14A37"/>
<path d="M75.5844 38.6104L73.642 38.6147L73.6637 40.6566C72.3235 40.6383 70.973 40.6544 69.6348 40.5922C69.5361 41.5303 69.4933 43.3855 69.7059 44.2723L69.7569 42.7226C71.0264 42.4948 74.7897 42.9892 75.6168 42.6142L75.6103 39.3262L75.5844 38.6104Z" fill="#FFE9D5"/>
<path d="M65.7817 27.0874L58.1206 27.0898L58.1152 29.0002C60.7109 29.0198 63.3066 29.025 65.9024 29.0159L65.9086 27.113L65.7817 27.0874Z" fill="white"/>
<path d="M42.7635 28.995C42.1826 29.013 38.9683 28.9215 38.7862 29.0943C38.6222 29.4871 38.5769 30.437 38.7364 30.8306C38.7581 30.8823 38.7808 30.9113 38.8116 30.9598C40.0204 30.9526 41.3915 30.8256 42.5813 30.9898L42.6448 30.9768C43.1975 30.8629 43.9116 30.9388 44.4897 30.9109C44.4453 30.3207 44.3466 29.5619 44.5885 29.0114C43.9802 29.0219 43.3718 29.0164 42.7635 28.995Z" fill="#D14A37"/>
<path d="M77.5044 27.0918C76.8501 27.1077 76.1956 27.1132 75.5411 27.1082L75.54 29.0028C75.5368 29.6712 75.52 30.3423 75.5323 31.0104C76.1418 31.0169 76.7513 31.0137 77.3607 31.0006L77.4378 30.9867C77.4318 30.3299 77.391 29.6481 77.4765 28.9967C77.5501 28.3789 77.5072 27.714 77.5044 27.0918Z" fill="#FFE9D5"/>
<path d="M75.54 29.0027C75.5368 29.6711 75.52 30.3422 75.5323 31.0104C76.1418 31.0169 76.7513 31.0136 77.3606 31.0006C77.3991 30.3426 77.3557 29.6591 77.3505 28.9985L75.54 29.0027Z" fill="white"/>
<path d="M75.54 29.0029L73.5725 29.0095L73.5406 29.0617L73.5518 31.0031L75.5323 31.0106C75.52 30.3425 75.5367 29.6713 75.54 29.0029Z" fill="#FFBB80"/>
<path d="M65.8314 7.77199L63.8768 7.76575L63.8979 9.6586C64.514 9.56136 65.2016 9.61456 65.8274 9.61519L65.8314 7.77199Z" fill="#FFBB80"/>
<path d="M73.5431 7.80837C72.8914 7.80231 72.237 7.78402 71.5858 7.8067C71.5767 8.4057 71.5496 9.0127 71.5816 9.61079C72.235 9.60421 72.8882 9.61031 73.5413 9.6291L73.5431 7.80837Z" fill="#FFBB80"/>
<path d="M54.3481 5.88572C53.7899 5.70999 53.0523 5.80476 52.4723 5.81914L50.4796 5.80481C50.2495 6.34272 50.2313 9.05649 50.447 9.5702C50.4552 9.58833 50.4642 9.60573 50.4724 9.62367C50.4787 9.63971 50.486 9.65593 50.4923 9.67206L48.5141 9.66291C48.3093 10.0196 48.3084 10.9728 48.4099 11.3652C48.4326 11.4538 48.4679 11.5284 48.5177 11.6043C49.8199 11.601 51.143 11.6475 52.4424 11.5843C53.1003 11.6312 53.7763 11.5949 54.436 11.587C54.9961 11.6307 55.5805 11.6007 56.1433 11.6035L56.1478 7.77538L54.2838 7.78205L54.2865 7.688C54.1488 7.21181 54.1442 6.34258 54.3481 5.88572Z" fill="#FF926A"/>
<path d="M52.4723 5.81914L50.4796 5.80481C50.2495 6.34272 50.2313 9.05649 50.447 9.5702C50.4552 9.58833 50.4642 9.60572 50.4724 9.62367C50.4787 9.63971 50.486 9.65593 50.4923 9.67206L48.5141 9.6629C48.3093 10.0196 48.3084 10.9728 48.4099 11.3652C48.4326 11.4538 48.4679 11.5284 48.5177 11.6043C49.8199 11.601 51.143 11.6475 52.4424 11.5843C52.3853 11.5226 52.3346 11.4415 52.3119 11.359C52.1669 10.8252 52.2313 6.19507 52.4723 5.81914Z" fill="#FFBB80"/>
<path d="M56.1478 7.77527L54.2838 7.78195C54.1886 8.26286 54.0563 11.1242 54.2512 11.4299C54.3019 11.5091 54.3599 11.5355 54.436 11.5869C54.9961 11.6306 55.5805 11.6006 56.1433 11.6034L56.1478 7.77527Z" fill="#FF6853"/>
<path d="M83.2384 5.80432L81.3173 5.80656L81.3153 7.79124L79.3389 7.79492L79.3472 9.63153L77.4139 9.62981L77.4082 11.6456L79.3211 11.6147L79.3196 13.5198L81.1586 13.5156L83.2401 13.5253L83.2384 5.80432Z" fill="#FF926A"/>
<path d="M81.3153 7.79126L79.3389 7.79494L79.3472 9.63155L77.4139 9.62983L77.4082 11.6456L79.3211 11.6147C79.9675 11.5655 80.6421 11.6022 81.2918 11.6006C81.2759 10.3319 81.3039 9.06024 81.3153 7.79126Z" fill="#FFBB80"/>
<path d="M13.7329 42.6831C12.1743 42.9628 9.66141 42.6986 7.98405 42.7249C7.78832 43.1566 7.75841 43.9901 7.93058 44.4368C7.93964 44.4601 7.95052 44.4831 7.95959 44.5062C7.16576 44.6748 4.61848 44.3539 4.15903 44.6821C3.87177 45.0776 3.91165 45.7809 3.9923 46.2605C4.0059 46.3423 4.02764 46.4086 4.05573 46.4865L2.20349 46.4926C1.94523 46.9033 1.94432 49.4863 2.07935 50.0357C2.1011 50.1225 2.14006 50.2045 2.18446 50.2821L0.214417 50.2939C0.133766 50.4265 0.090271 50.542 0.0766754 50.6962C-0.00488281 51.5763 -0.0511017 57.0404 0.0938873 57.7659C0.112015 57.8573 0.156418 57.9397 0.208069 58.016L1.98328 58.011C2.03947 58.5918 1.89176 59.4991 2.18627 59.9935C2.77892 59.9932 3.48846 59.9246 4.05845 60.0735C3.88899 60.4765 3.8455 61.3322 4.01586 61.7439C4.03761 61.7961 4.0657 61.8421 4.09833 61.8881L7.81912 61.8896C7.81097 62.437 7.69498 63.4122 7.98042 63.8819C8.55132 63.8859 9.134 63.8655 9.70309 63.8987C9.5871 64.7998 9.65415 65.773 9.65415 66.6833L9.65234 71.6986L9.65324 80.1668C9.65414 81.6215 9.6025 83.096 9.66141 84.5482C9.66956 84.7492 9.70761 84.9233 9.81273 85.0953L11.79 85.1031C11.4919 85.5175 11.588 86.2609 11.6632 86.7394C11.6771 86.8289 11.6973 86.917 11.7239 87.0036C12.0664 87.0096 12.4144 87.029 12.7551 87.0099C12.7732 87.0137 12.7905 87.0177 12.8077 87.0213C12.8974 87.04 13.4402 87.0662 13.4638 87.109C13.7211 87.5913 13.3623 88.3632 13.6975 88.9038L23.43 88.898C23.2433 88.5315 23.2451 87.6987 23.3657 87.306C23.3937 87.2167 23.4318 87.1415 23.4853 87.0656L30.993 87.0814C30.781 87.4479 30.7683 88.2648 30.8888 88.6672C30.9133 88.7494 30.9486 88.8182 30.9975 88.8881L49.1521 88.888L55.0396 88.8829C56.0744 88.8822 57.1455 88.8296 58.1768 88.8981L58.2266 88.9382C59.3013 88.746 61.6658 88.9017 62.8709 88.9032L73.5303 88.89C74.1429 88.8894 74.9478 88.7955 75.532 88.9579L75.5489 88.9114C75.4714 87.7175 75.5269 86.493 75.5271 85.2946L75.5276 78.5762L75.5182 57.9906L77.5411 57.9891L77.5231 54.1544C77.9328 54.1512 78.3431 54.134 78.7528 54.1228C77.71 54.0983 76.6466 54.0808 75.6046 54.1304L75.5447 54.218L75.5382 56.056L73.5746 56.0546C73.5899 59.2986 73.5848 62.5424 73.5593 65.7862C72.9194 65.7853 72.2796 65.7901 71.6398 65.8008L71.642 63.8798C70.7796 63.8811 69.9172 63.8772 69.0549 63.8679C66.6892 63.9086 64.315 63.818 61.952 63.8913C61.9542 64.5218 61.9937 65.1797 61.9396 65.8066L59.9735 65.7988L53.4927 65.7944C52.4596 65.794 51.3604 65.8674 50.3346 65.7821C49.6514 65.7929 48.96 65.8236 48.2785 65.7821C47.1222 65.8114 45.801 65.9263 44.6619 65.7774C43.9678 65.7832 43.2591 65.8173 42.5659 65.776C41.3069 65.788 40.0476 65.7925 38.788 65.7895L38.779 65.6865L38.7119 65.6836C38.6421 65.1484 38.5533 64.3347 38.8424 63.871C37.5629 63.8535 36.2836 63.8562 35.0047 63.8791C33.0736 63.877 31.1335 63.8346 29.2033 63.8905C28.8771 63.4509 28.9976 62.4304 29.0429 61.9026C27.9446 61.9353 26.4784 62.0966 25.4073 61.8991C25.3538 61.8117 25.3067 61.7192 25.2813 61.6192C25.1753 61.2009 25.1826 60.3534 25.4046 59.9802C24.0326 59.9962 22.6371 59.9401 21.2696 60.0085L19.5171 59.9992C19.4817 59.9419 19.4509 59.8842 19.4265 59.821C19.2434 59.3504 19.2851 52.6434 19.499 52.1981C18.8719 52.2055 18.2493 52.2083 17.6232 52.1819C17.4908 51.9002 17.4763 51.8905 17.5887 51.5795C17.374 51.2088 17.4365 50.7018 17.4872 50.2957L15.7029 50.3006C15.4139 49.818 15.5299 49.0048 15.6005 48.4697L15.4411 48.3764L13.8018 48.3928C13.7691 48.3465 13.7401 48.2993 13.7184 48.2466C13.5526 47.8392 13.5779 46.9035 13.7655 46.502C13.7583 46.4862 13.751 46.4702 13.7438 46.4546C13.7356 46.437 13.7265 46.4199 13.7184 46.4021C13.5036 45.9204 13.5181 43.2027 13.7329 42.6831Z" fill="#FF6853"/>
<path d="M25.4073 61.8992C24.7319 61.9188 24.0562 61.9202 23.3801 61.9034C23.1364 62.452 23.2315 63.2122 23.2678 63.803C22.6742 63.8852 21.9701 63.7364 21.4146 63.8892C21.1337 64.3413 21.1636 68.7759 21.3014 69.4622C21.3077 69.4949 21.3213 69.5338 21.3303 69.5646L21.4527 69.611V69.6688L23.4119 69.6669C23.1944 70.0496 23.1599 70.7966 23.2796 71.2193C23.3049 71.3107 23.343 71.3879 23.3955 71.466C24.483 71.5554 26.3089 71.2663 27.2487 71.5951C27.1118 72.0074 27.013 72.9113 27.2423 73.3005C27.2577 73.3265 27.2749 73.3509 27.2912 73.376C27.8377 73.4909 28.5119 73.4027 29.0674 73.3852L29.1625 73.4183C28.9115 73.7922 29.013 74.7154 29.0665 75.1551L29.2504 75.3773C30.5046 75.3552 31.7587 75.358 33.0129 75.3856C33.9861 75.2618 35.0391 75.3447 36.0205 75.3591C37.6148 75.3923 39.2094 75.4019 40.8043 75.3877L50.5023 75.3968C50.2286 75.8186 50.2884 76.5993 50.3818 77.0785C50.3854 77.0964 50.3908 77.1139 50.3945 77.1316L50.4543 77.2124C52.5956 77.3091 54.7849 77.2162 56.9299 77.2159L69.7074 77.2231L69.7021 75.4002L72.0565 75.3998H73.5458L73.5464 73.4636L73.5593 65.7863C72.9194 65.7853 72.2796 65.7902 71.6398 65.8008L71.642 63.8798C70.7796 63.8812 69.9172 63.8772 69.0549 63.868C66.6892 63.9086 64.315 63.818 61.952 63.8913C61.9542 64.5219 61.9937 65.1797 61.9396 65.8066L59.9735 65.7988L53.4927 65.7944C52.4596 65.7941 51.3604 65.8674 50.3346 65.7821C49.6514 65.793 48.96 65.8236 48.2785 65.7822C47.1222 65.8114 45.801 65.9264 44.6619 65.7775C43.9678 65.7833 43.2591 65.8173 42.5659 65.776C41.3069 65.788 40.0476 65.7925 38.788 65.7895L38.779 65.6866L38.7119 65.6837C38.6421 65.1484 38.5533 64.3347 38.8424 63.871C37.5629 63.8536 36.2836 63.8563 35.0047 63.8791C33.0736 63.877 31.1335 63.8346 29.2033 63.8905C28.8771 63.4509 28.9976 62.4305 29.0429 61.9026C27.9446 61.9353 26.4784 62.0966 25.4073 61.8992Z" fill="#FFBB80"/>
<path d="M38.8424 63.871C37.5629 63.8536 36.2836 63.8563 35.0047 63.8791C33.0736 63.877 31.1335 63.8346 29.2033 63.8905C27.2695 63.822 25.3321 63.9192 23.3992 63.8525C23.1455 64.2968 23.15 66.8242 23.2787 67.3837C23.2959 67.4585 23.3348 67.5277 23.3702 67.5945C23.3801 67.6128 23.3892 67.6317 23.3992 67.6498C23.4055 67.6608 23.4128 67.6711 23.4191 67.6817C25.3179 67.698 27.2166 67.6962 29.1154 67.6763C28.9405 68.0127 28.9487 68.3578 29.0619 68.7133L29.0828 68.7765C29.0266 69.0391 28.9949 69.2301 29.0447 69.4988C29.3755 69.7486 44.5006 69.5851 46.4815 69.6084C46.2441 70.0209 46.2387 70.8346 46.3556 71.2913C46.38 71.3879 46.4136 71.4809 46.4507 71.5731C47.7955 71.5544 49.143 71.515 50.4878 71.5283C50.3075 71.9084 50.2458 72.7998 50.3754 73.2037C50.4026 73.2864 50.4361 73.3303 50.4896 73.3977L56.1433 73.4118C56.0418 72.8143 56.1052 72.1105 56.1433 71.5058C60.0097 71.4955 63.8762 71.5062 67.7426 71.5379L67.7337 69.6509C69.0396 69.6719 70.3476 69.6592 71.6538 69.6606C71.6418 69.0048 71.6034 68.3359 71.6953 67.6851C69.7566 67.6877 67.7883 67.6263 65.8532 67.713C65.8588 67.098 65.8749 66.4834 65.9013 65.869C64.5831 65.8552 63.265 65.8519 61.9469 65.8592L61.9396 65.8066L59.9735 65.7988L53.4927 65.7944C52.4597 65.794 51.3604 65.8674 50.3346 65.7821C49.6514 65.793 48.96 65.8236 48.2785 65.7822C47.1222 65.8114 45.801 65.9263 44.6619 65.7775C43.9678 65.7833 43.2592 65.8173 42.5659 65.776C41.3069 65.788 40.0476 65.7925 38.788 65.7895L38.779 65.6866L38.7119 65.6837C38.6421 65.1484 38.5533 64.3347 38.8424 63.871Z" fill="#FFE9D5"/>
<path d="M42.5659 65.7759C41.3069 65.7879 40.0476 65.7924 38.788 65.7894C38.7119 66.3292 38.5959 67.2328 38.8959 67.7106L46.4263 67.709C47.7412 67.708 49.0796 67.655 50.3927 67.7169C54.2195 67.5642 58.1134 67.7123 61.9465 67.7216L61.9469 65.8591L61.9396 65.8065L59.9735 65.7987L53.4927 65.7943C52.4597 65.7939 51.3605 65.8673 50.3347 65.7819C49.6514 65.7928 48.96 65.8235 48.2785 65.782C47.1222 65.8113 45.801 65.9262 44.6619 65.7773C43.9678 65.7831 43.2592 65.8172 42.5659 65.7759Z" fill="#43343D"/>
<path d="M38.8424 63.8712C37.5629 63.8538 36.2836 63.8564 35.0047 63.8793C33.0736 63.8772 31.1335 63.8348 29.2033 63.8907C28.9314 64.2748 28.9686 65.0238 29.0474 65.4706C29.0674 65.586 29.1073 65.6879 29.1671 65.7892L34.9431 65.7833C34.7274 66.1766 34.7401 67.1583 34.8733 67.5772C34.8923 67.6372 34.9141 67.6928 34.9413 67.7494L46.1961 67.7892C47.308 67.788 49.385 67.9459 50.3926 67.7172C49.0796 67.6554 47.7411 67.7083 46.4263 67.7094L38.8959 67.7109C38.5959 67.2331 38.7119 66.3295 38.788 65.7897L38.779 65.6868L38.7119 65.6839C38.6421 65.1486 38.5533 64.3349 38.8424 63.8712Z" fill="#FFBB80"/>
<path d="M38.8424 63.8712C37.5629 63.8538 36.2836 63.8564 35.0047 63.8793C34.741 64.2611 34.7691 65.0126 34.8452 65.4552C34.8661 65.5738 34.9114 65.6766 34.9775 65.7768C35.7342 65.7854 38.1057 65.9614 38.7119 65.6839C38.6421 65.1486 38.5533 64.3349 38.8424 63.8712Z" fill="#43343D"/>
<path d="M40.5759 73.4221C36.7712 73.4423 32.9667 73.4411 29.1625 73.4185C28.9115 73.7923 29.013 74.7155 29.0665 75.1553L29.2504 75.3775C30.5046 75.3553 31.7588 75.3581 33.0129 75.3857C33.9862 75.2619 35.0391 75.3448 36.0205 75.3592C37.6148 75.3925 39.2094 75.402 40.8043 75.3878C40.4518 74.8599 40.7119 74.0377 40.5759 73.4221Z" fill="#D14A37"/>
<path d="M69.0549 63.8679C66.6892 63.9086 64.315 63.818 61.9521 63.8913C61.9542 64.5218 61.9937 65.1797 61.9396 65.8066C65.1712 65.7333 68.4073 65.8396 71.6398 65.8008L71.642 63.8798C70.7796 63.8811 69.9172 63.8771 69.0549 63.8679Z" fill="#43343D"/>
<path d="M13.7329 42.6831C12.1743 42.9628 9.66144 42.6986 7.98409 42.7249C7.78835 43.1566 7.75844 43.9901 7.93061 44.4368C7.93968 44.4601 7.95056 44.4831 7.95962 44.5062C7.1658 44.6748 4.61851 44.3539 4.15907 44.6821C3.87181 45.0776 3.91168 45.7809 3.99233 46.2605C4.00593 46.3423 4.02767 46.4086 4.05576 46.4865L2.20352 46.4926C1.94526 46.9033 1.94436 49.4863 2.07938 50.0357C2.10113 50.1225 2.1401 50.2045 2.1845 50.2821L0.214451 50.2939C0.133801 50.4265 0.0903015 50.542 0.0767097 50.6962C-0.00484657 51.5763 -0.0510674 57.0404 0.0939217 57.7659C0.112045 57.8573 0.15645 57.9397 0.208101 58.016L1.98332 58.011C2.0395 58.5918 1.89179 59.4991 2.1863 59.9935C2.77895 59.9932 3.48849 59.9246 4.05848 60.0735C3.88903 60.4765 3.84553 61.3322 4.0159 61.7439C4.03764 61.7961 4.06574 61.8421 4.09836 61.8881L7.81915 61.8896C7.811 62.437 7.69501 63.4122 7.98046 63.8819C8.55136 63.8859 9.13403 63.8655 9.70312 63.8987C9.58713 64.7998 9.65418 65.773 9.65418 66.6833L9.65237 71.6986L9.65327 80.1668C9.65418 81.6215 9.60254 83.096 9.66144 84.5482C9.66959 84.7492 9.70765 84.9233 9.81276 85.0953L11.7901 85.1031L13.6613 85.1016C13.4611 85.4856 13.433 86.297 13.5526 86.7146C13.5789 86.8074 13.6314 86.8898 13.6903 86.9649C14.476 87.1772 16.6309 87.001 17.5235 86.9859C17.4818 86.9102 17.441 86.8278 17.4211 86.7432C17.2652 86.0656 17.3767 85.1241 17.3785 84.414L17.4075 78.9749L17.4438 59.1868C17.4465 58.184 17.2607 52.7969 17.6232 52.1819C17.4909 51.9002 17.4764 51.8905 17.5887 51.5795C17.374 51.2088 17.4365 50.7018 17.4873 50.2957L15.703 50.3006C15.4139 49.818 15.5299 49.0048 15.6006 48.4697L15.4411 48.3764L13.8018 48.3928C13.7692 48.3465 13.7402 48.2993 13.7184 48.2466C13.5526 47.8392 13.578 46.9035 13.7655 46.502C13.7583 46.4862 13.751 46.4702 13.7438 46.4546C13.7356 46.437 13.7266 46.4199 13.7184 46.4021C13.5037 45.9204 13.5182 43.2027 13.7329 42.6831Z" fill="#FF926A"/>
<path d="M9.76381 63.7979L9.70311 63.8987C9.58711 64.7998 9.65417 65.773 9.65417 66.6833L9.65235 71.6986L9.65326 80.1667C9.65417 81.6215 9.60252 83.096 9.66142 84.5481C9.66958 84.7492 9.70763 84.9233 9.81275 85.0953L11.7901 85.1031C11.7819 85.0874 11.7746 85.0717 11.7674 85.0561C11.7257 84.9722 11.6822 84.8847 11.6623 84.7923C11.4774 83.908 11.6288 79.7503 11.6288 78.6104C11.6297 73.9321 11.4819 69.0011 11.6441 64.3477C11.6514 64.1397 11.6759 63.9923 11.7882 63.8112L9.76381 63.7979Z" fill="#43343D"/>
<path d="M2.18448 50.2822L0.214431 50.294C0.13378 50.4266 0.0902824 50.5421 0.0766888 50.6964C-0.00486755 51.5764 -0.0510883 57.0405 0.0939016 57.7661C0.112025 57.8574 0.156429 57.9399 0.208082 58.0162L1.9833 58.0111C2.03948 58.5919 1.89177 59.4992 2.18628 59.9936C2.77893 59.9934 3.48847 59.9247 4.05846 60.0737C3.88901 60.4766 3.84551 61.3323 4.01588 61.744C4.03762 61.7962 4.06572 61.8423 4.09834 61.8882L7.81914 61.8897C7.81098 62.4371 7.69499 63.4123 7.98044 63.882C8.55134 63.886 9.13401 63.8656 9.7031 63.8988L9.76381 63.798C9.75112 63.7674 9.73391 63.7288 9.72575 63.6956C9.60886 63.254 9.60704 62.268 9.85172 61.877L7.9759 61.8807C7.69499 61.452 7.79738 60.4979 7.86082 59.9982C6.94557 59.7413 5.09876 59.9219 4.10287 59.931C4.06662 59.8751 4.03762 59.821 4.01225 59.7596C3.83826 59.3453 3.90895 58.4215 4.08747 58.0174C3.40964 58.0193 2.73363 58.0289 2.05852 57.9737C1.96518 57.0319 1.9099 50.7489 2.18448 50.2822Z" fill="#D14A37"/>
<path d="M13.7329 42.6831C12.1743 42.9628 9.66144 42.6986 7.98409 42.7249C7.78835 43.1566 7.75844 43.9901 7.93062 44.4368C7.93968 44.4601 7.95056 44.4831 7.95962 44.5062C8.78334 44.7316 10.9183 44.5631 11.8644 44.5523C11.6233 44.9363 11.6442 45.7967 11.7439 46.2274C11.7647 46.3194 11.8046 46.4044 11.8535 46.4849C12.4878 46.4876 13.133 46.4651 13.7655 46.502C13.7583 46.4862 13.7511 46.4702 13.7438 46.4546C13.7356 46.437 13.7266 46.4199 13.7184 46.4021C13.5037 45.9204 13.5182 43.2027 13.7329 42.6831Z" fill="#D14A37"/>
<path d="M4.05574 46.4866L2.2035 46.4927C1.94524 46.9034 1.94433 49.4864 2.07936 50.0358C2.1011 50.1226 2.14007 50.2047 2.18448 50.2822L4.11374 50.2839C4.10649 50.2693 4.09924 50.2545 4.09108 50.24C4.08293 50.2235 4.07297 50.2077 4.06481 50.1911C3.83011 49.726 3.87904 47.0376 4.05574 46.4866Z" fill="#D14A37"/>
<path d="M8.00491 44.6438C6.72357 44.6468 5.4395 44.6341 4.15906 44.6821C4.14727 44.7092 4.13369 44.736 4.12191 44.7636C3.94339 45.1977 3.99414 46.031 4.17719 46.4525L7.88801 46.4206C7.83908 45.8815 7.73487 45.1258 8.00491 44.6438Z" fill="#D14A37"/>
<path d="M11.7792 48.3245L7.98406 48.3267C7.8001 48.7488 7.75479 49.7141 7.92334 50.1449C7.94237 50.1943 7.97046 50.2401 8.00036 50.2838L6.00947 50.2937C5.78746 50.6572 5.78655 51.5145 5.89257 51.9237C5.91885 52.0253 5.96779 52.1193 6.02307 52.2079L4.1246 52.2084C3.92434 52.5935 3.88356 53.5875 4.03037 53.9939C4.0494 54.0464 4.07749 54.0949 4.10739 54.1416C4.74172 54.1395 5.38148 54.1192 6.0149 54.138C5.85179 54.5508 5.77114 55.5256 5.92701 55.9421C5.94694 55.9949 5.97685 56.0431 6.00766 56.0894L7.90974 56.0934C7.73304 55.7529 7.71583 52.8456 7.85991 52.4431C7.88438 52.3724 7.91609 52.3089 7.95053 52.2427C7.95868 52.2279 7.96593 52.2126 7.97318 52.1976L11.8172 52.1986C11.5798 52.6649 11.559 55.2845 11.7103 55.8627C11.7329 55.9459 11.7701 56.007 11.8154 56.079L7.98133 56.0878C7.75207 56.4643 7.75117 57.354 7.86988 57.7711C7.89434 57.8578 7.93059 57.9302 7.98133 58.0041L11.7991 58.0033C11.5789 58.4412 11.5372 61.1185 11.7157 61.6295C11.7405 61.7011 11.7713 61.7701 11.8082 61.8364C12.4525 61.8315 13.114 61.8575 13.7555 61.8054C14.3527 61.9588 15.1067 61.8807 15.7265 61.8786C15.6893 61.8228 15.6585 61.7689 15.6313 61.7071C15.4474 61.2952 15.5126 60.3192 15.6631 59.8984C15.4791 59.4689 15.4338 52.7958 15.6105 52.37C15.6359 52.3079 15.6667 52.2533 15.7038 52.1978L13.8027 52.204C13.5734 51.8149 13.5798 50.9936 13.6903 50.5654C13.7175 50.4616 13.7682 50.3663 13.8262 50.277L11.7755 50.2773C11.5644 49.8778 11.5354 48.9554 11.6759 48.5288C11.7003 48.455 11.7366 48.3886 11.7792 48.3245Z" fill="#FF6853"/>
<path d="M78.7528 54.1227C77.71 54.0982 76.6466 54.0808 75.6046 54.1303L75.5447 54.2179L75.5382 56.0559L73.5746 56.0545C73.5899 59.2985 73.5848 62.5424 73.5593 65.7861L73.5464 73.4634L73.5458 75.3997H72.0565L69.7021 75.4L69.7074 77.223L56.9299 77.2158C54.7849 77.216 52.5956 77.309 50.4543 77.2123C50.2612 77.5388 50.273 78.4782 50.3781 78.8369C50.4026 78.9208 50.437 78.9906 50.4869 79.0616C56.9009 79.0103 63.3149 79.0006 69.7291 79.0324L69.7356 77.2629C71.0015 77.2647 72.2729 77.2904 73.538 77.253L73.5383 84.9687C73.5383 86.2681 73.5986 87.5954 73.5303 88.8899C74.1429 88.8893 74.9478 88.7954 75.532 88.9579L75.5489 88.9114C75.4714 87.7175 75.5269 86.4929 75.5271 85.2945L75.5276 78.5761L75.5182 57.9905L77.5411 57.989L77.5231 54.1543C77.9328 54.1512 78.3431 54.1339 78.7528 54.1227Z" fill="#D14A37"/>
<path d="M25.4046 59.9802C24.0326 59.9962 22.6371 59.9402 21.2697 60.0085C21.6775 60.8425 20.9471 62.9246 21.4645 63.7834C22.0626 63.7872 22.6706 63.7698 23.2678 63.803C23.2316 63.2122 23.1364 62.452 23.3802 61.9034C24.0562 61.9202 24.7319 61.9188 25.4073 61.8991C25.3538 61.8117 25.3067 61.7192 25.2814 61.6192C25.1753 61.2009 25.1826 60.3534 25.4046 59.9802Z" fill="#D14A37"/>
<path d="M21.4146 63.8892C20.7794 63.8562 20.1478 63.8508 19.5107 63.8545C19.2697 64.2796 19.228 68.7689 19.392 69.3763C19.4129 69.4552 19.4527 69.5283 19.4953 69.5972C20.0952 69.5953 20.7368 69.6369 21.3303 69.5647C21.3213 69.5339 21.3077 69.495 21.3014 69.4623C21.1636 68.7759 21.1337 64.3414 21.4146 63.8892Z" fill="#D14A37"/>
<path d="M27.2487 71.5951C25.9691 71.5591 24.6893 71.5418 23.4092 71.5433C23.2062 71.9396 23.1572 72.7915 23.2995 73.2168C23.3249 73.2922 23.3611 73.3603 23.4046 73.4265C24.6787 73.4275 26.028 73.515 27.2913 73.3761C27.2749 73.351 27.2577 73.3266 27.2423 73.3006C27.013 72.9114 27.1118 72.0074 27.2487 71.5951Z" fill="#D14A37"/>
<path d="M23.4119 69.667L21.4527 69.6689C21.2126 69.9185 21.2352 70.2167 21.2416 70.5583C21.247 70.8562 21.228 71.2486 21.3992 71.5015C22.0544 71.4997 22.7458 71.541 23.3956 71.4661C23.343 71.388 23.305 71.3108 23.2796 71.2194C23.16 70.7966 23.1944 70.0497 23.4119 69.667Z" fill="#D14A37"/>
<path d="M21.4962 23.3868L13.6314 23.3854C13.3795 23.8082 13.4085 28.1898 13.5535 28.7952C13.5789 28.8987 13.6214 28.9955 13.6713 29.0891L15.6866 29.0882C15.4501 29.4809 15.4139 34.0533 15.5716 34.6316C15.5969 34.7248 15.6422 34.8101 15.693 34.8917L17.6032 34.8884C17.2996 35.3469 17.3595 37.8389 17.4573 38.4641C17.4736 38.5683 17.5226 38.6629 17.5779 38.7515L15.7029 38.7513C15.4637 39.1912 15.4773 39.9221 15.5987 40.402C15.6096 40.4428 15.625 40.4811 15.6395 40.5207C15.1393 40.6446 14.1289 40.4464 13.7809 40.7025C13.5453 41.0955 13.5734 42.1064 13.6831 42.5395C13.6948 42.5894 13.7148 42.6349 13.7329 42.6832C13.5181 43.2028 13.5036 45.9205 13.7184 46.4022C13.7266 46.42 13.7356 46.4371 13.7438 46.4547C13.751 46.4704 13.7583 46.4863 13.7655 46.5022C13.5779 46.9036 13.5526 47.8393 13.7184 48.2468C13.7401 48.2994 13.7691 48.3466 13.8018 48.3929L15.4411 48.3765L15.6005 48.4699C15.5299 49.005 15.4139 49.8181 15.7029 50.3007L17.4872 50.2958C17.4365 50.7019 17.374 51.2089 17.5887 51.5796C17.4764 51.8906 17.4909 51.9003 17.6232 52.1821C18.2493 52.2084 18.8719 52.2056 19.499 52.1983C19.2851 52.6436 19.2434 59.3505 19.4265 59.8211C19.4509 59.8844 19.4817 59.942 19.5171 59.9994L21.2697 60.0086C22.6371 59.9403 24.0326 59.9964 25.4046 59.9803C25.1826 60.3535 25.1753 61.201 25.2813 61.6193C25.3067 61.7193 25.3538 61.8118 25.4073 61.8993C26.4784 62.0967 27.9446 61.9354 29.0429 61.9027C28.9976 62.4306 28.8771 63.451 29.2033 63.8906C31.1335 63.8347 33.0736 63.8771 35.0047 63.8792C36.2836 63.8564 37.5629 63.8537 38.8424 63.8711C38.5533 64.3348 38.6421 65.1485 38.7119 65.6838L38.779 65.6867L38.788 65.7896C40.0476 65.7926 41.3069 65.7881 42.5659 65.7761C43.2592 65.8174 43.9678 65.7834 44.6619 65.7776C45.801 65.9264 47.1222 65.8115 48.2785 65.7823C48.96 65.8237 49.6514 65.7931 50.3347 65.7822C50.3265 65.7575 50.3138 65.7173 50.3084 65.6899C50.1688 64.9373 50.2404 58.4134 50.496 57.9961L48.5966 57.9981C48.5558 57.9315 48.5205 57.864 48.4951 57.79C48.3075 57.2398 48.3927 52.6379 48.6201 52.1869L46.6193 52.1997C46.5731 52.1278 46.5359 52.0542 46.5114 51.9721C46.3483 51.4184 46.4263 46.7838 46.6456 46.3985L44.6864 46.3987C44.6411 46.3261 44.5994 46.2501 44.5758 46.1675C44.4345 45.6722 44.4861 36.3955 44.5514 35.2801C44.5622 35.0979 44.594 34.9711 44.69 34.8136C44.0092 34.8308 43.3283 34.8286 42.6475 34.8071C40.7889 34.6648 38.8641 34.8216 36.9947 34.7889C36.7138 35.2212 36.7428 39.6324 36.8642 40.3214C36.8805 40.4136 36.9231 40.4979 36.972 40.5764C37.5185 40.5783 38.2878 40.4927 38.7971 40.6701C38.6657 41.5466 38.5488 45.7947 38.9122 46.404L37.0219 46.413C35.1153 46.6272 33.0818 46.5006 31.1589 46.4902C31.1145 46.412 31.07 46.3255 31.0501 46.2374C30.8507 45.369 31.0401 42.8637 31.0483 41.7763C31.0637 39.6211 30.9586 37.4163 31.0827 35.2663C31.0936 35.0889 31.1335 34.9593 31.2313 34.809C30.5547 34.8055 29.8781 34.806 29.2015 34.8105C29.1444 34.7225 29.0964 34.628 29.0719 34.525C28.9677 34.0824 28.9459 33.1833 29.2069 32.7931C30.3533 32.8751 31.553 32.808 32.7048 32.8126C33.0473 32.5923 32.6731 31.4135 32.9785 31.0129L33.0473 30.9779C33.6255 30.9649 34.2 30.9767 34.7782 30.9962L34.8833 30.9762C34.8434 30.4204 34.7138 29.5611 35.0065 29.0748L32.9667 29.0793C32.9295 28.5191 32.7927 27.5842 33.0881 27.0922L31.1969 27.0983C30.9604 26.7178 30.9686 25.8937 31.0701 25.4678C31.0927 25.3722 31.138 25.2847 31.1915 25.2033L21.4998 25.2143C21.2715 24.8125 21.2579 24.0992 21.3721 23.6551C21.3965 23.5587 21.4427 23.47 21.4962 23.3868Z" fill="white"/>
<path d="M19.6032 34.8857L17.6032 34.8882C17.2997 35.3467 17.3595 37.8387 17.4573 38.4639C17.4736 38.5681 17.5226 38.6627 17.5779 38.7513L15.703 38.7511C15.4637 39.191 15.4773 39.9219 15.5987 40.4018C15.6096 40.4426 15.625 40.4809 15.6395 40.5205C15.1393 40.6444 14.1289 40.4462 13.7809 40.7023C13.5453 41.0953 13.5734 42.1062 13.6831 42.5393C13.6948 42.5892 13.7148 42.6347 13.7329 42.683C13.5181 43.2026 13.5036 45.9203 13.7184 46.402C13.7266 46.4198 13.7356 46.4369 13.7438 46.4545C13.751 46.4701 13.7583 46.4861 13.7655 46.502C13.5779 46.9034 13.5526 47.8391 13.7184 48.2465C13.7402 48.2992 13.7692 48.3464 13.8018 48.3927L15.4411 48.3763L15.6006 48.4696C15.5299 49.0048 15.4139 49.8179 15.703 50.3005L17.4872 50.2956C17.4365 50.7017 17.374 51.2087 17.5887 51.5794C17.4764 51.8904 17.4909 51.9001 17.6232 52.1818C18.2493 52.2082 18.8719 52.2054 19.499 52.1981C19.2851 52.6434 19.2434 59.3503 19.4265 59.8209C19.4509 59.8841 19.4817 59.9418 19.5171 59.9991L21.2697 60.0084C22.6371 59.9401 24.0326 59.9962 25.4046 59.9801C25.1826 60.3533 25.1753 61.2008 25.2813 61.6191C25.3067 61.7191 25.3538 61.8116 25.4073 61.899C26.4784 62.0965 27.9446 61.9352 29.0429 61.9025C28.9976 62.4303 28.8771 63.4508 29.2033 63.8904C31.1335 63.8345 33.0736 63.8769 35.0047 63.879C36.2836 63.8561 37.5629 63.8534 38.8424 63.8709C38.5533 64.3346 38.6421 65.1483 38.7119 65.6836L38.779 65.6865L38.788 65.7894C40.0476 65.7924 41.3069 65.7879 42.5659 65.7759C43.2592 65.8172 43.9678 65.7831 44.6619 65.7773L44.4825 65.5509C44.4136 65.0652 44.3457 64.3177 44.6103 63.8814L42.758 63.8851L42.5931 63.6515C42.5079 62.6443 42.4037 58.8102 42.6747 57.9924C42.6339 57.9138 42.604 57.8547 42.5841 57.768C42.4771 57.3142 42.4717 56.4776 42.7182 56.0706L40.8152 56.0634C40.8025 56.0435 40.7889 56.0241 40.7771 56.0035C40.6104 55.7135 40.6104 48.9575 40.7662 48.3992C40.0458 48.0896 31.1208 48.5237 29.1797 48.3399C28.9876 47.756 28.9731 44.9477 29.2142 44.4104C29.1734 44.3351 29.1435 44.2618 29.1236 44.1781C29.0067 43.6887 28.9967 43.0084 29.2586 42.5657C28.6134 42.5819 27.9655 42.5701 27.3194 42.5679C27.2686 42.4895 27.226 42.4055 27.2052 42.3135C27.1055 41.8546 27.0955 40.9749 27.342 40.5631L25.3339 40.5671C25.2832 40.4881 25.2478 40.4102 25.2224 40.3192C25.101 39.8863 25.1472 39.0901 25.3566 38.6948C23.9302 38.7386 21.15 38.4357 19.9267 38.7096C19.7763 38.703 19.624 38.6803 19.4736 38.6633C19.3639 38.0504 19.3159 35.3465 19.6032 34.8857Z" fill="#FFF5ED"/>
<path d="M19.6032 34.8857L17.6032 34.8882C17.2996 35.3467 17.3594 37.8387 17.4573 38.4639C17.4736 38.5681 17.5226 38.6627 17.5778 38.7513L15.7029 38.7511C15.4637 39.191 15.4773 39.9219 15.5987 40.4018C15.6096 40.4426 15.625 40.4809 15.6395 40.5205C15.1393 40.6444 14.1289 40.4462 13.7809 40.7023C13.5453 41.0953 13.5734 42.1062 13.683 42.5393C13.6948 42.5892 13.7148 42.6347 13.7329 42.683C13.5181 43.2026 13.5036 45.9203 13.7184 46.402C13.7265 46.4198 13.7356 46.4369 13.7438 46.4545C13.751 46.4701 13.7583 46.4861 13.7655 46.502C13.5779 46.9034 13.5526 47.8391 13.7184 48.2465C13.7401 48.2992 13.7691 48.3464 13.8018 48.3927L15.441 48.3763L15.6005 48.4696C15.5299 49.0048 15.4139 49.8179 15.7029 50.3005L17.4872 50.2956C17.4365 50.7017 17.3739 51.2087 17.5887 51.5794C17.4763 51.8904 17.4908 51.9001 17.6231 52.1818C18.2493 52.2082 18.8719 52.2054 19.4989 52.1981C19.2851 52.6434 19.2434 59.3503 19.4264 59.8209C19.4509 59.8841 19.4817 59.9418 19.5171 59.9991L21.2696 60.0084C22.6371 59.9401 24.0326 59.9961 25.4046 59.9801C25.3429 59.8995 25.2904 59.8114 25.2641 59.7131C25.1517 59.2959 25.1599 58.4632 25.3864 58.0858L21.4028 58.0859C21.353 58.012 21.3168 57.9415 21.2968 57.8532C21.1518 57.2252 21.1691 52.6077 21.4183 52.1923C22.3108 52.205 24.425 52.3798 25.188 52.109H25.2514C25.2106 51.5471 25.1119 50.8031 25.3638 50.2891C25.9437 50.2952 26.6134 50.3723 27.1689 50.1957C26.8418 49.28 27.1725 45.8594 27.081 44.5904L27.0783 44.4964L25.381 44.497C25.0856 44.0704 25.2269 43.1927 25.2496 42.6959C24.647 42.466 23.8296 42.7927 23.2859 42.4943C23.2352 41.9467 23.1273 41.1908 23.3946 40.6967L21.5216 40.6796C21.2026 40.2107 21.343 39.3509 21.3566 38.8026L21.2715 38.7909C20.8347 38.7164 20.3716 38.7673 19.9267 38.7096C19.7762 38.703 19.624 38.6803 19.4736 38.6633C19.3639 38.0504 19.3159 35.3465 19.6032 34.8857Z" fill="#43343D"/>
<path d="M25.2514 52.1091H25.188C24.425 52.38 22.3109 52.2052 21.4183 52.1924C21.1691 52.6078 21.1519 57.2254 21.2968 57.8533C21.3168 57.9416 21.353 58.0121 21.4029 58.0861L25.3865 58.086C25.1599 58.4633 25.1518 59.2961 25.2641 59.7132C25.2904 59.8115 25.343 59.8997 25.4046 59.9803C25.1826 60.3534 25.1753 61.201 25.2813 61.6193C25.3067 61.7192 25.3538 61.8117 25.4073 61.8992C26.4784 62.0967 27.9446 61.9354 29.0429 61.9026C28.9976 62.4305 28.8771 63.451 29.2033 63.8905C31.1335 63.8346 33.0736 63.877 35.0047 63.8791C34.9449 63.7979 34.8933 63.7093 34.8679 63.6104C34.761 63.1876 34.7528 62.2844 34.9884 61.9037C33.7225 61.9084 32.4493 61.9395 31.186 61.8846C31.1353 61.812 31.0818 61.7277 31.0592 61.6417C30.9296 61.1591 30.9849 58.4832 31.1951 58.0478C29.8938 58.0599 28.5907 58.0263 27.2904 58.0258C27.2315 57.9325 27.1798 57.8332 27.1535 57.7257C27.0493 57.3056 27.0566 56.4785 27.2885 56.1036C25.9963 55.9976 24.6896 56.1226 23.3938 56.056C23.3729 55.994 23.3557 55.9325 23.3412 55.8687C23.2161 55.3251 23.2325 54.6494 23.5396 54.1702C24.1613 54.1485 24.792 54.1772 25.4155 54.184C25.1228 53.7351 25.1572 52.6347 25.2514 52.1091Z" fill="#FFE9D5"/>
<path d="M29.0828 60.0789C28.2409 59.7683 26.3425 59.971 25.4046 59.9801C25.1826 60.3533 25.1753 61.2009 25.2813 61.6192C25.3067 61.7191 25.3538 61.8116 25.4073 61.8991C26.4784 62.0965 27.9446 61.9352 29.0429 61.9025C28.9976 62.4304 28.8771 63.4508 29.2033 63.8904C31.1335 63.8345 33.0736 63.8769 35.0047 63.879C34.9449 63.7978 34.8933 63.7092 34.8679 63.6103C34.761 63.1875 34.7528 62.2843 34.9884 61.9036C33.7225 61.9083 32.4493 61.9394 31.186 61.8845C30.5236 61.9217 29.8485 61.8984 29.1852 61.9007C29.177 61.8885 29.1689 61.8765 29.1607 61.864C28.9161 61.4573 28.9804 60.5369 29.0828 60.0789Z" fill="#43343D"/>
<path d="M40.7662 48.3995L38.8143 48.3945C38.644 48.6704 38.576 55.2219 38.6974 55.8197C38.7183 55.9179 38.7645 56.0075 38.8198 56.09L40.7182 56.094C40.5778 56.3637 40.5388 64.9876 40.711 65.4958C40.7354 65.5683 40.7717 65.6359 40.8107 65.7014C40.1355 65.6978 39.4532 65.7169 38.779 65.6867L38.788 65.7897C40.0476 65.7927 41.3069 65.7882 42.5659 65.7762C43.2592 65.8175 43.9678 65.7834 44.6619 65.7776L44.4825 65.5512C44.4136 65.0655 44.3457 64.3179 44.6103 63.8817L42.758 63.8854L42.5931 63.6518C42.5079 62.6446 42.4037 58.8105 42.6747 57.9927C42.6339 57.9141 42.604 57.855 42.5841 57.7683C42.4771 57.3145 42.4717 56.4779 42.7182 56.0709L40.8152 56.0637C40.8025 56.0437 40.7889 56.0243 40.7771 56.0038C40.6104 55.7138 40.6104 48.9578 40.7662 48.3995Z" fill="#FFE9D5"/>
<path d="M23.5677 38.79C22.8283 38.7735 22.0961 38.7668 21.3566 38.8027C21.3431 39.3509 21.2026 40.2107 21.5216 40.6796L23.3947 40.6967C23.3684 40.6262 23.3448 40.5554 23.3285 40.4819C23.2035 39.9372 23.2778 39.2698 23.5677 38.79Z" fill="#FFE9D5"/>
<path d="M21.4962 23.3868L13.6314 23.3854C13.3795 23.8082 13.4085 28.1898 13.5535 28.7952C13.5789 28.8987 13.6215 28.9955 13.6713 29.0891L15.6867 29.0882C15.4501 29.4809 15.4139 34.0533 15.5716 34.6316C15.5969 34.7248 15.6423 34.8101 15.693 34.8917L17.6032 34.8884C17.5398 34.7902 17.4863 34.6842 17.4637 34.5683C17.3341 33.897 17.3278 29.4321 17.5951 29.0075L15.6087 29.0048C15.5716 28.9378 15.5326 28.863 15.5145 28.7877C15.3894 28.2587 15.3795 25.6941 15.6196 25.276L21.4727 25.2753C21.4183 25.3612 21.3829 25.4272 21.3648 25.5289C21.2878 25.9693 21.2497 26.7106 21.5071 27.0954C22.5293 27.2071 23.6548 27.1157 24.6905 27.1156L31.1969 27.0983C30.9604 26.7178 30.9686 25.8937 31.0701 25.4678C31.0927 25.3722 31.138 25.2847 31.1915 25.2033L21.4998 25.2143C21.2715 24.8125 21.2579 24.0992 21.3721 23.6551C21.3965 23.5587 21.4428 23.47 21.4962 23.3868Z" fill="#43343D"/>
<path d="M44.7 58.0603C44.2025 58.0689 43.0725 58.2179 42.6747 57.9924C42.4037 58.8103 42.5079 62.6443 42.5931 63.6516L42.758 63.8852L44.6103 63.8815C44.3457 64.3177 44.4136 65.0652 44.4825 65.5509L44.6619 65.7774C45.801 65.9263 47.1222 65.8114 48.2785 65.7821C47.1866 65.5589 45.8336 65.687 44.7154 65.691C44.671 65.6178 44.6284 65.5467 44.6039 65.4638C44.4245 64.8524 44.4372 58.5137 44.7 58.0603Z" fill="#FFF5ED"/>
<path d="M33.0881 27.092L31.1969 27.0981C30.955 27.4724 30.9631 28.302 31.0664 28.724C31.09 28.8238 31.138 28.9154 31.1933 29.0009C31.7035 28.9961 32.4411 28.8966 32.9123 29.1032C32.8679 29.6242 32.7945 30.3131 32.9604 30.8121L33.0474 30.9778C33.6255 30.9647 34.2 30.9765 34.7782 30.996L34.8833 30.976C34.8434 30.4202 34.7138 29.5609 35.0065 29.0746L32.9667 29.0791C32.9295 28.5189 32.7927 27.584 33.0881 27.092Z" fill="#43343D"/>
<path d="M29.1707 28.9983L25.3847 28.9997C25.1481 29.3782 25.15 30.2036 25.2524 30.6278C25.2759 30.7288 25.3239 30.8218 25.3792 30.9087L29.0067 30.9034L29.1009 30.796C29.0148 30.3208 28.9106 29.4191 29.1707 28.9983Z" fill="#FF6853"/>
<path d="M29.1009 30.7959L29.0067 30.9033C29.0184 31.4421 28.907 32.3547 29.2069 32.793C30.3532 32.8751 31.553 32.8079 32.7048 32.8125C33.0473 32.5922 32.6731 31.4134 32.9785 31.0128L33.0473 30.9779L32.9604 30.8122C32.49 31.0053 29.7651 31.057 29.2849 30.9035C29.2151 30.8813 29.1571 30.8398 29.1009 30.7959Z" fill="#FFBB80"/>
<path d="M21.5071 27.0955L19.5207 27.1028C19.3232 27.4344 19.2788 28.3455 19.402 28.716C19.4319 28.806 19.4745 28.877 19.5352 28.9486C20.0572 29.1335 20.9398 29.0147 21.5053 29.0106C21.2715 28.6244 21.2669 27.7995 21.3757 27.3697C21.4002 27.2702 21.45 27.1795 21.5071 27.0955Z" fill="#FF6853"/>
<path d="M65.9024 29.0158C63.3066 29.0249 60.7108 29.0196 58.1152 29L58.1233 30.9297L58.1278 32.8722C57.2815 32.9884 56.3789 32.9349 55.5244 32.9344C53.8452 32.9334 52.1624 32.9003 50.4842 32.9284C50.4316 33.0495 50.3863 33.1735 50.3736 33.3056C50.2739 34.3328 50.2413 47.9814 50.3419 48.2562C50.37 48.3335 50.4153 48.4041 50.4615 48.4717L61.9636 48.4341C61.9597 47.1315 61.9721 45.8265 61.9422 44.5244L63.9188 44.5259C63.9153 43.8938 63.8988 43.2585 63.917 42.6268L67.7292 42.6068C67.7351 41.9318 67.7284 41.254 67.7495 40.5795C67.8468 38.654 67.7739 36.7148 67.778 34.7873C68.4017 34.7788 69.0255 34.7744 69.6493 34.7742L69.7077 30.6595C69.7165 30.1309 69.8092 29.519 69.734 29.0001C68.4617 29.003 67.1725 28.9612 65.9024 29.0158Z" fill="white"/>
<path d="M65.9024 29.016C63.3066 29.0251 60.7108 29.0198 58.1152 29.0002L58.1233 30.9299C60.7065 30.8385 63.3176 30.9085 65.9032 30.9353L65.9024 29.016Z" fill="#FF926A"/>
<path d="M65.9358 52.2007C65.9122 52.8629 65.8826 53.5252 65.8929 54.188C66.5141 54.1889 67.1469 54.1633 67.7666 54.1935C67.7458 54.807 67.7326 55.4206 67.727 56.0344C68.3543 56.0224 69.1174 55.9318 69.7261 56.0718C69.7303 56.7136 69.7288 57.3554 69.7217 57.9972L71.6369 57.9684C71.6627 59.9054 71.6926 61.8604 71.6339 63.7965C70.7818 63.8039 69.9009 63.7667 69.0549 63.868C69.9172 63.8773 70.7796 63.8812 71.642 63.8799L71.6398 65.8009C72.2796 65.7902 72.9194 65.7853 73.5593 65.7863C73.5847 62.5424 73.5898 59.2985 73.5746 56.0547C72.9559 56.0624 72.3425 56.0677 71.7247 56.0269L71.6405 56.0175L71.6461 54.1595L69.7616 54.1693L67.8307 54.1779L67.8161 54.0823C67.6585 53.5525 67.7454 52.8229 67.7517 52.2651C67.1874 52.2638 66.611 52.2883 66.0514 52.2066L65.9358 52.2007Z" fill="#FFE9D5"/>
<path d="M54.4931 27.0783C53.6558 27.0988 48.844 26.9559 48.4688 27.1858C48.2405 27.685 48.3392 28.4569 48.3728 28.9981L58.1152 29L58.1206 27.0896C56.9136 27.0962 55.6984 27.1288 54.4931 27.0783Z" fill="#43343D"/>
<path d="M58.1152 29L48.3728 28.998L48.3827 29.0726C48.5902 29.6181 48.3755 30.2136 48.5812 30.7658C49.5798 30.7753 50.7895 30.6633 51.7546 30.8952C53.7374 31.1019 56.1007 30.9386 58.1233 30.9297L58.1152 29Z" fill="white"/>
<path d="M51.7546 30.8953C51.4692 30.8988 50.6717 30.8245 50.4651 30.9822C50.3147 31.3931 50.2658 32.2863 50.4271 32.6925C50.4515 32.752 50.4669 32.7712 50.5032 32.829L55.5117 32.8191C56.3608 32.82 57.2914 32.7485 58.1278 32.8722L58.1233 30.9297C56.1007 30.9386 53.7374 31.102 51.7546 30.8953Z" fill="#FF926A"/>
<path d="M42.6448 30.9768L42.5813 30.9899C42.5714 31.4849 42.6729 32.3983 42.4672 32.8276L42.4726 32.8967C42.6738 33.4919 42.4055 34.1516 42.6457 34.7261C44.6067 34.6827 46.5731 34.7165 48.5341 34.7187C48.487 34.6443 48.4453 34.5681 48.4163 34.4845C48.2677 34.0543 48.3284 33.2105 48.5123 32.7993C46.5994 32.701 44.6556 32.778 42.739 32.7843C42.5161 32.2688 42.6022 31.5289 42.6448 30.9768Z" fill="#FF926A"/>
<path d="M38.7971 40.6699L36.9014 40.6776C36.6187 41.0573 36.7564 45.498 36.818 46.2521L37.0219 46.4128L38.9122 46.4038C38.5488 45.7945 38.6657 41.5464 38.7971 40.6699Z" fill="#FFE9D5"/>
<path d="M36.9023 34.791L34.9975 34.7935C34.7157 35.2041 34.7202 39.6193 34.8525 40.2777C34.8751 40.3945 34.9295 40.5019 34.9939 40.6007C35.5883 40.5981 36.2408 40.6461 36.8262 40.5609C36.8144 40.5245 36.7963 40.475 36.7881 40.4356C36.6431 39.7556 36.6304 35.2435 36.9023 34.791Z" fill="#FFE9D5"/>
<path d="M34.7782 30.9961C34.2 30.9766 33.6255 30.9649 33.0474 30.9779L32.9785 31.0129C32.6731 31.4134 33.0474 32.5923 32.7048 32.8126C33.0909 33.2108 32.7103 34.2386 32.9939 34.7972L34.9975 34.7934C34.9494 34.7235 34.9059 34.6514 34.8769 34.5709C34.7265 34.1607 34.7836 33.2893 34.973 32.9005C37.4695 32.9095 39.9779 32.9676 42.4726 32.8968L42.4672 32.8276L34.9993 32.8094C34.7166 32.321 34.8316 31.5236 34.8833 30.9762L34.7782 30.9961Z" fill="#FFE9D5"/>
<path d="M34.7782 30.9961C34.2 30.9766 33.6255 30.9649 33.0474 30.9779L32.9785 31.0129C32.8861 31.5475 32.8534 32.2855 33.0782 32.7883L34.896 32.7861C34.6078 32.3435 34.7501 31.5053 34.7782 30.9961Z" fill="white"/>
<path d="M48.3728 28.9981C47.1639 28.9966 45.9233 29.0557 44.7181 28.9897C44.4091 29.4385 44.5197 30.3726 44.5876 30.9047C45.8708 31.0063 47.2128 30.9283 48.5023 30.9271C48.2051 30.4897 48.3501 29.5875 48.3827 29.0727L48.3728 28.9981Z" fill="#43343D"/>
<path d="M61.9521 63.8915L59.9629 63.8865C59.981 64.5251 59.9987 65.1603 59.9735 65.799L61.9396 65.8068C61.9937 65.1799 61.9542 64.522 61.9521 63.8915Z" fill="#FFE9D5"/>
</svg>
