<svg width="12" height="15" viewBox="0 0 12 15" fill="none" xmlns="http://www.w3.org/2000/svg">
<path fill-rule="evenodd" clip-rule="evenodd" d="M12 6.16663C12 10.8333 6 14.8333 6 14.8333C6 14.8333 0 10.8333 0 6.16663C2.37122e-08 4.57533 0.632141 3.0492 1.75736 1.92399C2.88258 0.798767 4.4087 0.166626 6 0.166626C7.5913 0.166626 9.11742 0.798767 10.2426 1.92399C11.3679 3.0492 12 4.57533 12 6.16663ZM6 8.16663C7.10457 8.16663 8 7.27119 8 6.16663C8 5.06206 7.10457 4.16663 6 4.16663C4.89543 4.16663 4 5.06206 4 6.16663C4 7.27119 4.89543 8.16663 6 8.16663Z" fill="#FF6853"/>
</svg>
