<svg width="24" height="24" viewBox="0 0 24 24" fill="none" xmlns="http://www.w3.org/2000/svg">
<ellipse cx="8.50005" cy="6.5" rx="2.5" ry="3.5" fill="#FF6853" stroke="#FF6853"/>
<ellipse cx="15.5" cy="6.5" rx="2.5" ry="3.5" fill="#FF6853" stroke="#FF6853"/>
<ellipse cx="20.5756" cy="11.842" rx="1.91322" ry="2.67851" transform="rotate(15.9438 20.5756 11.842)" fill="#FF6853" stroke="#FF6853"/>
<ellipse cx="1.91322" cy="2.67851" rx="1.91322" ry="2.67851" transform="matrix(-0.961532 0.274694 0.274694 0.961532 4.67924 8.74097)" fill="#FF6853" stroke="#FF6853"/>
<path d="M7.53849 20.2193C6.388 19.5812 6.21107 18.2859 6.58985 16.8204C7.55807 13.9685 9.61679 12 12 12C14.556 12 16.7386 14.2641 17.6032 17.4537C17.8718 18.5167 17.4806 19.6893 16.5251 20.2193C15.3746 20.8575 13.5 20 12 20C11 20 8.68899 20.8575 7.53849 20.2193Z" fill="#FF6853" stroke="#FF6853"/>
</svg>
